<?xml version="1.0" encoding="UTF-8" standalone="no"?>
<!-- Created with Inkscape (http://www.inkscape.org/) -->

<svg
   width="21.219578mm"
   height="16.992245mm"
   viewBox="0 0 21.219578 16.992245"
   version="1.1"
   id="svg1"
   xml:space="preserve"
   xmlns:inkscape="http://www.inkscape.org/namespaces/inkscape"
   xmlns:sodipodi="http://sodipodi.sourceforge.net/DTD/sodipodi-0.dtd"
   xmlns="http://www.w3.org/2000/svg"
   xmlns:svg="http://www.w3.org/2000/svg"><sodipodi:namedview
     id="namedview1"
     pagecolor="#505050"
     bordercolor="#ffffff"
     borderopacity="1"
     inkscape:showpageshadow="0"
     inkscape:pageopacity="0"
     inkscape:pagecheckerboard="1"
     inkscape:deskcolor="#505050"
     inkscape:document-units="mm" /><defs
     id="defs1" /><g
     inkscape:label="图层 1"
     inkscape:groupmode="layer"
     id="layer1"
     transform="translate(-93.487856,-138.79214)"><path
       d="m 93.937651,155.33159 c -0.599723,-0.59972 -0.599723,-15.48694 0,-16.08666 0.603718,-0.60372 19.716279,-0.60372 20.319999,0 0.59972,0.59972 0.59972,15.48694 0,16.08666 -0.60372,0.60372 -19.716281,0.60372 -20.319999,0 z m 19.508609,-8.04333 v -7.23194 h -9.34861 -9.34861 l -0.08585,6.87916 c -0.04722,3.78354 -0.0115,7.08025 0.07938,7.32602 0.128825,0.34839 2.207464,0.42612 9.43446,0.35277 l 9.26923,-0.0941 z m -17.10972,4.58611 c -0.558482,-1.04353 0.03659,-1.84796 2.072351,-2.80146 l 1.772579,-0.83024 -0.511352,-0.98885 c -1.265791,-2.44777 -0.03087,-5.25723 2.310862,-5.25723 2.33696,0 3.5769,2.80899 2.31615,5.24702 -0.50589,0.97828 -0.50537,0.979 1.38151,1.90441 1.97453,0.9684 2.67454,2.02586 1.93274,2.91967 -0.3367,0.4057 -1.51419,0.51224 -5.66118,0.51224 -4.875006,0 -5.262096,-0.0486 -5.61366,-0.70556 z m 10.23056,-0.72497 c 0,-0.2047 -0.87313,-0.75832 -1.94028,-1.23027 -2.14102,-0.94686 -2.32524,-1.39803 -1.36049,-3.33191 0.95023,-1.90478 -0.40075,-4.26033 -1.90271,-3.31756 -1.04793,0.65779 -1.32022,2.01012 -0.66798,3.31756 0.96475,1.93388 0.78052,2.38505 -1.360489,3.33191 -1.067153,0.47195 -1.940278,1.02557 -1.940278,1.23027 0,0.24199 1.604418,0.37219 4.586107,0.37219 2.9817,0 4.58612,-0.1302 4.58612,-0.37219 z m 1.76388,-3.68475 c 0,-0.39198 0.41158,-0.52917 1.5875,-0.52917 1.17593,0 1.5875,0.13719 1.5875,0.52917 0,0.39198 -0.41157,0.52917 -1.5875,0.52917 -1.17592,0 -1.5875,-0.13719 -1.5875,-0.52917 z m -1.05833,-2.11667 c 0,-0.41157 0.47037,-0.52916 2.11667,-0.52916 1.64629,0 2.11666,0.11759 2.11666,0.52916 0,0.41158 -0.47037,0.52917 -2.11666,0.52917 -1.6463,0 -2.11667,-0.11759 -2.11667,-0.52917 z"
       id="path3" /></g></svg>
