<?xml version="1.0" encoding="UTF-8" standalone="no"?>
<!-- Created with Inkscape (http://www.inkscape.org/) -->

<svg
   width="4.6531477mm"
   height="4.6111207mm"
   viewBox="0 0 4.6531477 4.6111207"
   version="1.1"
   id="svg1"
   xml:space="preserve"
   xmlns:inkscape="http://www.inkscape.org/namespaces/inkscape"
   xmlns:sodipodi="http://sodipodi.sourceforge.net/DTD/sodipodi-0.dtd"
   xmlns="http://www.w3.org/2000/svg"
   xmlns:svg="http://www.w3.org/2000/svg"><sodipodi:namedview
     id="namedview1"
     pagecolor="#505050"
     bordercolor="#ffffff"
     borderopacity="1"
     inkscape:showpageshadow="0"
     inkscape:pageopacity="0"
     inkscape:pagecheckerboard="1"
     inkscape:deskcolor="#505050"
     inkscape:document-units="mm" /><defs
     id="defs1" /><g
     inkscape:label="图层 1"
     inkscape:groupmode="layer"
     id="layer1"
     transform="translate(-102.63082,-146.12016)"><path
       d="m 104.19749,150.6395 c -0.28275,-0.10265 -0.28957,-0.10732 -0.80032,-0.54775 -1.2198,-1.05186 -0.94293,-2.97999 0.54245,-3.77762 0.48136,-0.25849 1.55012,-0.25864 2.032,-3e-4 0.70621,0.3786 1.30962,1.23836 1.31151,1.86867 l 8.3e-4,0.27517 h -1.05834 c -1.00188,0 -1.05833,0.009 -1.05833,0.16933 0,0.15428 0.0565,0.16934 0.635,0.16934 0.56659,0 0.635,0.0173 0.635,0.16027 0,0.20875 -0.15874,0.26306 -0.76892,0.26306 h -0.50108 v 0.55951 c 0,0.55186 0.003,0.5588 0.20793,0.50733 0.65132,-0.16348 1.06715,-0.49207 1.36399,-1.07787 0.22133,-0.43677 0.46008,-0.54949 0.46008,-0.21721 0,0.28072 -0.43608,0.92768 -0.81659,1.21149 -0.17953,0.1339 -0.34546,0.266 -0.36874,0.29357 -0.19252,0.2279 -1.33488,0.31784 -1.81647,0.14301 z m 0.54647,-0.86579 v -0.54662 l -0.61384,-0.0249 c -0.56326,-0.0228 -0.61606,-0.0406 -0.64088,-0.21537 -0.026,-0.18316 -0.002,-0.1905 0.61383,-0.1905 0.58444,0 0.64089,-0.0149 0.64089,-0.16934 0,-0.15847 -0.0564,-0.16933 -0.88,-0.16933 h -0.88 l 0.0782,0.35983 c 0.11705,0.53842 0.47599,0.99552 0.99438,1.26633 0.65811,0.3438 0.68739,0.3306 0.68739,-0.31012 z m -0.24132,-1.70488 c 0.0664,-0.041 -0.11241,-0.32779 -0.60081,-0.96365 l -0.16091,-0.20948 -0.18777,0.16715 c -0.18581,0.16541 -0.49708,0.7521 -0.50067,0.94369 -0.002,0.10148 1.29651,0.15725 1.45016,0.0623 z m 2.29776,-0.23924 c -0.0185,-0.25577 -0.43907,-0.85359 -0.60048,-0.85359 -0.12317,0 -0.86105,0.99348 -0.8051,1.084 0.0243,0.0393 0.35447,0.0591 0.73379,0.044 l 0.68968,-0.0273 z m -1.38778,-0.55166 c 0.29518,-0.36988 0.40704,-0.57243 0.34846,-0.631 -0.13294,-0.13294 -1.15294,-0.17102 -1.43637,-0.0536 l -0.2482,0.10281 0.43528,0.58166 c 0.23941,0.31991 0.44222,0.57339 0.45069,0.56328 0.008,-0.0101 0.21103,-0.26352 0.45014,-0.56313 z"
       id="path1" /></g></svg>
