<?xml version="1.0" encoding="UTF-8" standalone="no"?>
<!-- Created with Inkscape (http://www.inkscape.org/) -->

<svg
   width="4.9046345mm"
   height="4.3071661mm"
   viewBox="0 0 4.9046345 4.3071661"
   version="1.1"
   id="svg1"
   xml:space="preserve"
   xmlns:inkscape="http://www.inkscape.org/namespaces/inkscape"
   xmlns:sodipodi="http://sodipodi.sourceforge.net/DTD/sodipodi-0.dtd"
   xmlns="http://www.w3.org/2000/svg"
   xmlns:svg="http://www.w3.org/2000/svg"><sodipodi:namedview
     id="namedview1"
     pagecolor="#505050"
     bordercolor="#ffffff"
     borderopacity="1"
     inkscape:showpageshadow="0"
     inkscape:pageopacity="0"
     inkscape:pagecheckerboard="1"
     inkscape:deskcolor="#505050"
     inkscape:document-units="mm" /><defs
     id="defs1" /><g
     inkscape:label="图层 1"
     inkscape:groupmode="layer"
     id="layer1"
     transform="translate(-102.62011,-146.52412)"><path
       d="m 103.80638,150.67215 c -0.0471,-0.088 -0.0856,-0.23613 -0.0856,-0.3292 0,-0.0983 -0.16229,-0.30222 -0.38698,-0.48634 -0.53703,-0.44005 -0.71369,-0.82126 -0.71369,-1.54007 0,-0.32042 0.0548,-0.76465 0.12177,-0.98718 0.22382,-0.74371 0.73715,-1.04144 1.02862,-0.5966 0.13098,0.19991 0.12814,0.3372 -0.0171,0.82612 -0.0343,0.11552 0.007,0.14816 0.18574,0.14816 0.15552,0 0.36137,0.12311 0.63708,0.381 0.22402,0.20955 0.43912,0.381 0.47798,0.381 0.0389,0 0.23893,-0.17145 0.44459,-0.381 0.25597,-0.26081 0.4444,-0.381 0.59732,-0.381 0.21797,0 0.22319,-0.0126 0.2152,-0.51816 -0.009,-0.58265 0.10455,-0.73161 0.48568,-0.63595 0.26568,0.0667 0.50038,0.48453 0.6387,1.13712 0.20268,0.95623 0.0754,1.42592 -0.54753,2.02054 -0.25192,0.24047 -0.45804,0.50822 -0.45804,0.595 0,0.0868 -0.0578,0.24035 -0.12853,0.34128 -0.12096,0.1727 -0.19566,0.18355 -1.26905,0.18438 -1.03213,7.9e-4 -1.14866,-0.0143 -1.22613,-0.1591 z m 1.08168,-1.01169 0.0243,-0.88291 -0.40519,-0.41138 c -0.43674,-0.44341 -0.72328,-0.50893 -0.77061,-0.17623 -0.0176,0.12406 0.0887,0.31161 0.3175,0.5598 0.18923,0.20528 0.34404,0.41661 0.34404,0.46961 0,0.21426 -0.24772,0.0724 -0.59716,-0.34205 -0.33896,-0.40199 -0.36815,-0.47354 -0.35129,-0.86116 0.0101,-0.2325 0.059,-0.57346 0.10859,-0.75769 0.10643,-0.39525 0.002,-0.58169 -0.24197,-0.43133 -0.2558,0.15775 -0.4453,0.85883 -0.42149,1.55936 0.024,0.70504 0.15232,0.94914 0.70639,1.34336 0.1613,0.11477 0.31453,0.30666 0.34051,0.42644 0.0944,0.43544 0.0999,0.43981 0.51906,0.41294 l 0.40303,-0.0258 z m 1.2147,0.73475 c 0.0561,-0.10477 0.0955,-0.20002 0.0876,-0.21167 -0.0768,-0.11363 0.0382,-0.2938 0.28486,-0.44624 0.51844,-0.32042 0.71683,-0.70784 0.71683,-1.39983 0,-0.89085 -0.34697,-1.75665 -0.60184,-1.50178 -0.0591,0.0591 -0.0563,0.30849 0.009,0.78436 0.094,0.68646 0.092,0.7028 -0.1251,1.01604 -0.32841,0.4739 -0.62245,0.72762 -0.72472,0.62535 -0.0581,-0.0581 0.0197,-0.20713 0.2402,-0.46031 0.39577,-0.45443 0.46742,-0.62776 0.31263,-0.75622 -0.17697,-0.14688 -0.41081,-0.0343 -0.79555,0.38314 l -0.34648,0.37588 v 0.83445 c 0,0.45894 0.0254,0.85984 0.0564,0.89089 0.031,0.031 0.2202,0.0564 0.42035,0.0564 0.29074,0 0.38441,-0.0383 0.46587,-0.1905 z"
       id="path1" /></g></svg>
