<?xml version="1.0" encoding="UTF-8" standalone="no"?>
<!-- Created with Inkscape (http://www.inkscape.org/) -->

<svg
   width="5.0346408mm"
   height="4.9106016mm"
   viewBox="0 0 5.0346408 4.9106016"
   version="1.1"
   id="svg1"
   xml:space="preserve"
   xmlns:inkscape="http://www.inkscape.org/namespaces/inkscape"
   xmlns:sodipodi="http://sodipodi.sourceforge.net/DTD/sodipodi-0.dtd"
   xmlns="http://www.w3.org/2000/svg"
   xmlns:svg="http://www.w3.org/2000/svg"><sodipodi:namedview
     id="namedview1"
     pagecolor="#505050"
     bordercolor="#ffffff"
     borderopacity="1"
     inkscape:showpageshadow="0"
     inkscape:pageopacity="0"
     inkscape:pagecheckerboard="1"
     inkscape:deskcolor="#505050"
     inkscape:document-units="mm" /><defs
     id="defs1" /><g
     inkscape:label="图层 1"
     inkscape:groupmode="layer"
     id="layer1"
     transform="translate(-102.32376,-145.97143)"><path
       d="m 103.75863,150.56455 c -0.13865,-0.43044 -0.21797,-0.51414 -0.57952,-0.61149 -0.17063,-0.046 -0.37836,-0.13335 -0.4616,-0.19422 -0.14129,-0.10331 -0.14261,-0.13581 -0.0198,-0.48856 0.1679,-0.48223 0.17588,-0.42896 -0.11996,-0.80123 -0.1397,-0.17579 -0.254,-0.36992 -0.254,-0.4314 0,-0.0615 0.17145,-0.21227 0.381,-0.33507 0.36842,-0.21591 0.381,-0.23683 0.381,-0.63357 0,-0.23599 0.045,-0.43882 0.10583,-0.47743 0.0582,-0.0369 0.29634,-0.0556 0.52917,-0.0414 0.38948,0.0236 0.44667,0.002 0.71511,-0.27653 0.16048,-0.16622 0.33398,-0.30221 0.38556,-0.30221 0.0516,0 0.22508,0.13696 0.38555,0.30436 0.27681,0.28875 0.31409,0.30215 0.72648,0.26113 0.53412,-0.0531 0.62363,0.025 0.62363,0.54406 0,0.38192 0.0156,0.40747 0.37663,0.61907 0.20714,0.1214 0.39674,0.25327 0.42133,0.29306 0.0246,0.0398 -0.0888,0.24367 -0.25193,0.45308 -0.25968,0.33331 -0.2858,0.40925 -0.20967,0.6095 0.11135,0.29286 0.11029,0.3024 -0.0335,0.3024 -0.0662,0 -0.16491,-0.13478 -0.21928,-0.29952 -0.0899,-0.27225 -0.0789,-0.32569 0.12043,-0.58701 0.12061,-0.15813 0.21929,-0.32308 0.21929,-0.36657 0,-0.0435 -0.15028,-0.17851 -0.33395,-0.30006 -0.30081,-0.19906 -0.33652,-0.26075 -0.35984,-0.62162 l -0.0259,-0.40062 -0.44468,0.024 c -0.40621,0.0219 -0.46362,0.001 -0.66369,-0.2363 -0.27538,-0.32727 -0.4034,-0.32723 -0.64547,1.9e-4 -0.18031,0.24388 -0.22229,0.25872 -0.6587,0.23284 l -0.46613,-0.0276 -0.0259,0.40409 c -0.0234,0.36494 -0.0582,0.42549 -0.35983,0.62508 -0.18368,0.12155 -0.33395,0.25806 -0.33395,0.30336 0,0.0453 0.0984,0.19932 0.21869,0.34227 0.16342,0.19421 0.20493,0.31501 0.16421,0.47789 -0.1704,0.68158 -0.17923,0.65603 0.25447,0.73651 0.372,0.069 0.40979,0.10033 0.54971,0.45513 0.16352,0.41464 0.25182,0.44355 0.74289,0.24317 0.23987,-0.0979 0.28993,-0.0962 0.35713,0.012 0.0605,0.0974 0.0241,0.13721 -0.16126,0.17621 -0.13168,0.0277 -0.32944,0.11343 -0.43947,0.1905 -0.31875,0.22326 -0.47639,0.17589 -0.59017,-0.17738 z m 1.71474,0.0847 c -0.0464,-0.12806 -0.1137,-0.30903 -0.14964,-0.40217 -0.0628,-0.16278 -0.0588,-0.1636 0.10384,-0.0212 0.093,0.0815 0.21621,0.14816 0.27369,0.14816 0.1135,0 1.0408,-0.43058 1.10983,-0.51534 0.0809,-0.0993 0.43809,-0.26013 0.48143,-0.21678 0.0781,0.0781 -0.25638,0.35957 -0.95555,0.8041 -0.37719,0.23981 -0.70683,0.43602 -0.73255,0.43602 -0.0257,0 -0.0847,-0.10477 -0.13105,-0.23283 z m -1.54094,-1.46231 c 0,-0.0476 0.0965,-0.23231 0.21444,-0.41053 0.1777,-0.26853 0.19982,-0.36249 0.12909,-0.54852 -0.2577,-0.6778 0.66811,-1.12081 1.06773,-0.51092 0.11827,0.1805 0.12646,0.26378 0.0467,0.47505 -0.0864,0.22895 -0.07,0.29489 0.154,0.62054 0.28523,0.41456 0.29821,0.46086 0.12918,0.46086 -0.0668,0 -0.22875,-0.15159 -0.35983,-0.33686 -0.32498,-0.45934 -0.59521,-0.45985 -0.95799,-0.002 -0.26162,0.33032 -0.42333,0.42665 -0.42333,0.25219 z m 1.18196,-0.96779 c 0.12448,-0.15 0.0463,-0.43514 -0.13878,-0.50616 -0.18434,-0.0707 -0.42407,0.0147 -0.48472,0.17278 -0.1324,0.34501 0.38448,0.62138 0.6235,0.33338 z"
       id="path1" /></g></svg>
