<svg width="18" height="13" viewBox="0 0 18 13" fill="none" xmlns="http://www.w3.org/2000/svg">
<path d="M3.85437 12.7393C3.21179 12.7393 2.64213 12.6162 2.14539 12.3701C1.64864 12.124 1.25216 11.7891 0.955933 11.3652C0.659709 10.9368 0.486532 10.4583 0.436401 9.92969L0.429565 9.84082H1.87195L1.87878 9.89551C1.92436 10.1826 2.03373 10.4447 2.20691 10.6816C2.38464 10.9186 2.61707 11.1055 2.90417 11.2422C3.19128 11.3789 3.51257 11.4473 3.86804 11.4473C4.27364 11.4473 4.63139 11.3584 4.94128 11.1807C5.25118 10.9984 5.49272 10.75 5.66589 10.4355C5.84363 10.1211 5.9325 9.75879 5.9325 9.34863V9.33496C5.9325 8.92936 5.84363 8.56934 5.66589 8.25488C5.48816 7.94043 5.24662 7.69661 4.94128 7.52344C4.63595 7.3457 4.28276 7.25684 3.88171 7.25684C3.58549 7.25684 3.30977 7.30241 3.05457 7.39355C2.80391 7.48014 2.58061 7.6123 2.38464 7.79004C2.29806 7.87207 2.21602 7.96094 2.13855 8.05664C2.06108 8.14779 1.99272 8.25033 1.93347 8.36426H0.6073L1.09949 2.63574H6.84167V3.93457H2.30945L2.00867 7.0791H2.11804C2.25932 6.85579 2.43477 6.66667 2.64441 6.51172C2.8586 6.35677 3.10014 6.23828 3.36902 6.15625C3.6379 6.07422 3.92273 6.0332 4.22351 6.0332C4.8433 6.0332 5.39018 6.17448 5.86414 6.45703C6.34265 6.73958 6.71863 7.12695 6.99207 7.61914C7.2655 8.11133 7.40222 8.67415 7.40222 9.30762V9.32129C7.40222 9.99121 7.24955 10.5837 6.94421 11.0986C6.64343 11.6136 6.22644 12.0169 5.69324 12.3086C5.16459 12.5957 4.55164 12.7393 3.85437 12.7393Z" fill="inherit"/>
<path d="M13.5031 12.7393C12.7967 12.7393 12.1633 12.6208 11.6027 12.3838C11.0422 12.1423 10.5637 11.7959 10.1672 11.3447C9.77068 10.8936 9.46534 10.3512 9.25115 9.71777C9.04152 9.07975 8.9367 8.36426 8.9367 7.57129V7.55762C8.9367 6.50944 9.12355 5.60026 9.49724 4.83008C9.87094 4.05534 10.3996 3.45605 11.0832 3.03223C11.7668 2.6084 12.5666 2.39648 13.4826 2.39648C14.23 2.39648 14.8976 2.52865 15.4855 2.79297C16.0734 3.05729 16.5565 3.42871 16.9347 3.90723C17.313 4.38118 17.5614 4.93717 17.6799 5.5752L17.6867 5.64355H16.1486L16.1281 5.5752C15.9549 4.99186 15.6382 4.54297 15.1779 4.22852C14.7222 3.91406 14.1571 3.75684 13.4826 3.75684C12.8765 3.75684 12.3501 3.91178 11.9035 4.22168C11.4569 4.53158 11.1105 4.97135 10.8644 5.54102C10.6229 6.10612 10.5021 6.77604 10.5021 7.55078V7.56445C10.5021 8.15234 10.5705 8.68099 10.7072 9.15039C10.8485 9.61979 11.0513 10.0208 11.3156 10.3535C11.5799 10.6816 11.8967 10.9346 12.2658 11.1123C12.6349 11.29 13.0519 11.3789 13.5168 11.3789C14.0545 11.3789 14.5262 11.2741 14.9318 11.0645C15.342 10.8503 15.661 10.554 15.8888 10.1758C16.1167 9.79753 16.2329 9.35547 16.2375 8.84961L16.2443 8.63086H13.7082V7.39355H17.7619V8.61719C17.7619 9.24154 17.6616 9.80664 17.4611 10.3125C17.2606 10.8184 16.9735 11.2536 16.5998 11.6182C16.2261 11.9782 15.7772 12.2562 15.2531 12.4521C14.729 12.6436 14.1457 12.7393 13.5031 12.7393Z" fill="inherit"/>
</svg>
