<svg width="28" height="15" viewBox="0 0 28 15" fill="none" xmlns="http://www.w3.org/2000/svg">
<path opacity="0.4" fill-rule="evenodd" clip-rule="evenodd" d="M12.5665 14H12.5667L13.3887 13H13.3885L12.5665 14ZM15.1104 13L14.2884 14H19.27C21.5102 14 22.6303 14 23.4859 13.564C24.2386 13.1805 24.8505 12.5686 25.234 11.816C25.67 10.9603 25.67 9.84021 25.67 7.6V7.4C25.67 5.15979 25.67 4.03969 25.234 3.18404C24.8505 2.43139 24.2386 1.81947 23.4859 1.43597C22.6303 1 21.5102 1 19.27 1H17.35C17.4008 1.33351 17.3656 1.68079 17.2555 2H19.27C20.4066 2 21.1989 2.00078 21.8157 2.05118C22.4209 2.10062 22.7686 2.19279 23.032 2.32698C23.5964 2.6146 24.0554 3.07354 24.343 3.63803C24.4772 3.90138 24.5694 4.24907 24.6188 4.85424C24.6692 5.47108 24.67 6.26339 24.67 7.4V7.6C24.67 8.73661 24.6692 9.52892 24.6188 10.1458C24.5694 10.7509 24.4772 11.0986 24.343 11.362C24.0554 11.9265 23.5964 12.3854 23.032 12.673C22.7686 12.8072 22.4209 12.8994 21.8157 12.9488C21.1989 12.9992 20.4066 13 19.27 13H15.1104ZM15.8346 2L15.9903 1.588C16.0351 1.46947 16.0513 1.36026 16.0451 1.26341C16.0513 1.3602 16.0351 1.46934 15.9903 1.58777L15.8345 2H15.8346ZM10.2461 13H7.06998C5.93338 13 5.14106 12.9992 4.52422 12.9488C3.91906 12.8994 3.57137 12.8072 3.30801 12.673C2.74353 12.3854 2.28458 11.9265 1.99696 11.362C1.86278 11.0986 1.7706 10.7509 1.72116 10.1458C1.67076 9.52892 1.66998 8.73661 1.66998 7.6V7.4C1.66998 6.26339 1.67076 5.47108 1.72116 4.85424C1.7706 4.24907 1.86278 3.90138 1.99696 3.63803C2.28458 3.07354 2.74353 2.6146 3.30801 2.32698C3.57137 2.19279 3.91906 2.10062 4.52422 2.05118C5.14106 2.00078 5.93338 2 7.06998 2H12.5856L13.4068 1H7.06998C4.82977 1 3.70967 1 2.85402 1.43597C2.10137 1.81947 1.48945 2.43139 1.10596 3.18404C0.669983 4.03969 0.669983 5.15979 0.669983 7.4V7.6C0.669983 9.84021 0.669983 10.9603 1.10596 11.816C1.48945 12.5686 2.10137 13.1805 2.85402 13.564C3.70967 14 4.82977 14 7.06998 14H9.9647C9.97965 13.7891 10.026 13.5806 10.1006 13.3851L10.1019 13.3815L10.2461 13Z" fill="white"/>
<path opacity="0.5" d="M26.67 5.5V9.5C27.4759 9.16122 28 8.37313 28 7.5C28 6.62687 27.4759 5.83878 26.67 5.5Z" fill="white"/>
<path fill-rule="evenodd" clip-rule="evenodd" d="M13.1953 8.95909L13.1954 8.95887H9.65045C9.37459 8.95887 9.17445 8.77495 9.1592 8.52146C9.17435 8.77506 9.37452 8.95909 9.65047 8.95909H13.1953ZM10.6241 12H5.86998C4.74988 12 4.18983 12 3.762 11.782C3.38568 11.5903 3.07972 11.2843 2.88797 10.908C2.66998 10.4802 2.66998 9.9201 2.66998 8.8V6.2C2.66998 5.0799 2.66998 4.51984 2.88797 4.09202C3.07972 3.71569 3.38568 3.40973 3.762 3.21799C4.18983 3 4.74988 3 5.86998 3H11.7645L8.30275 7.21563C8.02545 7.55006 7.82828 7.97573 7.82828 8.49034C7.82828 9.54764 8.6832 10.2891 9.65047 10.2891H11.2708L10.6241 12Z" fill="#32D74B"/>
<path d="M9.15826 8.49012C9.15826 8.75965 9.36334 8.95887 9.65045 8.95887H13.1954L11.3438 13.8573C11.0743 14.5604 11.8008 14.9296 12.2696 14.3612L18.0059 7.3827C18.1172 7.24207 18.1758 7.10731 18.1758 6.95496C18.1758 6.68543 17.9649 6.48621 17.6837 6.48621H14.1387L15.9903 1.58777C16.254 0.890508 15.5274 0.515508 15.0587 1.08387L9.32819 8.06238C9.211 8.20301 9.15826 8.33777 9.15826 8.49012Z" fill="white"/>
</svg>
