<svg width="28" height="15" viewBox="0 0 28 15" fill="none" xmlns="http://www.w3.org/2000/svg">
<path opacity="0.4" fill-rule="evenodd" clip-rule="evenodd" d="M12.5666 14H12.5668L13.3888 13H13.3886L12.5666 14ZM15.1104 13L14.2884 14H19.27C21.5103 14 22.6304 14 23.486 13.564C24.2387 13.1805 24.8506 12.5686 25.2341 11.816C25.67 10.9603 25.67 9.84021 25.67 7.6V7.4C25.67 5.15979 25.67 4.03969 25.2341 3.18404C24.8506 2.43139 24.2387 1.81947 23.486 1.43597C22.6304 1 21.5103 1 19.27 1H17.3501C17.4008 1.33351 17.3657 1.68079 17.2555 2H19.27C20.4067 2 21.199 2.00078 21.8158 2.05118C22.421 2.10062 22.7687 2.19279 23.032 2.32698C23.5965 2.6146 24.0554 3.07354 24.3431 3.63803C24.4772 3.90138 24.5694 4.24907 24.6189 4.85424C24.6693 5.47108 24.67 6.26339 24.67 7.4V7.6C24.67 8.73661 24.6693 9.52892 24.6189 10.1458C24.5694 10.7509 24.4772 11.0986 24.3431 11.362C24.0554 11.9265 23.5965 12.3854 23.032 12.673C22.7687 12.8072 22.421 12.8994 21.8158 12.9488C21.199 12.9992 20.4067 13 19.27 13H15.1104ZM15.8346 2L15.9904 1.588C16.0352 1.46947 16.0514 1.36026 16.0451 1.26341C16.0514 1.3602 16.0351 1.46934 15.9904 1.58777L15.8345 2H15.8346ZM10.2462 13H7.07004C5.93344 13 5.14113 12.9992 4.52428 12.9488C3.91912 12.8994 3.57143 12.8072 3.30807 12.673C2.74359 12.3854 2.28464 11.9265 1.99702 11.362C1.86284 11.0986 1.77066 10.7509 1.72122 10.1458C1.67082 9.52892 1.67004 8.73661 1.67004 7.6V7.4C1.67004 6.26339 1.67082 5.47108 1.72122 4.85424C1.77066 4.24907 1.86284 3.90138 1.99702 3.63803C2.28464 3.07354 2.74359 2.6146 3.30807 2.32698C3.57143 2.19279 3.91912 2.10062 4.52428 2.05118C5.14113 2.00078 5.93344 2 7.07004 2H12.5857L13.4068 1H7.07004C4.82983 1 3.70973 1 2.85408 1.43597C2.10143 1.81947 1.48951 2.43139 1.10602 3.18404C0.670044 4.03969 0.670044 5.15979 0.670044 7.4V7.6C0.670044 9.84021 0.670044 10.9603 1.10602 11.816C1.48951 12.5686 2.10143 13.1805 2.85408 13.564C3.70973 14 4.82983 14 7.07004 14H9.96476C9.97971 13.7891 10.0261 13.5806 10.1006 13.3851L10.102 13.3815L10.2462 13Z" fill="black"/>
<path opacity="0.5" d="M26.67 5.5V9.5C27.476 9.16122 28 8.37313 28 7.5C28 6.62687 27.476 5.83878 26.67 5.5Z" fill="black"/>
<path fill-rule="evenodd" clip-rule="evenodd" d="M13.1954 8.95909L13.1954 8.95887H9.65051C9.37465 8.95887 9.17452 8.77495 9.15926 8.52146C9.17441 8.77506 9.37458 8.95909 9.65053 8.95909H13.1954ZM10.6242 12H5.87004C4.74994 12 4.18989 12 3.76206 11.782C3.38574 11.5903 3.07978 11.2843 2.88803 10.908C2.67004 10.4802 2.67004 9.9201 2.67004 8.8V6.2C2.67004 5.0799 2.67004 4.51984 2.88803 4.09202C3.07978 3.71569 3.38574 3.40973 3.76206 3.21799C4.18989 3 4.74994 3 5.87004 3H11.7645L8.30281 7.21563C8.02551 7.55006 7.82834 7.97573 7.82834 8.49034C7.82834 9.54764 8.68326 10.2891 9.65053 10.2891H11.2709L10.6242 12Z" fill="#34C759"/>
<path d="M9.15833 8.49012C9.15833 8.75965 9.3634 8.95887 9.65051 8.95887H13.1954L11.3439 13.8573C11.0743 14.5604 11.8009 14.9296 12.2697 14.3612L18.006 7.3827C18.1173 7.24207 18.1759 7.10731 18.1759 6.95496C18.1759 6.68543 17.965 6.48621 17.6837 6.48621H14.1388L15.9904 1.58777C16.254 0.890508 15.5275 0.515508 15.0587 1.08387L9.32825 8.06238C9.21106 8.20301 9.15833 8.33777 9.15833 8.49012Z" fill="black"/>
</svg>
