<svg width="18" height="12" viewBox="0 0 18 12" fill="none" xmlns="http://www.w3.org/2000/svg">
<path d="M10 3C10 2.44772 10.4477 2 11 2H12C12.5523 2 13 2.44772 13 3V11C13 11.5523 12.5523 12 12 12H11C10.4477 12 10 11.5523 10 11V3Z" fill="inherit"/>
<path d="M15 1C15 0.447715 15.4477 0 16 0H17C17.5523 0 18 0.447715 18 1V11C18 11.5523 17.5523 12 17 12H16C15.4477 12 15 11.5523 15 11V1Z" fill="inherit"/>
<path d="M5 6.5C5 5.94772 5.44772 5.5 6 5.5H7C7.55228 5.5 8 5.94772 8 6.5V11C8 11.5523 7.55228 12 7 12H6C5.44772 12 5 11.5523 5 11V6.5Z" fill="inherit"/>
<path d="M0 9C0 8.44772 0.447715 8 1 8H2C2.55228 8 3 8.44772 3 9V11C3 11.5523 2.55228 12 2 12H1C0.447715 12 0 11.5523 0 11V9Z" fill="inherit"/>
</svg>
