<svg width="20" height="14" viewBox="0 0 20 14" fill="none" xmlns="http://www.w3.org/2000/svg">
<path fill-rule="evenodd" clip-rule="evenodd" d="M12.1618 10.1251H13.3285C13.9728 10.1251 14.4951 10.6288 14.4951 11.2501V12.6252C14.4951 13.2465 13.9728 13.7502 13.3285 13.7502H12.1618C11.5175 13.7502 10.9951 13.2465 10.9951 12.6252V11.2501C10.9951 10.6288 11.5175 10.1251 12.1618 10.1251ZM7.83818 10.1251H6.67151C6.02718 10.1251 5.50484 10.6288 5.50484 11.2501V12.625C5.50484 13.2463 6.02718 13.75 6.67151 13.75H7.83818C8.48251 13.75 9.00484 13.2463 9.00484 12.625V11.2501C9.00484 10.6288 8.48251 10.1251 7.83818 10.1251ZM2.34798 10.1252H1.18132C0.536983 10.1252 0.0146484 10.6288 0.0146484 11.2502V12.625C0.0146484 13.2463 0.536983 13.75 1.18132 13.75H2.34798C2.99231 13.75 3.51465 13.2463 3.51465 12.625V11.2502C3.51465 10.6288 2.99231 10.1252 2.34798 10.1252ZM18.8184 10.1251H17.6518C17.0074 10.1251 16.4851 10.6288 16.4851 11.2501L16.4854 12.625C16.4854 13.2464 17.0077 13.75 17.652 13.75H18.8187C19.463 13.75 19.9854 13.2464 19.9854 12.625L19.9851 11.2501C19.9851 10.6288 19.4628 10.1251 18.8184 10.1251Z" fill="inherit"/>
<path fill-rule="evenodd" clip-rule="evenodd" d="M13.3285 2.37521H12.1618C11.5175 2.37521 10.9951 2.87889 10.9951 3.50021V7.62521C10.9951 8.24653 11.5175 8.75021 12.1618 8.75021H13.3285C13.9728 8.75021 14.4951 8.24653 14.4951 7.62521V3.50021C14.4951 2.87889 13.9728 2.37521 13.3285 2.37521ZM6.67155 3.99997H7.83822C8.48255 3.99997 9.00488 4.50365 9.00488 5.12497V7.62497C9.00488 8.24629 8.48255 8.74997 7.83822 8.74997H6.67155C6.02722 8.74997 5.50488 8.24629 5.50488 7.62497V5.12497C5.50488 4.50365 6.02722 3.99997 6.67155 3.99997ZM1.18132 5.24997H2.34798C2.99231 5.24997 3.51465 5.75365 3.51465 6.37497V7.62497C3.51465 8.24629 2.99231 8.74997 2.34798 8.74997H1.18132C0.536983 8.74997 0.0146484 8.24629 0.0146484 7.62497V6.37497C0.0146484 5.75365 0.536983 5.24997 1.18132 5.24997Z" fill="inherit"/>
<path opacity="0.2" d="M17.6518 0.750092H18.8184C19.4628 0.750092 19.9851 1.25377 19.9851 1.87509V7.62509C19.9851 8.24641 19.4628 8.75009 18.8184 8.75009H17.6518C17.0074 8.75009 16.4851 8.24641 16.4851 7.62509V1.87509C16.4851 1.25377 17.0074 0.750092 17.6518 0.750092Z" fill="inherit"/>
</svg>
