<svg width="20" height="13" viewBox="0 0 20 13" fill="none" xmlns="http://www.w3.org/2000/svg">
<path opacity="0.2" fill-rule="evenodd" clip-rule="evenodd" d="M12.1617 9.12494H13.3284C13.9727 9.12494 14.495 9.62862 14.495 10.2499V11.6251C14.495 12.2464 13.9727 12.7501 13.3284 12.7501H12.1617C11.5174 12.7501 10.995 12.2464 10.995 11.6251V10.2499C10.995 9.62862 11.5174 9.12494 12.1617 9.12494ZM7.83818 9.12497H6.67151C6.02718 9.12497 5.50484 9.62865 5.50484 10.25V11.6248C5.50484 12.2462 6.02718 12.7498 6.67151 12.7498H7.83818C8.48251 12.7498 9.00484 12.2462 9.00484 11.6248V10.25C9.00484 9.62865 8.48251 9.12497 7.83818 9.12497ZM2.34798 9.12502H1.18132C0.536983 9.12502 0.0146484 9.6287 0.0146484 10.25V11.6248C0.0146484 12.2461 0.536983 12.7498 1.18132 12.7498H2.34798C2.99231 12.7498 3.51465 12.2461 3.51465 11.6248V10.25C3.51465 9.6287 2.99231 9.12502 2.34798 9.12502ZM18.8183 9.12499H17.6517C17.0073 9.12499 16.485 9.62867 16.485 10.25L16.4852 11.6249C16.4852 12.2462 17.0076 12.7499 17.6519 12.7499H18.8186C19.4629 12.7499 19.9852 12.2462 19.9852 11.6249L19.985 10.25C19.985 9.62867 19.4627 9.12499 18.8183 9.12499Z" fill="inherit"/>
</svg>
