<svg width="17" height="12" viewBox="0 0 17 12" fill="none" xmlns="http://www.w3.org/2000/svg">
<path fill-rule="evenodd" clip-rule="evenodd" d="M8.50047 2.58753C10.967 2.58764 13.3393 3.55505 15.1269 5.28982C15.2615 5.42375 15.4766 5.42206 15.6092 5.28603L16.896 3.96045C16.9631 3.89146 17.0006 3.798 17 3.70076C16.9994 3.60353 16.9609 3.51052 16.893 3.44234C12.2011 -1.14745 4.79908 -1.14745 0.107163 3.44234C0.0391973 3.51047 0.000634479 3.60345 7.75932e-06 3.70069C-0.00061896 3.79792 0.0367421 3.89141 0.103824 3.96045L1.39096 5.28603C1.52346 5.42226 1.73878 5.42396 1.87331 5.28982C3.66116 3.55494 6.03367 2.58752 8.50047 2.58753ZM8.53591 6.58938C9.89112 6.58929 11.198 7.10346 12.2025 8.03199C12.3384 8.16376 12.5524 8.16091 12.6849 8.02555L13.9702 6.69997C14.0379 6.63044 14.0754 6.53611 14.0744 6.4381C14.0735 6.34008 14.034 6.24656 13.965 6.17844C10.9059 3.27385 6.16853 3.27385 3.10945 6.17844C3.04035 6.24656 3.00092 6.34013 3.00002 6.43817C2.99911 6.53622 3.0368 6.63054 3.10462 6.69997L4.38954 8.02555C4.52199 8.16091 4.73602 8.16376 4.87189 8.03199C5.87578 7.10408 7.18159 6.58995 8.53591 6.58938ZM11.1496 9.17672C11.1515 9.27501 11.1137 9.36977 11.0449 9.43863L8.82165 11.7289C8.75648 11.7962 8.66762 11.834 8.57491 11.834C8.4822 11.834 8.39334 11.7962 8.32817 11.7289L6.10452 9.43863C6.03583 9.36972 5.99804 9.27492 6.00008 9.17663C6.00212 9.07834 6.0438 8.98527 6.11528 8.91938C7.53515 7.69354 9.61467 7.69354 11.0345 8.91938C11.106 8.98532 11.1476 9.07843 11.1496 9.17672Z" fill="inherit" />
</svg>
