<?xml version="1.0" encoding="UTF-8" standalone="no"?>
<!-- Created with Inkscape (http://www.inkscape.org/) -->

<svg
   width="6.5642715mm"
   height="4.9533477mm"
   viewBox="0 0 6.5642715 4.9533477"
   version="1.1"
   id="svg1"
   xml:space="preserve"
   inkscape:export-filename="x.svg"
   inkscape:export-xdpi="96"
   inkscape:export-ydpi="96"
   xmlns:inkscape="http://www.inkscape.org/namespaces/inkscape"
   xmlns:sodipodi="http://sodipodi.sourceforge.net/DTD/sodipodi-0.dtd"
   xmlns="http://www.w3.org/2000/svg"
   xmlns:svg="http://www.w3.org/2000/svg"><sodipodi:namedview
     id="namedview1"
     pagecolor="#505050"
     bordercolor="#ffffff"
     borderopacity="1"
     inkscape:showpageshadow="0"
     inkscape:pageopacity="0"
     inkscape:pagecheckerboard="1"
     inkscape:deskcolor="#505050"
     inkscape:document-units="mm" /><defs
     id="defs1" /><g
     inkscape:label="图层 1"
     inkscape:groupmode="layer"
     id="layer1"
     transform="translate(-101.82027,-145.96035)">
     <path
       d="m 105.05454,150.91171 -3.01991,-0.001 -0.10718,-0.068 -0.10718,-0.068 0.0225,-2.40718 0.0225,-2.40717 h 3.21734 3.21733 l 0.0423,1.86267 0.0423,1.86266 -0.0268,0.18885 -0.0268,0.18884 -0.24833,-0.1836 -0.24833,-0.1836 v -1.59274 -1.59275 l -0.1905,-8.3e-4 -0.1905,-8.3e-4 -2.54,-0.004 -2.54,-0.004 -0.0228,1.91 -0.0228,1.90999 h 2.11826 2.11825 v -0.381 -0.381 h 0.12487 0.12487 l 0.76226,0.48684 0.76227,0.48683 0.002,0.13911 0.002,0.13911 -0.13392,0.0514 -0.13393,0.0514 z m 0.0281,-2.96204 h -2.32834 v -0.381 -0.381 h 2.32834 2.32833 v 0.381 0.381 z"
       id="path1" />
       </g>
       </svg>
