<svg xmlns="http://www.w3.org/2000/svg" xmlns:xlink="http://www.w3.org/1999/xlink" fill="none" version="1.1" width="18.499975204467773" height="18.499975204467773" viewBox="0 0 18.499975204467773 18.499975204467773"><g><path d="M12.75,7.5C13.1642,7.5,13.5,7.16421,13.5,6.75C13.5,6.33579,13.1642,6,12.75,6C12.75,6,12.75,7.5,12.75,7.5C12.75,7.5,12.75,7.5,12.75,7.5ZM10.75,6C10.3358,6,10,6.33579,10,6.75C10,7.16421,10.3358,7.5,10.75,7.5C10.75,7.5,10.75,6,10.75,6C10.75,6,10.75,6,10.75,6ZM11.9016,2.65899C12.1945,2.3661,12.1945,1.89123,11.9016,1.59833C11.6088,1.30544,11.1339,1.30544,10.841,1.59833C10.841,1.59833,11.9016,2.65899,11.9016,2.65899C11.9016,2.65899,11.9016,2.65899,11.9016,2.65899ZM8.71967,3.71965C8.42678,4.01255,8.42678,4.48742,8.71967,4.78031C9.01256,5.07321,9.48744,5.07321,9.78033,4.78031C9.78033,4.78031,8.71967,3.71965,8.71967,3.71965C8.71967,3.71965,8.71967,3.71965,8.71967,3.71965ZM6,2.75C6,3.16421,6.33579,3.5,6.75,3.5C7.16421,3.5,7.5,3.16421,7.5,2.75C7.5,2.75,6,2.75,6,2.75C6,2.75,6,2.75,6,2.75ZM7.5,0.75C7.5,0.335786,7.16421,0,6.75,0C6.33579,0,6,0.335786,6,0.75C6,0.75,7.5,0.75,7.5,0.75C7.5,0.75,7.5,0.75,7.5,0.75ZM3.71971,4.78037C4.01261,5.07327,4.48748,5.07327,4.78037,4.78037C5.07327,4.48748,5.07327,4.01261,4.78037,3.71971C4.78037,3.71971,3.71971,4.78037,3.71971,4.78037C3.71971,4.78037,3.71971,4.78037,3.71971,4.78037ZM2.65905,1.59839C2.36616,1.3055,1.89129,1.3055,1.59839,1.59839C1.3055,1.89129,1.3055,2.36616,1.59839,2.65905C1.59839,2.65905,2.65905,1.59839,2.65905,1.59839C2.65905,1.59839,2.65905,1.59839,2.65905,1.59839ZM2.75,7.5C3.16421,7.5,3.5,7.16421,3.5,6.75C3.5,6.33579,3.16421,6,2.75,6C2.75,6,2.75,7.5,2.75,7.5C2.75,7.5,2.75,7.5,2.75,7.5ZM0.75,6C0.335786,6,0,6.33579,0,6.75C0,7.16421,0.335786,7.5,0.75,7.5C0.75,7.5,0.75,6,0.75,6C0.75,6,0.75,6,0.75,6ZM4.78037,9.78033C5.07327,9.48744,5.07327,9.01256,4.78037,8.71967C4.48748,8.42678,4.01261,8.42678,3.71971,8.71967C3.71971,8.71967,4.78037,9.78033,4.78037,9.78033C4.78037,9.78033,4.78037,9.78033,4.78037,9.78033ZM1.59839,10.841C1.3055,11.1339,1.3055,11.6088,1.59839,11.9017C1.89129,12.1945,2.36616,12.1945,2.65905,11.9017C2.65905,11.9017,1.59839,10.841,1.59839,10.841C1.59839,10.841,1.59839,10.841,1.59839,10.841ZM6,12.75C6,13.1642,6.33579,13.5,6.75,13.5C7.16421,13.5,7.5,13.1642,7.5,12.75C7.5,12.75,6,12.75,6,12.75C6,12.75,6,12.75,6,12.75ZM7.5,10.75C7.5,10.3358,7.16421,10,6.75,10C6.33579,10,6,10.3358,6,10.75C6,10.75,7.5,10.75,7.5,10.75C7.5,10.75,7.5,10.75,7.5,10.75ZM17.2197,18.2803C17.5126,18.5732,17.9875,18.5732,18.2803,18.2803C18.5732,17.9875,18.5732,17.5126,18.2803,17.2197C18.2803,17.2197,17.2197,18.2803,17.2197,18.2803C17.2197,18.2803,17.2197,18.2803,17.2197,18.2803ZM10.2803,9.21967C9.98744,8.92678,9.51256,8.92678,9.21967,9.21967C8.92678,9.51256,8.92678,9.98744,9.21967,10.2803C9.21967,10.2803,10.2803,9.21967,10.2803,9.21967C10.2803,9.21967,10.2803,9.21967,10.2803,9.21967ZM12.75,6C12.75,6,10.75,6,10.75,6C10.75,6,10.75,7.5,10.75,7.5C10.75,7.5,12.75,7.5,12.75,7.5C12.75,7.5,12.75,6,12.75,6C12.75,6,12.75,6,12.75,6ZM10.841,1.59833C10.841,1.59833,8.71967,3.71965,8.71967,3.71965C8.71967,3.71965,9.78033,4.78031,9.78033,4.78031C9.78033,4.78031,11.9016,2.65899,11.9016,2.65899C11.9016,2.65899,10.841,1.59833,10.841,1.59833C10.841,1.59833,10.841,1.59833,10.841,1.59833ZM7.5,2.75C7.5,2.75,7.5,0.75,7.5,0.75C7.5,0.75,6,0.75,6,0.75C6,0.75,6,2.75,6,2.75C6,2.75,7.5,2.75,7.5,2.75C7.5,2.75,7.5,2.75,7.5,2.75ZM4.78037,3.71971C4.78037,3.71971,2.65905,1.59839,2.65905,1.59839C2.65905,1.59839,1.59839,2.65905,1.59839,2.65905C1.59839,2.65905,3.71971,4.78037,3.71971,4.78037C3.71971,4.78037,4.78037,3.71971,4.78037,3.71971C4.78037,3.71971,4.78037,3.71971,4.78037,3.71971ZM2.75,6C2.75,6,0.75,6,0.75,6C0.75,6,0.75,7.5,0.75,7.5C0.75,7.5,2.75,7.5,2.75,7.5C2.75,7.5,2.75,6,2.75,6C2.75,6,2.75,6,2.75,6ZM3.71971,8.71967C3.71971,8.71967,1.59839,10.841,1.59839,10.841C1.59839,10.841,2.65905,11.9017,2.65905,11.9017C2.65905,11.9017,4.78037,9.78033,4.78037,9.78033C4.78037,9.78033,3.71971,8.71967,3.71971,8.71967C3.71971,8.71967,3.71971,8.71967,3.71971,8.71967ZM7.5,12.75C7.5,12.75,7.5,10.75,7.5,10.75C7.5,10.75,6,10.75,6,10.75C6,10.75,6,12.75,6,12.75C6,12.75,7.5,12.75,7.5,12.75C7.5,12.75,7.5,12.75,7.5,12.75ZM18.2803,17.2197C18.2803,17.2197,10.2803,9.21967,10.2803,9.21967C10.2803,9.21967,9.21967,10.2803,9.21967,10.2803C9.21967,10.2803,17.2197,18.2803,17.2197,18.2803C17.2197,18.2803,18.2803,17.2197,18.2803,17.2197C18.2803,17.2197,18.2803,17.2197,18.2803,17.2197Z" fill="#001A72" fill-opacity="1"/></g></svg>