<?xml version="1.0" encoding="UTF-8" standalone="no"?>
<!-- Created with Inkscape (http://www.inkscape.org/) -->

<svg
   width="6.095243mm"
   height="5.4208093mm"
   viewBox="0 0 6.095243 5.4208093"
   version="1.1"
   id="svg1"
   xml:space="preserve"
   xmlns:inkscape="http://www.inkscape.org/namespaces/inkscape"
   xmlns:sodipodi="http://sodipodi.sourceforge.net/DTD/sodipodi-0.dtd"
   xmlns="http://www.w3.org/2000/svg"
   xmlns:svg="http://www.w3.org/2000/svg"><sodipodi:namedview
     id="namedview1"
     pagecolor="#505050"
     bordercolor="#ffffff"
     borderopacity="1"
     inkscape:showpageshadow="0"
     inkscape:pageopacity="0"
     inkscape:pagecheckerboard="1"
     inkscape:deskcolor="#505050"
     inkscape:document-units="mm" /><defs
     id="defs1" /><g
     inkscape:label="图层 1"
     inkscape:groupmode="layer"
     id="layer1"
     transform="translate(-101.05945,-146.09817)"><path
       d="m 103.62329,151.4811 c -0.44577,-0.11251 -1.15624,-0.4921 -1.39357,-0.74456 -0.12187,-0.12963 -0.30169,-0.38753 -0.39959,-0.57311 l -0.178,-0.33741 v -0.27447 -0.27447 l 0.20711,-0.1357 0.20712,-0.13571 0.15272,0.0853 c 0.084,0.0469 0.28607,0.30446 0.44905,0.57229 l 0.29633,0.48696 0.37315,0.19646 0.37315,0.19647 h 0.3967 0.3967 l 0.37315,-0.19647 0.37315,-0.19646 0.29634,-0.48696 c 0.16298,-0.26783 0.36505,-0.52536 0.44905,-0.57229 l 0.15272,-0.0853 0.20711,0.13571 0.20712,0.1357 v 0.27447 0.27447 l -0.17801,0.33741 c -0.26605,0.50433 -0.57011,0.78764 -1.13448,1.05707 l -0.50815,0.2426 -0.42318,0.0434 c -0.23275,0.0239 -0.54581,0.0124 -0.69569,-0.0254 z m -2.41566,-2.7227 -0.14817,-0.0863 v -0.23361 c 0,-0.31751 0.0447,-0.36294 1.39453,-1.4168 l 1.18285,-0.92351 0.47431,0.003 0.4743,0.003 1.17917,0.92081 c 0.64855,0.50644 1.2268,0.97922 1.28501,1.05063 0.24635,0.30222 0.0313,0.77481 -0.35256,0.77481 h -0.19229 l -1.17749,-0.93023 c -0.64762,-0.51163 -1.19654,-0.93023 -1.21983,-0.93023 -0.0233,0 -0.5722,0.4186 -1.21982,0.93023 l -1.17749,0.93023 -0.17718,-0.003 c -0.0974,-0.001 -0.24385,-0.0414 -0.32534,-0.0889 z"
       id="path1" /></g></svg>
