<?xml version="1.0" encoding="UTF-8" standalone="no"?>
<!-- Created with Inkscape (http://www.inkscape.org/) -->

<svg
   width="5.9851398mm"
   height="7.058064mm"
   viewBox="0 0 5.9851398 7.058064"
   version="1.1"
   id="svg1"
   xml:space="preserve"
   xmlns:inkscape="http://www.inkscape.org/namespaces/inkscape"
   xmlns:sodipodi="http://sodipodi.sourceforge.net/DTD/sodipodi-0.dtd"
   xmlns="http://www.w3.org/2000/svg"
   xmlns:svg="http://www.w3.org/2000/svg"><sodipodi:namedview
     id="namedview1"
     pagecolor="#505050"
     bordercolor="#ffffff"
     borderopacity="1"
     inkscape:showpageshadow="0"
     inkscape:pageopacity="0"
     inkscape:pagecheckerboard="1"
     inkscape:deskcolor="#505050"
     inkscape:document-units="mm" /><defs
     id="defs1" /><g
     inkscape:label="图层 1"
     inkscape:groupmode="layer"
     id="layer1"
     transform="translate(-101.68625,-144.9067)"><path
       d="m 102.01195,151.93216 c -0.15393,-0.0704 -0.13012,-0.23459 0.0711,-0.49044 0.15109,-0.19208 0.16347,-0.26366 0.0847,-0.48972 -0.11838,-0.33957 -0.11163,-0.98374 0.0175,-1.66982 0.10603,-0.56339 0.26098,-0.75711 0.52465,-0.65593 0.12347,0.0474 0.13981,0.11962 0.094,0.41564 -0.0305,0.19707 -0.0789,0.65347 -0.10769,1.01424 l -0.0523,0.65594 0.30905,0.29146 c 0.4889,0.46109 1.36789,0.5154 1.87579,0.11588 0.26954,-0.21202 0.464,-0.63172 0.464,-1.00148 0,-0.25897 -0.004,-0.26112 -0.40217,-0.23555 -0.34043,0.0219 -0.40624,0.0544 -0.4287,0.2123 -0.0346,0.24294 -0.34857,0.34824 -0.48442,0.16245 -0.0553,-0.0756 -0.0841,-0.22333 -0.0641,-0.32825 0.0289,-0.15137 -0.0186,-0.21156 -0.22995,-0.29135 -0.20862,-0.0787 -0.26042,-0.14296 -0.23873,-0.29595 0.0214,-0.15117 0.0946,-0.20498 0.32324,-0.23773 l 0.29554,-0.0423 0.1425,-0.762 c 0.0784,-0.4191 0.16679,-0.92392 0.19648,-1.12183 l 0.054,-0.35984 h -0.33783 c -0.4537,0 -0.89289,0.40457 -1.04122,0.95914 -0.0583,0.21795 -0.156,0.39553 -0.21764,0.39553 -0.14157,0 -1.09462,-0.47821 -1.15826,-0.58118 -0.0749,-0.12116 0.13047,-0.2411 0.5239,-0.306 0.27256,-0.045 0.39065,-0.11511 0.47928,-0.28474 0.24626,-0.47131 1.0203,-1.02855 1.42946,-1.0291 0.33472,-4.4e-4 0.56593,-0.1446 0.56593,-0.35287 0,-0.16452 -0.0314,-0.17309 -0.43754,-0.11922 -0.84483,0.11207 -1.40719,0.46844 -1.89215,1.19908 -0.31811,0.47925 -0.45378,0.54775 -0.64014,0.3232 -0.16272,-0.19607 0.17002,-0.78148 0.74054,-1.30291 1.23629,-1.1299 3.09848,-1.07457 4.28334,0.12728 0.68048,0.69022 1.16588,2.06398 0.78141,2.21151 -0.18882,0.0725 -0.41488,-0.0665 -0.44757,-0.27512 -0.12759,-0.81428 -0.56118,-1.50738 -1.19406,-1.90874 -0.58079,-0.36833 -0.63948,-0.33937 -0.75543,0.37264 -0.055,0.33761 -0.17588,1.05199 -0.26869,1.5875 -0.0928,0.53552 -0.16895,0.99959 -0.16922,1.03126 -0.001,0.12813 0.56266,-0.11159 0.74034,-0.31482 0.25355,-0.28999 0.2669,-1.05577 0.0253,-1.45198 -0.20794,-0.34102 -0.15384,-0.87312 0.0888,-0.87312 0.20665,0 0.68395,0.48624 0.87734,0.89377 0.23728,0.50004 0.2483,0.91718 0.0544,2.059 -0.22985,1.35333 -0.22994,1.78431 -4.2e-4,2.07609 0.23266,0.29578 0.12295,0.43048 -0.45823,0.56261 -0.45572,0.10361 -3.82999,0.20065 -4.01614,0.1155 z m 1.3682,-3.87602 c -0.10147,-0.26442 0.001,-0.43395 0.2628,-0.43395 0.22449,0 0.25284,0.0285 0.25284,0.254 0,0.21428 -0.0365,0.25819 -0.23332,0.28083 -0.14889,0.0171 -0.25105,-0.0194 -0.28232,-0.10088 z"
       id="path1" /></g></svg>
