<?xml version="1.0" encoding="UTF-8" standalone="no"?>
<!-- Created with Inkscape (http://www.inkscape.org/) -->

<svg
   width="6.9386673mm"
   height="6.2384596mm"
   viewBox="0 0 6.9386673 6.2384596"
   version="1.1"
   id="svg1"
   xml:space="preserve"
   xmlns:inkscape="http://www.inkscape.org/namespaces/inkscape"
   xmlns:sodipodi="http://sodipodi.sourceforge.net/DTD/sodipodi-0.dtd"
   xmlns="http://www.w3.org/2000/svg"
   xmlns:svg="http://www.w3.org/2000/svg"><sodipodi:namedview
     id="namedview1"
     pagecolor="#505050"
     bordercolor="#ffffff"
     borderopacity="1"
     inkscape:showpageshadow="0"
     inkscape:pageopacity="0"
     inkscape:pagecheckerboard="1"
     inkscape:deskcolor="#505050"
     inkscape:document-units="mm" /><defs
     id="defs1" /><g
     inkscape:label="图层 1"
     inkscape:groupmode="layer"
     id="layer1"
     transform="translate(-101.14413,-144.92744)"><path
       d="m 103.52693,151.0871 c -0.90115,-0.17716 -2.3828,-1.19918 -2.3828,-1.64362 0,-0.3064 0.26849,-0.22463 0.7437,0.22649 0.53603,0.50885 0.99363,0.75829 1.75059,0.95424 1.32512,0.34303 2.89071,-0.0662 3.79161,-0.99115 0.25344,-0.2602 0.45473,-0.4004 0.53219,-0.37067 0.23639,0.0907 0.12317,0.36856 -0.32162,0.78922 -0.49569,0.46881 -1.30902,0.89055 -1.99213,1.033 -0.51516,0.10743 -1.5814,0.10868 -2.12154,0.002 z m 0.45179,-1.45409 c -0.0213,-0.0582 -0.0487,-0.63855 -0.0608,-1.28965 l -0.0221,-1.18382 -0.36624,-0.2019 c -0.36429,-0.20081 -0.36784,-0.20105 -0.66318,-0.0438 -0.16332,0.0869 -0.32236,0.19614 -0.35342,0.24271 -0.0311,0.0466 -0.0755,0.5142 -0.0988,1.03919 l -0.0423,0.95453 -0.1905,-0.13383 c -0.17932,-0.12597 -0.1905,-0.19274 -0.1905,-1.13774 v -1.00391 l 0.54292,-0.30362 c 0.29861,-0.16699 0.62246,-0.30362 0.71967,-0.30362 0.16244,0 0.17674,-0.0481 0.17674,-0.59476 0,-0.57056 0.009,-0.59843 0.23284,-0.68482 0.25589,-0.099 1.91795,-0.0692 2.02339,0.0362 0.0358,0.0358 0.0857,0.24386 0.11094,0.46232 0.0424,0.36756 0.0743,0.41233 0.42683,0.59987 0.20955,0.11146 0.52388,0.29361 0.6985,0.40477 l 0.3175,0.2021 v 1.04401 c 0,0.9039 -0.0208,1.06282 -0.15483,1.18414 -0.31649,0.28641 -0.35311,0.18934 -0.35439,-0.93938 l -0.001,-1.0795 -0.42215,-0.23283 c -0.23219,-0.12806 -0.44119,-0.23284 -0.46445,-0.23284 -0.0233,0 -0.0423,0.67818 -0.0423,1.50707 0,1.55715 -0.0317,1.71027 -0.35415,1.71027 -0.14023,0 -0.15255,-0.15171 -0.17356,-2.13784 l -0.0226,-2.13783 -0.64909,-0.0246 -0.64908,-0.0246 -0.0282,0.60567 c -0.027,0.5786 -0.0178,0.61307 0.20458,0.7712 l 0.23284,0.16553 v 1.43356 c 0,1.38451 -0.006,1.43357 -0.17199,1.43357 -0.0946,0 -0.18944,-0.0476 -0.21076,-0.10583 z m -1.04164,-1.13678 c 0.0219,-0.19124 0.0697,-0.23905 0.23905,-0.23905 0.16934,0 0.21167,0.0423 0.21167,0.21166 0,0.16934 -0.0478,0.21715 -0.23906,0.23906 -0.21746,0.0249 -0.23658,0.006 -0.21166,-0.21167 z m -0.0149,-0.83735 c 0,-0.18709 0.0324,-0.21356 0.23284,-0.1905 0.16671,0.0192 0.24051,0.0809 0.25988,0.2173 0.023,0.16205 -0.0117,0.1905 -0.23283,0.1905 -0.22256,0 -0.25989,-0.0312 -0.25989,-0.2173 z m 1.47223,-1.42777 c -0.0843,-0.21968 0.0339,-0.40125 0.24189,-0.37171 0.13994,0.0199 0.19088,0.0836 0.19088,0.23878 0,0.15517 -0.0509,0.2189 -0.19088,0.23877 -0.11449,0.0162 -0.21129,-0.0261 -0.24189,-0.10584 z"
       id="path1" /></g></svg>
