<?xml version="1.0" encoding="UTF-8" standalone="no"?>
<!-- Created with Inkscape (http://www.inkscape.org/) -->

<svg
   width="6.4772692mm"
   height="6.5226154mm"
   viewBox="0 0 6.4772692 6.5226154"
   version="1.1"
   id="svg1"
   xml:space="preserve"
   xmlns:inkscape="http://www.inkscape.org/namespaces/inkscape"
   xmlns:sodipodi="http://sodipodi.sourceforge.net/DTD/sodipodi-0.dtd"
   xmlns="http://www.w3.org/2000/svg"
   xmlns:svg="http://www.w3.org/2000/svg"><sodipodi:namedview
     id="namedview1"
     pagecolor="#505050"
     bordercolor="#ffffff"
     borderopacity="1"
     inkscape:showpageshadow="0"
     inkscape:pageopacity="0"
     inkscape:pagecheckerboard="1"
     inkscape:deskcolor="#505050"
     inkscape:document-units="mm" /><defs
     id="defs1" /><g
     inkscape:label="图层 1"
     inkscape:groupmode="layer"
     id="layer1"
     transform="translate(-101.28577,-145.16206)"><path
       d="m 104.00421,151.64124 c -2.18646,-0.36818 -3.37947,-2.79834 -2.33539,-4.75722 0.63157,-1.18496 2.09734,-1.91619 3.36073,-1.67659 0.41198,0.0781 0.77124,0.21698 0.77124,0.29808 0,0.13651 -0.50469,0.25824 -1.22766,0.2961 -0.93385,0.0489 -1.36477,0.20955 -1.89413,0.70612 -0.77736,0.72922 -1.00792,2.06341 -0.5291,3.06178 0.30003,0.62556 0.66478,0.98072 1.31004,1.27558 0.44116,0.20159 0.5711,0.22224 1.18533,0.18837 0.78966,-0.0435 1.36153,-0.28481 1.79644,-0.75789 0.55482,-0.6035 0.73209,-1.08874 0.72294,-1.97888 -0.007,-0.67953 0.11448,-1.07673 0.31732,-1.03765 0.32208,0.0621 0.38451,1.52944 0.0975,2.29204 -0.54908,1.45904 -2.06395,2.34466 -3.57528,2.09016 z m 1.12071,-1.70524 c -0.0471,-0.10844 -0.19052,-0.50081 -0.31871,-0.87195 l -0.23308,-0.67479 -0.86784,-0.29703 c -0.4773,-0.16336 -0.86783,-0.3414 -0.86783,-0.39563 0,-0.0791 3.12457,-1.52205 4.08819,-1.88797 0.34715,-0.13182 0.36285,0.0327 0.0623,0.65309 -0.14071,0.29049 -0.25584,0.54904 -0.25584,0.57457 0,0.0255 -0.0893,0.24399 -0.19851,0.48548 -0.10918,0.24149 -0.26393,0.59148 -0.3439,0.77774 -0.80872,1.88374 -0.89788,2.02077 -1.0648,1.63649 z m 0.70357,-2.19596 c 0.22478,-0.51555 0.3962,-0.94986 0.38093,-0.96512 -0.0511,-0.0511 -1.88151,0.77858 -1.91068,0.86609 -0.0158,0.0475 0.14118,0.12914 0.34891,0.18145 0.33102,0.0833 0.39037,0.1344 0.48021,0.41308 0.12284,0.38104 0.15674,0.44545 0.23343,0.44342 0.0322,-8.5e-4 0.24242,-0.42336 0.4672,-0.93892 z"
       id="path1" /></g></svg>
