<?xml version="1.0" encoding="UTF-8" standalone="no"?>
<!-- Created with Inkscape (http://www.inkscape.org/) -->

<svg
   width="6.4825015mm"
   height="5.3081388mm"
   viewBox="0 0 6.4825015 5.3081388"
   version="1.1"
   id="svg1"
   xml:space="preserve"
   xmlns:inkscape="http://www.inkscape.org/namespaces/inkscape"
   xmlns:sodipodi="http://sodipodi.sourceforge.net/DTD/sodipodi-0.dtd"
   xmlns="http://www.w3.org/2000/svg"
   xmlns:svg="http://www.w3.org/2000/svg"><sodipodi:namedview
     id="namedview1"
     pagecolor="#505050"
     bordercolor="#ffffff"
     borderopacity="1"
     inkscape:showpageshadow="0"
     inkscape:pageopacity="0"
     inkscape:pagecheckerboard="1"
     inkscape:deskcolor="#505050"
     inkscape:document-units="mm" /><defs
     id="defs1" /><g
     inkscape:label="图层 1"
     inkscape:groupmode="layer"
     id="layer1"
     transform="translate(-101.51963,-145.89016)"><path
       d="m 103.67702,151.05975 c -0.57343,-0.21054 -1.04208,-0.51437 -1.37072,-0.88867 -0.60464,-0.68866 -0.77881,-1.31701 -0.78016,-2.81469 -0.001,-1.61832 -0.27723,-1.47928 2.87766,-1.45083 l 2.58233,0.0233 0.0108,0.33866 c 0.006,0.18627 0.0155,0.38439 0.0212,0.44028 0.006,0.0627 0.19662,0.11132 0.49716,0.127 l 0.48683,0.0254 -0.002,1.016 c -0.002,0.92921 -0.0215,1.05606 -0.2305,1.4849 -0.30511,0.62612 -0.91591,1.21966 -1.58783,1.54296 -0.46957,0.22593 -0.66216,0.26839 -1.31233,0.28927 -0.58052,0.0187 -0.86452,-0.0131 -1.19245,-0.13356 z m 1.99479,-1.10983 c 0.36552,-0.18844 0.81755,-0.625 0.98756,-0.95376 0.13762,-0.26612 0.33033,-1.76725 0.25281,-1.96927 -0.0402,-0.10468 -0.37402,-0.12438 -2.10779,-0.12438 -1.48938,0 -2.0882,0.0281 -2.16166,0.1016 -0.22127,0.22127 -0.0425,1.57796 0.27092,2.05634 0.31856,0.48619 0.92651,0.93467 1.44782,1.06805 0.34768,0.089 0.95086,0.007 1.31034,-0.17858 z"
       id="path1" /></g></svg>
