<?xml version="1.0" encoding="UTF-8" standalone="no"?>
<!-- Created with Inkscape (http://www.inkscape.org/) -->

<svg
   width="7.2764454mm"
   height="7.2661424mm"
   viewBox="0 0 7.2764454 7.2661424"
   version="1.1"
   id="svg1"
   xml:space="preserve"
   xmlns:inkscape="http://www.inkscape.org/namespaces/inkscape"
   xmlns:sodipodi="http://sodipodi.sourceforge.net/DTD/sodipodi-0.dtd"
   xmlns="http://www.w3.org/2000/svg"
   xmlns:svg="http://www.w3.org/2000/svg"><sodipodi:namedview
     id="namedview1"
     pagecolor="#505050"
     bordercolor="#ffffff"
     borderopacity="1"
     inkscape:showpageshadow="0"
     inkscape:pageopacity="0"
     inkscape:pagecheckerboard="1"
     inkscape:deskcolor="#505050"
     inkscape:document-units="mm" /><defs
     id="defs1" /><g
     inkscape:label="图层 1"
     inkscape:groupmode="layer"
     id="layer1"
     transform="translate(-100.97724,-144.62625)"><path
       d="m 103.72646,151.74399 c -0.2794,-0.0784 -0.67521,-0.23167 -0.87957,-0.34068 -0.36711,-0.19583 -1.19476,-0.95354 -1.19476,-1.0938 0,-0.0887 0.59573,-0.35899 0.79118,-0.35899 0.0779,0 0.297,0.11256 0.48692,0.25013 0.93397,0.67657 2.51418,0.65886 3.42836,-0.0384 0.15267,-0.11645 0.34351,-0.21172 0.42411,-0.21172 0.17093,0 0.7961,0.26359 0.7961,0.33567 0,0.13974 -0.56372,0.70085 -0.98514,0.98057 -0.5191,0.34456 -1.45375,0.63467 -2.0148,0.6254 -0.18942,-0.003 -0.573,-0.0698 -0.8524,-0.14817 z m -2.32558,-1.873 c -0.11122,-0.20782 -0.04,-0.25268 0.50323,-0.31702 0.54574,-0.0646 0.56093,0.0747 0.0336,0.30792 -0.47357,0.20948 -0.42997,0.20874 -0.53682,0.009 z m 6.00858,0.0372 c -0.11641,-0.0665 -0.27834,-0.12235 -0.35983,-0.124 -0.0815,-0.002 -0.14817,-0.0655 -0.14817,-0.1418 0,-0.11688 0.0672,-0.13084 0.42535,-0.0884 0.54324,0.0643 0.61446,0.1092 0.50324,0.31702 -0.10361,0.19359 -0.14119,0.19692 -0.42059,0.0372 z m -3.65629,-0.14817 c -0.073,-0.0582 -0.16816,-0.17372 -0.21155,-0.25669 -0.0434,-0.083 -0.20876,-0.21633 -0.36748,-0.29634 -0.15872,-0.08 -0.36311,-0.27451 -0.45419,-0.43223 -0.15185,-0.26292 -0.15561,-0.3157 -0.0452,-0.635 0.16521,-0.47786 0.61871,-0.71233 1.09927,-0.56835 0.41569,0.12454 0.58746,0.37097 0.58746,0.84278 0,0.32047 -0.0441,0.41495 -0.31158,0.66719 -0.2486,0.23446 -0.29383,0.32206 -0.22376,0.43333 0.1988,0.3157 0.65935,0.15636 0.57056,-0.1974 -0.0526,-0.20976 0.12229,-0.32984 0.35208,-0.24166 0.0893,0.0343 0.11752,0.11401 0.0855,0.24166 -0.0888,0.35376 0.37176,0.5131 0.57055,0.1974 0.0701,-0.11127 0.0248,-0.19887 -0.22376,-0.43333 -0.26902,-0.25372 -0.31158,-0.34574 -0.31158,-0.67366 0,-0.99861 1.32361,-1.23544 1.67945,-0.3005 0.10526,0.27654 0.10107,0.34247 -0.0401,0.63154 -0.0958,0.19604 -0.27266,0.38016 -0.45059,0.46896 -0.16111,0.0804 -0.34305,0.24185 -0.4043,0.35876 -0.13641,0.26034 -0.47608,0.35701 -0.81068,0.23071 -0.16518,-0.0624 -0.30227,-0.0668 -0.40284,-0.0129 -0.21142,0.11315 -0.52903,0.10194 -0.6872,-0.0242 z m -0.12043,-1.04409 c 0.0773,-0.20149 0.0595,-0.56949 -0.0346,-0.71274 -0.0741,-0.11289 -0.0926,-0.11289 -0.16674,0 -0.14587,0.22219 -0.0844,0.84666 0.0834,0.84666 0.0366,0 0.0897,-0.0603 0.11794,-0.13392 z m 2.20133,0 c 0.0773,-0.20149 0.0595,-0.56949 -0.0346,-0.71274 -0.0741,-0.11289 -0.0926,-0.11289 -0.16674,0 -0.14586,0.22219 -0.0844,0.84666 0.0834,0.84666 0.0366,0 0.0897,-0.0603 0.11794,-0.13392 z m -4.62644,0.67745 c -0.15814,-0.15877 -0.039,-0.28283 0.32386,-0.33724 0.3999,-0.06 0.65934,0.051 0.49741,0.21271 -0.10847,0.10833 -0.74176,0.20436 -0.82127,0.12453 z m 6.24417,-0.009 c -0.52664,-0.13217 -0.31078,-0.41151 0.25269,-0.32701 0.3046,0.0457 0.3864,0.0907 0.36548,0.20107 -0.0277,0.14644 -0.30856,0.20365 -0.61817,0.12594 z m -6.42561,-0.66798 c -0.14753,-0.38444 0.055,-1.49244 0.38557,-2.10974 0.49408,-0.92256 1.311,-1.57356 2.30066,-1.83339 0.74661,-0.19602 1.05948,-0.19602 1.80609,0 0.98966,0.25983 1.80658,0.91083 2.30066,1.83339 0.3306,0.6173 0.53309,1.7253 0.38557,2.10974 -0.0379,0.0987 -0.16878,0.13392 -0.49707,0.13392 H 107.262 l -0.0571,-0.48683 c -0.0314,-0.26776 -0.11251,-0.56079 -0.18027,-0.65118 -0.0678,-0.0904 -0.1232,-0.28855 -0.1232,-0.44034 0,-0.43696 -0.17528,-1.13858 -0.29603,-1.18491 -0.0606,-0.0232 -0.29499,0.0469 -0.5209,0.15583 -0.36705,0.17705 -0.52497,0.19747 -1.48489,0.19208 -0.94695,-0.005 -1.12513,-0.0299 -1.50451,-0.2076 -0.31021,-0.14529 -0.45608,-0.17584 -0.52251,-0.10941 -0.0507,0.0507 -0.13656,0.39093 -0.19085,0.75609 -0.0543,0.36517 -0.1446,0.74566 -0.20071,0.84554 -0.0561,0.0999 -0.12712,0.39515 -0.1578,0.65616 l -0.0558,0.47457 h -0.44495 c -0.32763,0 -0.4585,-0.0353 -0.49634,-0.13392 z"
       id="path1" /></g></svg>
