<?xml version="1.0" encoding="UTF-8" standalone="no"?>
<!-- Created with Inkscape (http://www.inkscape.org/) -->

<svg
   width="6.9018717mm"
   height="5.1129956mm"
   viewBox="0 0 6.9018717 5.1129956"
   version="1.1"
   id="svg1"
   xml:space="preserve"
   xmlns:inkscape="http://www.inkscape.org/namespaces/inkscape"
   xmlns:sodipodi="http://sodipodi.sourceforge.net/DTD/sodipodi-0.dtd"
   xmlns="http://www.w3.org/2000/svg"
   xmlns:svg="http://www.w3.org/2000/svg"><sodipodi:namedview
     id="namedview1"
     pagecolor="#505050"
     bordercolor="#ffffff"
     borderopacity="1"
     inkscape:showpageshadow="0"
     inkscape:pageopacity="0"
     inkscape:pagecheckerboard="1"
     inkscape:deskcolor="#505050"
     inkscape:document-units="mm" /><defs
     id="defs1" /><g
     inkscape:label="图层 1"
     inkscape:groupmode="layer"
     id="layer1"
     transform="translate(-102.41139,-145.684)"><path
       d="m 102.46889,150.75769 c -0.0316,-0.0316 -0.0575,-0.24033 -0.0575,-0.46374 v -0.40621 l 3.0874,-0.0242 c 2.67318,-0.0209 3.10525,-0.042 3.22044,-0.15732 0.31739,-0.3176 -0.16451,-0.67581 -0.96208,-0.71515 -0.59604,-0.0294 -1.35986,-0.29711 -1.3758,-0.4822 -0.005,-0.0599 -0.003,-0.19386 0.006,-0.29777 l 0.0152,-0.18892 -1.97436,-0.0228 -1.97435,-0.0227 v -0.21166 -0.21167 l 1.73567,-0.0248 c 2.64344,-0.0378 3.00954,0.036 4.11531,0.82912 0.75929,0.54461 0.96469,0.79242 0.96469,1.16391 0,0.40304 -0.17343,0.61919 -0.63477,0.79114 -0.23654,0.0882 -0.3385,0.17609 -0.33866,0.29205 -2.3e-4,0.16107 -0.0842,0.16655 -2.88487,0.18816 -1.58654,0.0122 -2.91052,-0.004 -2.94216,-0.0353 z m -0.0242,-1.75783 c -0.0253,-0.0659 -0.0336,-0.22784 -0.0185,-0.35983 l 0.0275,-0.23998 1.05833,-0.0257 c 0.63037,-0.0153 1.19529,0.0139 1.397,0.0722 0.72237,0.209 0.91544,0.29883 1.03734,0.48266 l 0.12632,0.1905 h -1.79099 c -1.46638,0 -1.79932,-0.0217 -1.83697,-0.11985 z m 5.42764,-1.79322 c -0.23284,-0.0688 -0.63289,-0.1818 -0.889,-0.25117 -1.39945,-0.37909 -1.61445,-0.51112 -1.23605,-0.75905 0.14362,-0.0941 0.38071,-0.12403 0.86511,-0.1092 0.57265,0.0175 0.74357,-0.0131 1.20531,-0.21615 0.53553,-0.23549 0.94363,-0.25045 0.94363,-0.0346 0,0.0551 -0.11837,0.22231 -0.26304,0.37157 -0.25953,0.26777 -0.26065,0.27266 -0.0847,0.36685 0.12514,0.067 0.22724,0.0693 0.34213,0.008 0.49255,-0.2636 0.75941,0.0443 0.37317,0.4305 -0.3045,0.3045 -0.68324,0.3628 -1.2566,0.19345 z"
       id="path1" /></g></svg>
