<?xml version="1.0" encoding="UTF-8" standalone="no"?>
<!-- Created with Inkscape (http://www.inkscape.org/) -->

<svg
   width="6.6764736mm"
   height="6.9452963mm"
   viewBox="0 0 6.6764736 6.9452963"
   version="1.1"
   id="svg1"
   xml:space="preserve"
   xmlns:inkscape="http://www.inkscape.org/namespaces/inkscape"
   xmlns:sodipodi="http://sodipodi.sourceforge.net/DTD/sodipodi-0.dtd"
   xmlns="http://www.w3.org/2000/svg"
   xmlns:svg="http://www.w3.org/2000/svg"><sodipodi:namedview
     id="namedview1"
     pagecolor="#505050"
     bordercolor="#ffffff"
     borderopacity="1"
     inkscape:showpageshadow="0"
     inkscape:pageopacity="0"
     inkscape:pagecheckerboard="1"
     inkscape:deskcolor="#505050"
     inkscape:document-units="mm" /><defs
     id="defs1" /><g
     inkscape:label="图层 1"
     inkscape:groupmode="layer"
     id="layer1"
     transform="translate(-101.52577,-144.82818)"><path
       d="m 101.58158,151.7144 c -0.0311,-0.0311 -0.0562,-0.51682 -0.0558,-1.0795 6.7e-4,-1.06172 0.0973,-1.5374 0.49707,-2.44825 0.12085,-0.2753 0.17962,-0.58402 0.17962,-0.94354 0,-0.47282 0.0283,-0.56464 0.24563,-0.79732 l 0.24564,-0.26295 h 1.74788 c 1.74288,0 1.74847,5.9e-4 1.9557,0.20782 0.16686,0.16687 0.20781,0.29378 0.20781,0.64406 0,0.30995 0.0735,0.59024 0.25388,0.96819 0.49165,1.03017 0.60049,1.53923 0.57425,2.68592 l -0.0238,1.03968 -0.26466,0.0257 c -0.17734,0.0173 -0.37199,-0.0471 -0.58997,-0.19501 l -0.32531,-0.22077 -1.79503,0.0257 c -1.70793,0.0244 -1.80751,0.0349 -2.05243,0.21618 -0.24543,0.18163 -0.68012,0.25443 -0.80049,0.13406 z m 5.19289,-1.66564 c 0,-0.2533 -0.42264,-0.30992 -2.31348,-0.30992 -1.56649,0 -1.91374,0.0221 -2.07035,0.1318 -0.10349,0.0725 -0.18817,0.16774 -0.18817,0.21167 0,0.0481 0.91005,0.0799 2.286,0.0799 1.8538,0 2.286,-0.0214 2.286,-0.11341 z m -0.14832,-0.86716 c 0.0558,-0.0558 -0.11674,-0.52064 -0.36321,-0.97829 -0.10712,-0.1989 -0.16581,-0.47241 -0.16581,-0.7728 0,-0.29216 -0.0434,-0.50099 -0.11691,-0.56196 -0.0807,-0.067 -0.58575,-0.0899 -1.62983,-0.0739 l -1.51292,0.0232 -0.0265,0.27517 -0.0265,0.27516 h 1.44469 1.4447 v 0.254 0.254 l -1.3335,0.001 c -0.73342,7.1e-4 -1.37248,0.0293 -1.42012,0.0635 -0.12472,0.0896 -0.33658,0.44482 -0.44104,0.73954 -0.0495,0.1397 -0.11704,0.32067 -0.15007,0.40216 -0.0563,0.13881 0.0761,0.14817 2.0939,0.14817 1.18467,0 2.1761,-0.0222 2.20318,-0.0492 z m 0.37244,-2.75009 c -0.56218,-0.44221 -0.34265,-1.60334 0.30313,-1.60334 0.17303,0 0.17291,-0.003 0.0183,0.48843 -0.0677,0.21523 0.3036,0.72224 0.60004,0.81939 0.34267,0.11231 0.34064,0.10866 0.16718,0.30033 -0.21101,0.23317 -0.78939,0.23061 -1.08868,-0.005 z"
       id="path1" /></g></svg>
