<?xml version="1.0" encoding="UTF-8" standalone="no"?>
<!-- Created with Inkscape (http://www.inkscape.org/) -->

<svg
   width="7.6200128mm"
   height="4.9064674mm"
   viewBox="0 0 7.6200128 4.9064674"
   version="1.1"
   id="svg1"
   xml:space="preserve"
   xmlns:inkscape="http://www.inkscape.org/namespaces/inkscape"
   xmlns:sodipodi="http://sodipodi.sourceforge.net/DTD/sodipodi-0.dtd"
   xmlns="http://www.w3.org/2000/svg"
   xmlns:svg="http://www.w3.org/2000/svg"><sodipodi:namedview
     id="namedview1"
     pagecolor="#505050"
     bordercolor="#ffffff"
     borderopacity="1"
     inkscape:showpageshadow="0"
     inkscape:pageopacity="0"
     inkscape:pagecheckerboard="1"
     inkscape:deskcolor="#505050"
     inkscape:document-units="mm" /><defs
     id="defs1" /><g
     inkscape:label="图层 1"
     inkscape:groupmode="layer"
     id="layer1"
     transform="translate(-100.72075,-145.89079)"><path
       d="m 102.7913,150.56435 c 0.0313,-0.12806 0.15744,-0.37939 0.28037,-0.55852 0.21711,-0.31638 0.21878,-0.32822 0.0581,-0.4147 -0.0909,-0.049 -0.32792,-0.25617 -0.52661,-0.46046 -0.3574,-0.36746 -0.36478,-0.37038 -0.69083,-0.27269 -0.40245,0.12058 -0.6681,0.0618 -0.96535,-0.21371 -0.16289,-0.15096 -0.22623,-0.29336 -0.22623,-0.50858 0,-0.25822 0.10458,-0.41364 0.76823,-1.14168 0.73695,-0.80846 1.0984,-1.05036 1.34332,-0.89899 0.046,0.0284 0.30962,-0.007 0.58578,-0.0784 0.65528,-0.1698 1.84744,-0.16737 2.44028,0.005 0.27794,0.0808 0.5804,0.11337 0.75267,0.0811 0.41633,-0.0781 0.57946,0.0472 1.08837,0.83608 0.25023,0.38789 0.4969,0.73117 0.54816,0.76285 0.0513,0.0317 0.0932,0.18531 0.0932,0.34141 0,0.37408 -0.39311,0.72219 -0.81554,0.72219 -0.24896,0 -0.37788,0.0833 -0.83311,0.53858 -0.52695,0.52695 -0.53515,0.54202 -0.38002,0.6985 0.0872,0.088 0.2179,0.3028 0.29042,0.47742 l 0.13185,0.3175 h -0.29747 c -0.1636,0 -0.29747,-0.0368 -0.29747,-0.0817 0,-0.0449 -0.11678,-0.21473 -0.25952,-0.3773 -0.25589,-0.29145 -0.26683,-0.2949 -0.78316,-0.24689 -0.28801,0.0268 -0.65979,0.011 -0.82618,-0.0351 -0.39287,-0.10877 -0.68422,0.0381 -0.87564,0.44153 -0.11706,0.24668 -0.18779,0.29946 -0.40131,0.29946 -0.24011,0 -0.25502,-0.0171 -0.20235,-0.23283 z m 2.79783,-1.14211 c 0.4018,-0.14966 0.88449,-0.56599 1.04392,-0.90039 0.14286,-0.29964 0.15663,-0.30638 0.57414,-0.28116 0.6085,0.0368 0.70765,-0.11132 0.36353,-0.54293 -0.14452,-0.18127 -0.33689,-0.47431 -0.4275,-0.6512 -0.18447,-0.36014 -0.35645,-0.46412 -0.52976,-0.32029 -0.0892,0.074 -0.26629,0.0464 -0.75468,-0.11753 -0.77953,-0.26168 -1.55908,-0.28028 -2.36619,-0.0565 -0.31288,0.0868 -0.65495,0.14244 -0.76017,0.12374 -0.15153,-0.0269 -0.32937,0.11677 -0.85569,0.6915 -0.55006,0.60065 -0.64662,0.74691 -0.56113,0.84992 0.15315,0.18454 0.44234,0.15151 0.80031,-0.0914 0.17494,-0.11872 0.32797,-0.20445 0.34007,-0.1905 0.0121,0.0139 0.10198,0.18398 0.19973,0.37787 0.28454,0.56437 0.98887,1.04175 1.83275,1.24221 0.22298,0.053 0.78246,-0.0148 1.10067,-0.13334 z m -0.83252,-0.67588 c -0.31802,-0.0843 -0.98781,-0.63056 -0.98781,-0.80568 0,-0.19638 0.28681,-0.19187 0.50062,0.008 0.66166,0.61813 1.50514,0.63454 1.93835,0.0377 0.13623,-0.18768 0.34298,-0.19766 0.41122,-0.0198 0.0721,0.18785 -0.44681,0.69698 -0.81444,0.79911 -0.36032,0.1001 -0.6154,0.0954 -1.04794,-0.0192 z m 0.21869,-0.96858 c -0.17202,-0.0694 -0.12094,-0.2588 0.0847,-0.3139 0.5046,-0.13522 0.97659,-0.01 0.88283,0.23442 -0.0382,0.0996 -0.15943,0.13378 -0.45683,0.12887 -0.22266,-0.004 -0.45245,-0.0259 -0.51066,-0.0494 z m -1.07572,-0.35534 c -0.11086,-0.34929 0.21849,-0.64717 0.38062,-0.34424 0.0499,0.0932 0.0669,0.24414 0.0379,0.33551 -0.0669,0.21071 -0.35254,0.21667 -0.41854,0.009 z m 2.2731,-0.14512 c -0.0726,-0.28945 0.0696,-0.42921 0.25163,-0.2472 0.19601,0.19602 0.1791,0.46506 -0.0292,0.46506 -0.10957,0 -0.18668,-0.0755 -0.2224,-0.21786 z"
       id="path1" /></g></svg>
