<?xml version="1.0" encoding="UTF-8" standalone="no"?>
<!-- Created with Inkscape (http://www.inkscape.org/) -->

<svg
   width="6.5542431mm"
   height="6.3278279mm"
   viewBox="0 0 6.5542431 6.3278279"
   version="1.1"
   id="svg1"
   xml:space="preserve"
   xmlns:inkscape="http://www.inkscape.org/namespaces/inkscape"
   xmlns:sodipodi="http://sodipodi.sourceforge.net/DTD/sodipodi-0.dtd"
   xmlns="http://www.w3.org/2000/svg"
   xmlns:svg="http://www.w3.org/2000/svg"><sodipodi:namedview
     id="namedview1"
     pagecolor="#505050"
     bordercolor="#ffffff"
     borderopacity="1"
     inkscape:showpageshadow="0"
     inkscape:pageopacity="0"
     inkscape:pagecheckerboard="1"
     inkscape:deskcolor="#505050"
     inkscape:document-units="mm" /><defs
     id="defs1" /><g
     inkscape:label="图层 1"
     inkscape:groupmode="layer"
     id="layer1"
     transform="translate(-101.63073,-144.6522)"><path
       d="m 103.85495,150.91749 c -0.54628,-0.16774 -1.18609,-0.63779 -1.58242,-1.16259 -0.43085,-0.5705 -0.55915,-0.90184 -0.63409,-1.63756 -0.0472,-0.46384 0.12952,-1.42742 0.33146,-1.80691 0.0478,-0.0898 0.11049,-0.3505 0.13931,-0.57925 l 0.0524,-0.41593 0.40541,-0.0253 c 0.26807,-0.0167 0.51341,-0.10015 0.72422,-0.24624 0.46018,-0.31891 0.55475,-0.29434 0.48744,0.12662 -0.0732,0.45793 -0.21667,0.72184 -0.69091,1.2712 -0.72734,0.84254 -0.83324,1.06213 -0.83217,1.72558 7e-4,0.43641 0.0478,0.68196 0.17856,0.93133 0.7451,1.42077 2.72016,1.48567 3.56094,0.11701 0.23943,-0.38977 0.24637,-0.58204 0.0188,-0.52254 -0.19639,0.0514 -0.2053,-0.0117 -0.0749,-0.52955 0.16099,-0.63933 0.0399,-1.08405 -0.40835,-1.49932 -0.49416,-0.45782 -0.87142,-1.04388 -0.87142,-1.35369 0,-0.81148 1.26445,-0.89015 2.2151,-0.13781 0.3627,0.28704 0.86618,1.01577 1.05819,1.53159 0.1255,0.33715 0.31925,2.97934 0.22949,3.12963 -0.019,0.0319 -0.13281,-0.033 -0.25282,-0.14423 l -0.21819,-0.20221 -0.45741,0.49405 c -0.27473,0.29674 -0.6519,0.59104 -0.94439,0.7369 -0.4272,0.21303 -0.5909,0.24495 -1.33364,0.26003 -0.46567,0.009 -0.96097,-0.0179 -1.10067,-0.0608 z m 0.0212,-2.35763 c -0.12806,-0.13065 -0.23283,-0.29357 -0.23283,-0.36204 0,-0.1384 0.50978,-0.66572 0.64359,-0.66572 0.10934,0 0.62641,0.53124 0.62641,0.64359 0,0.13024 -0.54207,0.62672 -0.68137,0.62406 -0.0676,-10e-4 -0.22774,-0.10925 -0.3558,-0.23989 z"
       id="path1" /></g></svg>
