<?xml version="1.0" encoding="UTF-8" standalone="no"?>
<!-- Created with Inkscape (http://www.inkscape.org/) -->

<svg
   width="6.1806707mm"
   height="6.2652669mm"
   viewBox="0 0 6.1806707 6.2652669"
   version="1.1"
   id="svg1"
   xml:space="preserve"
   xmlns:inkscape="http://www.inkscape.org/namespaces/inkscape"
   xmlns:sodipodi="http://sodipodi.sourceforge.net/DTD/sodipodi-0.dtd"
   xmlns="http://www.w3.org/2000/svg"
   xmlns:svg="http://www.w3.org/2000/svg"><sodipodi:namedview
     id="namedview1"
     pagecolor="#505050"
     bordercolor="#ffffff"
     borderopacity="1"
     inkscape:showpageshadow="0"
     inkscape:pageopacity="0"
     inkscape:pagecheckerboard="1"
     inkscape:deskcolor="#505050"
     inkscape:document-units="mm" /><defs
     id="defs1" /><g
     inkscape:label="图层 1"
     inkscape:groupmode="layer"
     id="layer1"
     transform="translate(-100.93246,-144.95518)"><path
       d="m 101.67537,151.04329 c -0.20393,-0.10094 -0.44057,-0.31024 -0.55034,-0.48676 -0.18718,-0.30102 -0.19257,-0.37005 -0.19257,-2.46868 0,-2.10229 0.005,-2.16718 0.1937,-2.47049 0.1137,-0.18285 0.34327,-0.38391 0.55589,-0.48683 0.33467,-0.16201 0.51266,-0.17534 2.34075,-0.17534 1.82809,0 2.00608,0.0133 2.34074,0.17534 0.21262,0.10292 0.4422,0.30398 0.5559,0.48683 0.1886,0.30331 0.19369,0.3682 0.19369,2.47049 0,2.10229 -0.005,2.16718 -0.19369,2.47049 -0.1137,0.18285 -0.34328,0.38391 -0.5559,0.48684 -0.33477,0.16206 -0.51251,0.17533 -2.34631,0.17527 -1.84252,-6e-5 -2.00963,-0.0127 -2.34186,-0.17716 z m 0.45961,-1.87114 c 0.13025,-0.0556 0.29564,-0.14962 0.36753,-0.20899 0.10815,-0.0893 0.20302,-0.0713 0.5498,0.10422 0.2305,0.1167 0.49553,0.20122 0.58896,0.18782 0.27678,-0.0397 0.19514,-0.26114 -0.12647,-0.34309 -0.45519,-0.11599 -0.5084,-0.23159 -0.1066,-0.23159 0.31093,0 0.52999,-0.11283 0.42429,-0.21854 -0.0209,-0.0209 -0.23423,-0.0423 -0.47415,-0.0478 -0.56993,-0.0128 -0.56382,-0.14084 0.008,-0.17378 0.32729,-0.0188 0.4445,-0.0591 0.4445,-0.15259 0,-0.0915 -0.13027,-0.1409 -0.46567,-0.1767 l -0.46566,-0.0497 0.43544,-0.0138 c 0.28531,-0.009 0.45115,-0.0547 0.481,-0.13252 0.0686,-0.17867 -0.0145,-0.21863 -0.48605,-0.23375 l -0.43039,-0.0138 0.46493,-0.0497 c 0.54831,-0.0586 0.65649,-0.24026 0.2499,-0.41964 -0.1939,-0.0856 -0.28765,-0.0911 -0.35759,-0.0212 -0.12304,0.12304 -0.93012,0.12304 -1.05316,0 -0.0699,-0.0699 -0.16316,-0.0645 -0.3556,0.0207 -0.26168,0.11583 -0.35305,0.31687 -0.15498,0.34101 0.0582,0.007 0.14393,0.0217 0.1905,0.0326 0.0466,0.0108 0.21801,0.0303 0.381,0.0432 0.23723,0.0189 0.20346,0.0335 -0.16934,0.0733 -0.33539,0.0358 -0.46566,0.0852 -0.46566,0.1767 0,0.0918 0.12912,0.14006 0.46566,0.17411 l 0.46567,0.0471 -0.46567,0.0376 c -0.34079,0.0275 -0.46566,0.0716 -0.46566,0.16456 0,0.0935 0.1172,0.13375 0.4445,0.15259 0.52731,0.0304 0.60754,0.20532 0.0847,0.18462 -0.52773,-0.0209 -0.5715,-0.0111 -0.5715,0.12846 0,0.0943 0.10354,0.12839 0.40217,0.13241 l 0.40217,0.005 -0.254,0.1153 c -0.1397,0.0634 -0.32068,0.13598 -0.40217,0.16126 -0.20225,0.0627 -0.1886,0.30528 0.0172,0.30528 0.0909,0 0.27192,-0.0455 0.40217,-0.10104 z m 4.23995,0.0296 c 0.0811,-0.0515 0.10248,-0.34448 0.0847,-1.16287 l -0.0238,-1.09404 h -1.10067 -1.10067 l -0.0236,1.16417 -0.0236,1.16417 1.03956,-0.001 c 0.57175,-7.1e-4 1.08837,-0.0323 1.14802,-0.0701 z m -1.56897,-0.25144 -0.27516,-0.0265 v -0.84437 -0.84437 l 0.8255,0.0242 0.8255,0.0242 0.008,0.73595 c 0.004,0.40477 -0.0146,0.77133 -0.0423,0.81458 -0.0548,0.0856 -0.89988,0.15885 -1.34152,0.11627 z m 0.43331,-0.62963 c 0.087,-0.26776 0.18985,-0.48684 0.22861,-0.48684 0.0388,0 0.0819,0.21908 0.0959,0.48684 0.019,0.36501 0.0572,0.48683 0.15239,0.48683 0.0925,0 0.13414,-0.11515 0.15325,-0.42333 0.0144,-0.23284 0.0621,-0.45953 0.10583,-0.50377 0.11777,-0.11903 0.0968,-0.2954 -0.0528,-0.44504 -0.10458,-0.10458 -0.17126,-0.11262 -0.3175,-0.0383 -0.10182,0.0517 -0.35657,0.10451 -0.56612,0.11726 -0.27192,0.0165 -0.381,0.0595 -0.381,0.15018 0,0.0699 0.0857,0.13917 0.1905,0.15405 0.22516,0.032 0.23018,0.069 0.0635,0.46789 -0.1698,0.40637 -0.163,0.58246 0.0212,0.54843 0.0964,-0.0178 0.20348,-0.19763 0.30631,-0.5142 z"
       id="path1" /></g></svg>
