<?xml version="1.0" encoding="UTF-8" standalone="no"?>
<!-- Created with Inkscape (http://www.inkscape.org/) -->

<svg
   width="5.2109385mm"
   height="6.2148662mm"
   viewBox="0 0 5.2109385 6.2148662"
   version="1.1"
   id="svg1"
   xml:space="preserve"
   xmlns:inkscape="http://www.inkscape.org/namespaces/inkscape"
   xmlns:sodipodi="http://sodipodi.sourceforge.net/DTD/sodipodi-0.dtd"
   xmlns="http://www.w3.org/2000/svg"
   xmlns:svg="http://www.w3.org/2000/svg"><sodipodi:namedview
     id="namedview1"
     pagecolor="#505050"
     bordercolor="#ffffff"
     borderopacity="1"
     inkscape:showpageshadow="0"
     inkscape:pageopacity="0"
     inkscape:pagecheckerboard="1"
     inkscape:deskcolor="#505050"
     inkscape:document-units="mm" /><defs
     id="defs1" /><g
     inkscape:label="图层 1"
     inkscape:groupmode="layer"
     id="layer1"
     transform="translate(-101.94443,-145.33076)"><path
       d="m 103.81113,151.47974 c -0.40424,-0.0988 -0.92124,-0.39782 -1.047,-0.60544 -0.0636,-0.10503 -0.14723,-0.59398 -0.18581,-1.08654 -0.042,-0.53589 -0.19579,-1.39294 -0.38298,-2.13392 -0.34999,-1.38544 -0.34393,-1.53305 0.082,-1.99785 0.24994,-0.27273 0.32909,-0.30763 0.71065,-0.31336 0.52398,-0.008 0.82874,0.18768 1.0909,0.69997 l 0.18312,0.35785 0.0536,-0.24415 c 0.0741,-0.33734 0.53334,-0.75499 0.89247,-0.81162 0.42524,-0.0671 0.85008,0.1121 1.08411,0.45717 0.22432,0.33076 0.22084,0.76127 -0.0127,1.56633 l -0.12279,0.42333 0.36843,0.381 c 0.39571,0.40921 0.63024,0.87086 0.63024,1.24055 0,0.64833 -0.69589,1.39958 -1.56633,1.69096 -0.23283,0.0779 -0.55612,0.21223 -0.71841,0.29843 -0.30474,0.16186 -0.61976,0.18484 -1.05959,0.0773 z m 1.42676,-0.75108 c 0.36561,-0.1427 0.73588,-0.32382 0.82281,-0.40249 0.14178,-0.12831 0.14526,-0.16131 0.0337,-0.32052 -0.15144,-0.21622 -0.16156,-0.82909 -0.0201,-1.22018 0.0922,-0.25487 0.0864,-0.29801 -0.05,-0.37434 -0.31929,-0.17869 -0.38323,-0.54013 -0.21135,-1.19481 0.0864,-0.32928 0.15718,-0.70604 0.15718,-0.83725 0,-0.29693 -0.2691,-0.57722 -0.55418,-0.57722 -0.38521,0 -0.58917,0.31365 -0.74074,1.13911 -0.12796,0.69688 -0.22371,0.89029 -0.44075,0.89029 -0.22008,0 -0.32124,-0.19849 -0.43488,-0.85338 -0.0677,-0.3902 -0.17902,-0.79477 -0.24735,-0.89906 -0.25234,-0.38511 -0.87248,-0.32692 -1.06705,0.10012 -0.0749,0.16437 -0.0651,0.32629 0.045,0.74208 0.30418,1.14873 0.55952,2.50276 0.56036,2.97157 10e-4,0.61871 0.0948,0.79295 0.53689,0.99833 0.44034,0.20458 0.75067,0.17331 1.61043,-0.16225 z m -0.79176,-0.24354 c -0.22319,-0.0856 -0.42333,-0.30216 -0.42333,-0.45807 0,-0.23097 0.12789,-0.2605 0.35488,-0.082 0.113,0.0889 0.33655,0.17409 0.49678,0.18934 0.22565,0.0215 0.29134,0.0659 0.29134,0.19707 0,0.13394 -0.062,0.17278 -0.29634,0.18583 -0.16298,0.009 -0.35348,-0.005 -0.42333,-0.0322 z m -0.59744,-1.22086 c -0.0823,-0.15382 -0.0473,-0.75308 0.044,-0.75308 0.0174,0 0.0869,-0.0212 0.15458,-0.0472 0.30298,-0.11627 0.55295,0.62122 0.29724,0.87693 -0.15671,0.15671 -0.39027,0.12061 -0.49584,-0.0767 z"
       id="path1" /></g></svg>
