<?xml version="1.0" encoding="UTF-8" standalone="no"?>
<!-- Created with Inkscape (http://www.inkscape.org/) -->

<svg
   width="7.1062522mm"
   height="5.9266572mm"
   viewBox="0 0 7.1062522 5.9266572"
   version="1.1"
   id="svg1"
   xml:space="preserve"
   xmlns:inkscape="http://www.inkscape.org/namespaces/inkscape"
   xmlns:sodipodi="http://sodipodi.sourceforge.net/DTD/sodipodi-0.dtd"
   xmlns="http://www.w3.org/2000/svg"
   xmlns:svg="http://www.w3.org/2000/svg"><sodipodi:namedview
     id="namedview1"
     pagecolor="#505050"
     bordercolor="#ffffff"
     borderopacity="1"
     inkscape:showpageshadow="0"
     inkscape:pageopacity="0"
     inkscape:pagecheckerboard="1"
     inkscape:deskcolor="#505050"
     inkscape:document-units="mm" /><defs
     id="defs1" /><g
     inkscape:label="图层 1"
     inkscape:groupmode="layer"
     id="layer1"
     transform="translate(-101.57321,-145.80186)"><path
       d="m 103.71616,150.90301 c -0.6471,-0.45402 -1.34274,-0.93865 -1.54587,-1.07695 -0.59915,-0.40792 -0.6195,-0.47031 -0.58815,-1.80305 0.0213,-0.9066 0.0567,-1.20346 0.15465,-1.29801 0.13901,-0.13418 0.94855,-0.67231 1.24327,-0.82644 0.3218,-0.16829 0.52128,-0.10868 1.23469,0.36895 0.38383,0.25698 0.79107,0.46567 0.90871,0.46567 0.11764,0 0.52488,-0.20869 0.90871,-0.46567 0.38255,-0.25611 0.77762,-0.46566 0.87794,-0.46566 0.24973,0 1.0359,0.4614 1.43813,0.84403 l 0.33122,0.31508 v 1.15139 c 0,1.07502 -0.0126,1.16539 -0.1905,1.36255 -0.36537,0.405 -3.12866,2.25361 -3.36868,2.25361 -0.15099,0 -0.62355,-0.27782 -1.40412,-0.8255 z m 2.8043,-0.33277 c 0,-0.0537 0.0286,-0.12619 0.0635,-0.16112 0.0349,-0.0349 0.0635,-0.1651 0.0635,-0.28927 0,-0.12418 -0.0286,-0.25436 -0.0635,-0.28928 -0.0349,-0.0349 -0.0635,-0.10795 -0.0635,-0.16228 0,-0.0543 -0.0911,-0.11166 -0.20242,-0.12739 -0.15596,-0.0221 -0.19057,0.002 -0.15082,0.10583 0.0284,0.0739 0.0173,0.13445 -0.0247,0.13445 -0.15746,0 -0.18308,0.35677 -0.0463,0.64496 0.0921,0.19403 0.18959,0.28692 0.28245,0.26903 0.078,-0.015 0.14183,-0.0712 0.14183,-0.12493 z m -2.39641,-0.2076 c 0.0919,-0.26354 0.0931,-0.26401 0.19453,-0.0745 0.0978,0.18269 0.10427,0.17724 0.15397,-0.12902 0.0889,-0.5475 -0.15428,-0.64735 -0.41182,-0.16914 -0.10281,0.19091 -0.24064,0.31164 -0.39433,0.3454 -0.38261,0.084 -0.27142,0.2706 0.1703,0.28575 0.14506,0.005 0.21854,-0.0611 0.28735,-0.25852 z m 0.57478,-1.57629 c 7.7e-4,-0.11232 0.0534,-0.1905 0.1283,-0.1905 0.0841,0 0.127,0.0841 0.127,0.249 0,0.36987 0.14673,0.39231 0.29199,0.0446 0.13717,-0.32828 0.30067,-0.32682 0.30067,0.003 0,0.32546 0.15413,0.32728 0.28946,0.003 0.0689,-0.16486 0.16528,-0.29974 0.21422,-0.29974 0.1389,0 0.10443,-0.23695 -0.0468,-0.32157 -0.1171,-0.0655 -0.12001,-0.1014 -0.0212,-0.26079 0.0865,-0.13955 0.0902,-0.20003 0.0149,-0.24696 -0.0549,-0.0342 -0.093,-0.13634 -0.0847,-0.22701 0.0239,-0.26081 -0.23668,-0.24955 -0.36703,0.0159 -0.10888,0.22171 -0.11786,0.22494 -0.14704,0.0528 -0.0314,-0.18501 -0.23197,-0.31902 -0.35954,-0.24018 -0.038,0.0235 -0.0492,0.11885 -0.0248,0.21194 0.0617,0.23603 -0.11315,0.21162 -0.27715,-0.0387 l -0.13624,-0.20792 -0.19768,0.22908 c -0.1852,0.21462 -0.18882,0.23894 -0.0573,0.38491 0.13083,0.14525 0.13038,0.16309 -0.007,0.26333 -0.18266,0.13356 -0.18414,0.20386 -0.008,0.3981 0.10931,0.12078 0.11728,0.17903 0.0376,0.275 -0.0805,0.097 -0.0701,0.13905 0.0508,0.20675 0.17753,0.0994 0.27754,-0.009 0.27954,-0.30416 z m 0.0981,-0.60455 c -0.0801,-0.0507 -0.0865,-0.0903 -0.0212,-0.1307 0.10739,-0.0664 0.26303,0.008 0.26303,0.12641 0,0.0984 -0.0907,0.10005 -0.24187,0.004 z m 0.58054,-0.009 c 0,-0.0466 0.0381,-0.0847 0.0847,-0.0847 0.0466,0 0.0847,0.0381 0.0847,0.0847 0,0.0466 -0.0381,0.0847 -0.0847,0.0847 -0.0466,0 -0.0847,-0.0381 -0.0847,-0.0847 z m -2.47179,0.41162 c 0.0276,-0.23788 -0.29105,-0.66562 -0.49579,-0.66562 -0.1979,0 -0.50375,0.36024 -0.50375,0.59332 0,0.31333 0.061,0.3491 0.54708,0.32065 0.39049,-0.0229 0.42877,-0.0439 0.45246,-0.24835 z m 5.07758,0.0951 c 0.0792,-0.12682 0.16067,-0.15698 0.31761,-0.11759 0.18535,0.0465 0.20731,0.0286 0.18019,-0.14693 -0.0218,-0.14079 -0.0865,-0.1999 -0.21886,-0.1999 -0.10338,0 -0.23882,-0.0692 -0.30098,-0.15382 -0.10863,-0.14785 -0.12665,-0.14686 -0.46473,0.0256 -0.42403,0.21632 -0.42441,0.40375 -10e-4,0.61069 0.37489,0.18333 0.36195,0.18381 0.48802,-0.0181 z m -0.64396,-1.49355 c 0.20244,-0.1832 0.19698,-0.47283 -0.0125,-0.6624 -0.092,-0.0833 -0.14694,-0.18445 -0.122,-0.22479 0.0249,-0.0403 0.005,-0.0734 -0.0443,-0.0734 -0.0493,0 -0.0908,0.0476 -0.0922,0.10583 -10e-4,0.0587 -0.041,0.0399 -0.0889,-0.0423 -0.0923,-0.15844 -0.33189,-0.20429 -0.33189,-0.0635 0,0.0466 0.0375,0.0847 0.0834,0.0847 0.0459,0 0.0109,0.11927 -0.0778,0.26505 -0.17042,0.28023 -0.15128,0.4711 0.0647,0.64511 0.18171,0.14641 0.4374,0.1323 0.62148,-0.0343 z m -3.59893,-0.0772 c 0.028,-0.073 0.008,-0.17585 -0.045,-0.2286 -0.0528,-0.0527 -0.0959,-0.21904 -0.0959,-0.36954 0,-0.24762 -0.022,-0.27128 -0.23126,-0.24896 -0.18464,0.0197 -0.24533,0.0825 -0.30107,0.31172 -0.0384,0.15789 -0.0912,0.37279 -0.11728,0.47757 -0.0441,0.17704 -0.0197,0.1905 0.34606,0.1905 0.2792,0 0.40832,-0.0386 0.44445,-0.13269 z"
       id="path1" /></g></svg>
