<?xml version="1.0" encoding="UTF-8" standalone="no"?>
<!-- Created with Inkscape (http://www.inkscape.org/) -->

<svg
   width="5.9266648mm"
   height="6.5769567mm"
   viewBox="0 0 5.9266648 6.5769567"
   version="1.1"
   id="svg1"
   xml:space="preserve"
   xmlns:inkscape="http://www.inkscape.org/namespaces/inkscape"
   xmlns:sodipodi="http://sodipodi.sourceforge.net/DTD/sodipodi-0.dtd"
   xmlns="http://www.w3.org/2000/svg"
   xmlns:svg="http://www.w3.org/2000/svg"><sodipodi:namedview
     id="namedview1"
     pagecolor="#505050"
     bordercolor="#ffffff"
     borderopacity="1"
     inkscape:showpageshadow="0"
     inkscape:pageopacity="0"
     inkscape:pagecheckerboard="1"
     inkscape:deskcolor="#505050"
     inkscape:document-units="mm" /><defs
     id="defs1" /><g
     inkscape:label="图层 1"
     inkscape:groupmode="layer"
     id="layer1"
     transform="translate(-101.56747,-145.15882)"><path
       d="m 102.00012,151.61036 c -0.40422,-0.22404 -0.42645,-0.36576 -0.42965,-2.73935 l -0.003,-2.2225 h 2.96333 2.96333 v 2.19735 c 0,2.37142 -0.0284,2.55142 -0.43561,2.762 -0.32705,0.16913 -4.75383,0.17131 -5.0584,0.002 z m 4.96908,-0.40678 c 0.0687,-0.0687 0.1015,-0.45964 0.10128,-1.2065 -3.7e-4,-1.30607 -0.10349,-1.57807 -0.66169,-1.74531 -0.61597,-0.18455 -1.10926,0.24855 -1.18027,1.03627 -0.0518,0.57484 -0.26736,0.83181 -0.69772,0.83181 -0.43998,0 -0.64316,-0.25382 -0.7038,-0.87921 -0.0791,-0.81572 -0.62329,-1.22343 -1.27147,-0.9526 -0.476,0.19889 -0.56473,0.47007 -0.56473,1.726 0,0.73329 0.0331,1.12106 0.1016,1.18954 0.14489,0.14489 4.73191,0.14489 4.8768,0 z m -4.13764,-1.51811 c -0.13188,-0.24641 -0.0299,-0.58162 0.17685,-0.58162 0.13846,0 0.16772,0.0575 0.16772,0.3296 0,0.38331 -0.19714,0.5275 -0.34457,0.25202 z m 3.15974,0.12125 c -0.0599,-0.0225 -0.10583,-0.18357 -0.10583,-0.37126 0,-0.26892 0.0303,-0.33161 0.16027,-0.33161 0.15422,0 0.26306,0.1538 0.26306,0.37174 0,0.16466 -0.20134,0.37464 -0.3175,0.33113 z m -1.24866,0.005 c 0.11271,-0.0433 0.11835,-0.0688 0.0281,-0.127 -0.0853,-0.055 -0.0663,-0.0857 0.0776,-0.12509 0.28118,-0.0771 0.22532,-0.26049 -0.13757,-0.45176 -0.17127,-0.0903 -0.23323,-0.082 -0.418,0.056 -0.29191,0.21794 -0.31513,0.33015 -0.0829,0.40057 0.1316,0.0399 0.15686,0.0739 0.0786,0.1057 -0.0974,0.0396 -0.0974,0.0583 0,0.12 0.13884,0.088 0.26559,0.094 0.45425,0.0216 z m 2.08111,-2.65522 -0.21862,-0.21166 -0.21697,0.2082 -0.21697,0.20821 0.21475,0.18471 0.21474,0.18472 0.22084,-0.18126 0.22084,-0.18125 z m -3.90162,-0.7662 c 0,-0.18167 0.25417,-0.57107 0.53194,-0.81495 0.41765,-0.3667 0.97017,-0.50269 1.4718,-0.36224 0.43613,0.12211 0.90183,0.48543 1.09092,0.85109 0.18093,0.34987 0.15399,0.41497 -0.1717,0.41497 -0.22216,0 -0.32911,-0.053 -0.43591,-0.216 -0.39628,-0.60479 -1.36048,-0.60479 -1.75676,0 -0.1068,0.163 -0.21375,0.216 -0.4359,0.216 -0.16191,0 -0.29439,-0.04 -0.29439,-0.0889 z"
       id="path1" /></g></svg>
