<?xml version="1.0" encoding="UTF-8" standalone="no"?>
<!-- Created with Inkscape (http://www.inkscape.org/) -->

<svg
   width="5.9634199mm"
   height="6.4234776mm"
   viewBox="0 0 5.9634199 6.4234776"
   version="1.1"
   id="svg1"
   xml:space="preserve"
   xmlns:inkscape="http://www.inkscape.org/namespaces/inkscape"
   xmlns:sodipodi="http://sodipodi.sourceforge.net/DTD/sodipodi-0.dtd"
   xmlns="http://www.w3.org/2000/svg"
   xmlns:svg="http://www.w3.org/2000/svg"><sodipodi:namedview
     id="namedview1"
     pagecolor="#505050"
     bordercolor="#ffffff"
     borderopacity="1"
     inkscape:showpageshadow="0"
     inkscape:pageopacity="0"
     inkscape:pagecheckerboard="1"
     inkscape:deskcolor="#505050"
     inkscape:document-units="mm" /><defs
     id="defs1" /><g
     inkscape:label="图层 1"
     inkscape:groupmode="layer"
     id="layer1"
     transform="translate(-101.51845,-145.04713)"><path
       d="m 102.7528,151.35576 c -0.37713,-0.16646 -0.56727,-0.42292 -0.56727,-0.76511 0,-0.23554 -0.0338,-0.30147 -0.15472,-0.30147 -0.0851,0 -0.23369,-0.10039 -0.3302,-0.22309 -0.332,-0.42206 -0.18565,-1.80402 0.24062,-2.27217 0.086,-0.0945 0.18333,-0.36224 0.21626,-0.59508 0.0878,-0.62075 0.51578,-1.36834 0.97366,-1.70078 1.45053,-1.05315 3.46558,-0.16129 3.69863,1.63701 0.0287,0.22134 0.10272,0.46098 0.16452,0.53253 0.27146,0.3143 0.48234,0.97543 0.4874,1.52806 0.006,0.62554 -0.14701,0.96099 -0.49838,1.09458 -0.12929,0.0492 -0.18823,0.1235 -0.15878,0.20025 0.0812,0.21151 -0.20974,0.63697 -0.55645,0.81386 -0.40999,0.20915 -1.07076,0.22283 -1.47408,0.0305 -0.27212,-0.12976 -0.31371,-0.12976 -0.58717,0 -0.35157,0.16683 -1.09911,0.17758 -1.45404,0.0209 z m 1.35466,-0.64325 c 0.40516,-0.20656 0.61515,-0.21354 0.82094,-0.0273 0.19794,0.17914 0.88993,0.19887 1.19801,0.0342 0.29255,-0.15641 0.29268,-0.44911 2.9e-4,-0.67911 l -0.22443,-0.17653 0.15783,-0.29307 0.15782,-0.29306 0.18734,0.17599 c 0.10303,0.0968 0.22403,0.15331 0.26889,0.12559 0.26884,-0.16616 0.14519,-1.23746 -0.18933,-1.64035 -0.10991,-0.13237 -0.21572,-0.40531 -0.2464,-0.63561 -0.10869,-0.81572 -0.60042,-1.43321 -1.30422,-1.63781 -0.40015,-0.11633 -0.49132,-0.11633 -0.89147,0 -0.68572,0.19934 -1.17601,0.79775 -1.30114,1.58805 -0.0321,0.20279 -0.14465,0.50207 -0.25011,0.66505 -0.25233,0.39 -0.40033,0.97444 -0.33497,1.32284 0.0695,0.3704 0.18627,0.42726 0.42224,0.20559 l 0.19441,-0.18265 0.18559,0.31456 0.1856,0.31455 -0.22649,0.18059 c -0.29491,0.23516 -0.24814,0.46974 0.13152,0.65955 0.3847,0.19234 0.6499,0.18707 1.05808,-0.021 z"
       id="path1" /></g></svg>
