<?xml version="1.0" encoding="UTF-8" standalone="no"?>
<!-- Created with Inkscape (http://www.inkscape.org/) -->

<svg
   width="5.9016824mm"
   height="7.0993085mm"
   viewBox="0 0 5.9016824 7.0993085"
   version="1.1"
   id="svg1"
   xml:space="preserve"
   xmlns:inkscape="http://www.inkscape.org/namespaces/inkscape"
   xmlns:sodipodi="http://sodipodi.sourceforge.net/DTD/sodipodi-0.dtd"
   xmlns="http://www.w3.org/2000/svg"
   xmlns:svg="http://www.w3.org/2000/svg"><sodipodi:namedview
     id="namedview1"
     pagecolor="#505050"
     bordercolor="#ffffff"
     borderopacity="1"
     inkscape:showpageshadow="0"
     inkscape:pageopacity="0"
     inkscape:pagecheckerboard="1"
     inkscape:deskcolor="#505050"
     inkscape:document-units="mm" /><defs
     id="defs1" /><g
     inkscape:label="图层 1"
     inkscape:groupmode="layer"
     id="layer1"
     transform="translate(-101.5371,-144.74351)"><path
       d="m 103.45845,151.68897 c -1.19871,-0.45645 -2.01117,-1.69235 -1.91339,-2.9106 0.0739,-0.92097 0.36054,-1.37851 1.74523,-2.78603 0.67572,-0.68686 1.27224,-1.24883 1.32562,-1.24883 0.11442,0 0.46522,0.35613 0.46522,0.4723 0,0.0442 -0.51096,0.59029 -1.13546,1.21351 -1.32652,1.32379 -1.58898,1.74321 -1.5852,2.53322 0.003,0.63008 0.15241,0.99625 0.60822,1.49075 0.79467,0.86211 2.16834,0.84852 3.04314,-0.0301 0.42981,-0.43169 0.5933,-0.84893 0.5933,-1.51415 0,-0.46055 -0.11473,-0.86352 -0.24585,-0.86352 -0.0444,0 -0.39948,0.31432 -0.78909,0.6985 -0.3896,0.38417 -0.81234,0.79173 -0.93943,0.90568 l -0.23107,0.20719 -0.54828,-0.54341 c -0.30155,-0.29887 -0.54828,-0.58549 -0.54828,-0.63693 0,-0.11386 0.35896,-0.4617 0.47645,-0.4617 0.0465,0 0.19404,0.1143 0.32789,0.254 0.13384,0.1397 0.27633,0.254 0.31666,0.254 0.0403,0 0.48669,-0.4191 0.99193,-0.93133 0.50524,-0.51224 0.97654,-0.93134 1.04732,-0.93134 0.19403,0 0.69928,0.87097 0.86901,1.49804 0.12696,0.46902 0.135,0.62629 0.0522,1.02109 -0.24515,1.16874 -0.93161,1.98114 -1.9837,2.34762 -0.48548,0.16911 -1.44806,0.1503 -1.94243,-0.0379 z"
       id="path1" /></g></svg>
