<?xml version="1.0" encoding="UTF-8" standalone="no"?>
<!-- Created with Inkscape (http://www.inkscape.org/) -->

<svg
   width="4.4026704mm"
   height="6.6033602mm"
   viewBox="0 0 4.4026704 6.6033602"
   version="1.1"
   id="svg1"
   xml:space="preserve"
   xmlns:inkscape="http://www.inkscape.org/namespaces/inkscape"
   xmlns:sodipodi="http://sodipodi.sourceforge.net/DTD/sodipodi-0.dtd"
   xmlns="http://www.w3.org/2000/svg"
   xmlns:svg="http://www.w3.org/2000/svg"><sodipodi:namedview
     id="namedview1"
     pagecolor="#505050"
     bordercolor="#ffffff"
     borderopacity="1"
     inkscape:showpageshadow="0"
     inkscape:pageopacity="0"
     inkscape:pagecheckerboard="1"
     inkscape:deskcolor="#505050"
     inkscape:document-units="mm" /><defs
     id="defs1" /><g
     inkscape:label="图层 1"
     inkscape:groupmode="layer"
     id="layer1"
     transform="translate(-103.8906,-144.44757)"><path
       d="m 104.16578,150.88316 -0.27517,-0.16777 v -2.96458 c 0,-2.85169 0.006,-2.97102 0.16933,-3.13391 0.15907,-0.15907 0.28222,-0.16933 2.032,-0.16933 1.74978,0 1.87293,0.0103 2.032,0.16933 0.16289,0.16289 0.16934,0.28222 0.16934,3.13391 v 2.96458 l -0.27517,0.16777 c -0.24948,0.15211 -0.42931,0.16777 -1.92617,0.16777 -1.49686,0 -1.67669,-0.0157 -1.92616,-0.16777 z m 3.78883,-3.00659 v -2.32834 h -1.86267 -1.86266 v 2.32834 2.32833 h 1.86266 1.86267 z m -1.94733,1.02305 c 0,-0.30313 -3.3e-4,-0.30339 -0.381,-0.30339 -0.3208,0 -0.381,-0.026 -0.381,-0.16446 0,-0.13296 0.0689,-0.16945 0.35983,-0.1905 0.19791,-0.0143 0.35983,-0.0641 0.35983,-0.1107 0,-0.0466 -0.16192,-0.0964 -0.35983,-0.1107 -0.2909,-0.0211 -0.35983,-0.0575 -0.35983,-0.1905 0,-0.10803 0.0581,-0.16447 0.16933,-0.16447 0.20261,0 0.2012,0.0123 0.0423,-0.36794 -0.15607,-0.37354 -0.15647,-0.39406 -0.008,-0.39406 0.0657,0 0.20244,0.17145 0.30389,0.381 0.13608,0.2811 0.23353,0.381 0.37168,0.381 0.13805,0 0.23587,-0.1001 0.37234,-0.381 0.10181,-0.20955 0.24275,-0.381 0.31321,-0.381 0.15966,0 0.16076,-0.0124 -0.0345,0.38705 l -0.16255,0.33262 0.18327,0.046 c 0.10081,0.0253 0.1958,0.11105 0.2111,0.1905 0.023,0.11916 -0.04,0.14446 -0.35939,0.14446 -0.28774,0 -0.3872,0.0326 -0.3872,0.127 0,0.0944 0.0995,0.127 0.3872,0.127 0.32304,0 0.38255,0.0246 0.35911,0.14816 -0.0204,0.10766 -0.12491,0.15522 -0.38219,0.17396 -0.32782,0.0239 -0.35603,0.0454 -0.38027,0.28981 -0.0382,0.38478 -0.23785,0.41006 -0.23785,0.0301 z m 0.508,-3.90172 c 0,-0.096 -0.10349,-0.127 -0.42334,-0.127 -0.31985,0 -0.42333,0.031 -0.42333,0.127 0,0.096 0.10348,0.127 0.42333,0.127 0.31985,0 0.42334,-0.031 0.42334,-0.127 z"
       id="path1" /></g></svg>
