<?xml version="1.0" encoding="UTF-8" standalone="no"?>
<!-- Created with Inkscape (http://www.inkscape.org/) -->

<svg
   width="6.0957036mm"
   height="6.1984754mm"
   viewBox="0 0 6.0957036 6.1984754"
   version="1.1"
   id="svg1"
   xml:space="preserve"
   xmlns:inkscape="http://www.inkscape.org/namespaces/inkscape"
   xmlns:sodipodi="http://sodipodi.sourceforge.net/DTD/sodipodi-0.dtd"
   xmlns="http://www.w3.org/2000/svg"
   xmlns:svg="http://www.w3.org/2000/svg"><sodipodi:namedview
     id="namedview1"
     pagecolor="#505050"
     bordercolor="#ffffff"
     borderopacity="1"
     inkscape:showpageshadow="0"
     inkscape:pageopacity="0"
     inkscape:pagecheckerboard="1"
     inkscape:deskcolor="#505050"
     inkscape:document-units="mm" /><defs
     id="defs1" /><g
     inkscape:label="图层 1"
     inkscape:groupmode="layer"
     id="layer1"
     transform="translate(-101.18676,-145.29385)"><path
       d="m 102.22575,151.43805 c -0.38346,-0.0959 -0.68122,-0.30867 -0.87368,-0.6243 -0.15215,-0.24955 -0.165,-0.439 -0.16529,-2.43822 -3.1e-4,-2.10895 0.005,-2.17531 0.19047,-2.45075 0.10494,-0.15571 0.32401,-0.36137 0.48684,-0.45702 0.27687,-0.16265 0.43037,-0.17391 2.37038,-0.17391 1.94,0 2.0935,0.0113 2.37037,0.17391 0.16283,0.0957 0.3819,0.30131 0.48684,0.45702 0.18565,0.27548 0.19079,0.34173 0.19079,2.4594 0,2.11767 -0.005,2.18392 -0.19079,2.4594 -0.39766,0.59008 -0.55966,0.62907 -2.68788,0.64684 -1.04775,0.009 -2.02787,-0.0148 -2.17805,-0.0524 z m 1.73637,-2.06952 -0.024,-0.8529 -0.75871,-0.44226 c -0.90303,-0.52639 -0.97695,-0.50597 -0.97695,0.26979 0,0.58454 0.0908,0.69156 0.46566,0.54902 0.45345,-0.1724 0.63182,0.19323 0.278,0.56985 -0.23807,0.25342 -0.16328,0.38427 0.40098,0.70152 0.59201,0.33285 0.64481,0.26459 0.61501,-0.79502 z m 1.6645,0.42619 c 0.0622,-0.0987 0.0355,-0.18438 -0.10382,-0.33269 -0.35957,-0.38274 -0.19037,-0.71523 0.29431,-0.57836 0.39251,0.11083 0.44936,0.0427 0.44936,-0.53851 0,-0.77799 -0.0735,-0.79843 -0.97696,-0.2718 l -0.75871,0.44224 -0.0243,0.83196 c -0.0315,1.07537 0.0211,1.14708 0.60253,0.82235 0.23858,-0.13325 0.47151,-0.30208 0.51763,-0.37519 z m -0.58125,-2.23604 c 0.36892,-0.22119 0.67076,-0.45893 0.67076,-0.52831 0,-0.0694 -0.20657,-0.24958 -0.45905,-0.40045 -0.50554,-0.30209 -0.63354,-0.27664 -0.72601,0.14437 -0.056,0.25495 -0.21646,0.36533 -0.41843,0.28783 -0.067,-0.0257 -0.14565,-0.15524 -0.17478,-0.28783 -0.0925,-0.42101 -0.22047,-0.44646 -0.72601,-0.14437 -0.25248,0.15087 -0.45905,0.33108 -0.45905,0.40045 0,0.1396 1.25938,0.93048 1.48167,0.93048 0.0771,0 0.44198,-0.18098 0.8109,-0.40217 z"
       id="path1" /></g></svg>
