<?xml version="1.0" encoding="UTF-8" standalone="no"?>
<!-- Created with Inkscape (http://www.inkscape.org/) -->

<svg
   width="6.7506375mm"
   height="6.1720395mm"
   viewBox="0 0 6.7506375 6.1720395"
   version="1.1"
   id="svg1"
   xml:space="preserve"
   xmlns:inkscape="http://www.inkscape.org/namespaces/inkscape"
   xmlns:sodipodi="http://sodipodi.sourceforge.net/DTD/sodipodi-0.dtd"
   xmlns="http://www.w3.org/2000/svg"
   xmlns:svg="http://www.w3.org/2000/svg"><sodipodi:namedview
     id="namedview1"
     pagecolor="#505050"
     bordercolor="#ffffff"
     borderopacity="1"
     inkscape:showpageshadow="0"
     inkscape:pageopacity="0"
     inkscape:pagecheckerboard="1"
     inkscape:deskcolor="#505050"
     inkscape:document-units="mm" /><defs
     id="defs1" /><g
     inkscape:label="图层 1"
     inkscape:groupmode="layer"
     id="layer1"
     transform="translate(-101.42012,-145.51162)"><path
       d="m 105.1404,151.58458 c -0.0559,-0.0559 -0.1016,-0.16504 -0.1016,-0.24258 0,-0.0775 -0.0762,-0.23786 -0.16933,-0.35626 -0.29895,-0.38004 -0.22567,-0.61718 0.3548,-1.14831 1.61939,-1.48173 1.84653,-1.78926 1.84653,-2.5001 0,-0.32321 -0.0413,-0.4112 -0.29928,-0.63772 -0.46629,-0.4094 -1.13109,-0.30339 -1.60124,0.25535 -0.11287,0.13414 -0.24577,0.24388 -0.29535,0.24388 -0.11276,0 -0.11308,0.12562 -0.001,0.52794 0.0628,0.2263 0.0606,0.36708 -0.008,0.49491 -0.0798,0.14909 -0.0664,0.19912 0.081,0.30237 0.21222,0.14864 0.23581,0.55085 0.0436,0.74307 -0.26244,0.26243 -1.02115,0.0843 -1.2195,-0.28632 -0.13073,-0.24427 0.0587,-0.59609 0.35256,-0.65487 0.17909,-0.0358 0.23799,-0.0964 0.23799,-0.2447 0,-0.97076 -1.36984,-1.24555 -1.82466,-0.36603 -0.16666,0.32228 -0.15414,0.61405 0.0429,1.00036 0.15591,0.30559 0.61426,0.76927 0.76045,0.76927 0.0365,0 0.15672,0.17025 0.26711,0.37833 0.16238,0.30611 0.18014,0.39889 0.093,0.486 -0.0871,0.0871 -0.20804,0.0556 -0.63344,-0.16528 -0.97936,-0.50843 -1.53727,-1.2298 -1.63751,-2.1173 -0.10566,-0.93547 0.7026,-1.79665 1.68808,-1.79861 0.33374,-6.6e-4 0.99,0.17406 0.99,0.26358 0,0.041 0.0381,0.0746 0.0847,0.0746 0.0466,0 0.0847,-0.0615 0.0847,-0.13675 0,-0.14658 0.56664,-0.70957 0.71505,-0.71044 0.0491,-2.9e-4 0.18453,-0.0497 0.30095,-0.1097 0.56371,-0.29075 1.58239,-0.10359 2.16896,0.39849 0.49201,0.42114 0.70988,0.92088 0.70888,1.626 -0.001,0.89568 -0.20889,1.24964 -1.55794,2.65602 -0.63281,0.6597 -1.15057,1.23477 -1.15057,1.27792 0,0.11163 -0.20144,0.0971 -0.32173,-0.0231 z"
       id="path1" /></g></svg>
