<?xml version="1.0" encoding="UTF-8" standalone="no"?>
<!-- Created with Inkscape (http://www.inkscape.org/) -->

<svg
   width="6.7733431mm"
   height="5.4186616mm"
   viewBox="0 0 6.7733431 5.4186616"
   version="1.1"
   id="svg1"
   xml:space="preserve"
   xmlns:inkscape="http://www.inkscape.org/namespaces/inkscape"
   xmlns:sodipodi="http://sodipodi.sourceforge.net/DTD/sodipodi-0.dtd"
   xmlns="http://www.w3.org/2000/svg"
   xmlns:svg="http://www.w3.org/2000/svg"><sodipodi:namedview
     id="namedview1"
     pagecolor="#505050"
     bordercolor="#ffffff"
     borderopacity="1"
     inkscape:showpageshadow="0"
     inkscape:pageopacity="0"
     inkscape:pagecheckerboard="1"
     inkscape:deskcolor="#505050"
     inkscape:document-units="mm" /><defs
     id="defs1" /><g
     inkscape:label="图层 1"
     inkscape:groupmode="layer"
     id="layer1"
     transform="translate(-100.97479,-145.46319)"><path
       d="m 101.507,150.73551 -0.27212,-0.1355 -0.13004,-0.27404 -0.13005,-0.27404 v -1.86817 -1.86817 l 0.13672,-0.28668 0.13671,-0.28669 0.23618,-0.13952 0.23619,-0.13952 h 2.58756 2.58757 l 0.28858,0.13762 0.28859,0.13762 0.13762,0.28859 0.13762,0.28858 v 1.86817 1.86817 l -0.12837,0.27051 -0.12837,0.27052 -0.24453,0.14444 -0.24453,0.14445 -2.6116,-0.005 -2.6116,-0.005 z m 1.75379,-1.84333 v -0.127 h -0.16933 -0.16933 v -0.127 -0.127 h 0.16933 c 0.0931,0 0.16933,-0.0381 0.16933,-0.0847 0,-0.0466 -0.0762,-0.0847 -0.16933,-0.0847 h -0.16933 v -0.127 -0.127 h 0.16933 c 0.0931,0 0.16933,-0.0381 0.16933,-0.0847 0,-0.0466 -0.0762,-0.0847 -0.16933,-0.0847 h -0.16933 v -0.127 -0.127 h 0.16433 c 0.0904,0 0.18789,-0.0381 0.21667,-0.0847 l 0.0523,-0.0847 h -0.21666 -0.21666 v -0.0847 c 0,-0.12177 -0.23154,-0.10454 -0.28437,0.0212 l -0.0445,0.10584 -0.0941,-0.14873 -0.0941,-0.14873 -0.15092,0.0808 c -0.083,0.0444 -0.30005,0.0733 -0.48232,0.0641 l -0.33139,-0.0167 -0.0245,0.74084 -0.0245,0.74083 0.19379,-0.001 c 0.10659,-7.1e-4 0.23913,-0.0301 0.29454,-0.0653 l 0.10074,-0.0641 0.0318,-0.46381 0.0318,-0.46382 0.0157,0.61383 0.0157,0.61383 h 0.59267 0.59266 z m -0.84666,-0.254 v -0.127 h 0.127 0.127 v 0.127 0.127 h -0.127 -0.127 z m -0.7349,-0.55033 v -0.55033 l 0.0341,0.27516 c 0.0188,0.15134 0.0188,0.39899 0,0.55034 l -0.0341,0.27516 z m 0.7349,0.127 v -0.127 h 0.127 0.127 v 0.127 0.127 h -0.127 -0.127 z m 0,-0.42333 v -0.127 h 0.127 0.127 v 0.127 0.127 h -0.127 -0.127 z m 1.84573,1.12606 0.1016,-0.1016 v -0.32173 -0.32173 h -0.46567 -0.46566 v 0.36689 c 0,0.44545 0.0301,0.47977 0.42051,0.47977 h 0.30762 z m -0.49107,-0.31552 v -0.26021 h 0.17496 0.17496 l -0.0268,0.23211 -0.0268,0.23211 -0.14817,0.0281 -0.14817,0.0281 z m 1.46846,0.35362 c 0.0215,-0.0349 0.0523,-0.2159 0.0685,-0.40216 l 0.0294,-0.33867 -0.4445,-0.0256 -0.4445,-0.0256 v 0.42776 0.42775 h 0.376 c 0.2068,0 0.39361,-0.0286 0.41512,-0.0635 z m -0.53712,-0.35983 v -0.254 h 0.16933 0.16933 v 0.254 0.254 h -0.16933 -0.16933 z m 2.52446,0.14817 0.0268,-0.23284 h -0.17496 -0.17496 v 0.127 0.127 h -0.42954 -0.42954 l 0.0283,-0.14816 0.0283,-0.14817 0.60465,-0.0247 0.60465,-0.0247 0.0531,-0.21151 0.0531,-0.21152 -0.26966,-0.22944 c -0.14831,-0.1262 -0.36441,-0.29283 -0.48023,-0.37031 l -0.21058,-0.14086 -0.12721,0.0488 c -0.07,0.0268 -0.29283,0.20454 -0.49525,0.39487 l -0.36803,0.34605 0.0516,0.1905 0.0516,0.1905 h 0.11713 c 0.13886,0 0.1405,0.0122 0.0379,0.28211 -0.0436,0.11466 -0.0549,0.23281 -0.0252,0.26256 0.0297,0.0298 0.37974,0.0432 0.77776,0.0299 l 0.72367,-0.0242 z m -1.14607,-0.63384 c 0.22259,-0.0175 0.56549,-0.0173 0.762,4.7e-4 0.1965,0.0178 0.0144,0.0321 -0.40473,0.0318 l -0.762,-4.7e-4 z m 0.18856,-0.44635 0.15387,-0.17002 0.15559,0.14081 c 0.2097,0.18978 0.2024,0.19923 -0.15387,0.19923 h -0.30945 z m -1.14821,0.30255 0.10081,-0.12147 -0.0269,-0.27262 -0.0269,-0.27262 -0.635,0.007 c -0.34925,0.004 -0.68262,0.01 -0.74083,0.0131 l -0.10583,0.006 v 0.381 0.381 h 0.66696 0.66697 z m -1.18074,-0.27326 v -0.19794 h 0.45661 0.4566 l 0.0464,0.12081 0.0464,0.12081 -0.11081,0.092 -0.1108,0.092 -0.39216,-0.0148 -0.39216,-0.0148 z"
       id="path1" /></g></svg>
