<?xml version="1.0" encoding="UTF-8" standalone="no"?>
<!-- Created with Inkscape (http://www.inkscape.org/) -->

<svg
   width="6.1004028mm"
   height="5.6234293mm"
   viewBox="0 0 6.1004028 5.6234293"
   version="1.1"
   id="svg1"
   xml:space="preserve"
   xmlns:inkscape="http://www.inkscape.org/namespaces/inkscape"
   xmlns:sodipodi="http://sodipodi.sourceforge.net/DTD/sodipodi-0.dtd"
   xmlns="http://www.w3.org/2000/svg"
   xmlns:svg="http://www.w3.org/2000/svg"><sodipodi:namedview
     id="namedview1"
     pagecolor="#505050"
     bordercolor="#ffffff"
     borderopacity="1"
     inkscape:showpageshadow="0"
     inkscape:pageopacity="0"
     inkscape:pagecheckerboard="1"
     inkscape:deskcolor="#505050"
     inkscape:document-units="mm" /><defs
     id="defs1" /><g
     inkscape:label="图层 1"
     inkscape:groupmode="layer"
     id="layer1"
     transform="translate(-101.6076,-145.63073)"><path
       d="m 105.07162,150.74488 c -0.4398,-0.44403 -0.5171,-0.56108 -0.41382,-0.62657 0.0699,-0.0443 0.58708,-0.0811 1.1494,-0.0818 1.43991,-0.002 1.3906,0.0654 1.3906,-1.89444 0,-1.481 -0.003,-1.50402 -0.20782,-1.70904 l -0.20782,-0.20782 h -2.12436 -2.12437 l -0.20782,0.20782 c -0.20513,0.20513 -0.20781,0.22738 -0.20781,1.7197 0,1.87183 0.005,1.88248 0.96554,1.88248 0.49933,0 0.66379,0.0342 0.84337,0.17548 0.43978,0.34593 0.31261,0.41719 -0.74455,0.41719 h -0.96764 l -0.30236,-0.28516 -0.30236,-0.28517 v -1.89733 c 0,-2.68813 -0.1935,-2.52767 3.048,-2.52767 3.24149,0 3.048,-0.16046 3.048,2.52767 v 1.89733 l -0.30237,0.28517 c -0.27804,0.26222 -0.3457,0.28516 -0.84118,0.28516 -0.53792,0 -0.53901,4.9e-4 -0.64492,0.29339 -0.0584,0.16137 -0.15082,0.31056 -0.20549,0.33154 -0.0547,0.021 -0.34277,-0.20757 -0.64022,-0.5079 z m -0.78071,-1.44348 c -0.031,-0.031 -0.0564,-0.22154 -0.0564,-0.42333 v -0.36689 h -0.381 -0.381 v -0.381 -0.381 h 0.381 0.381 v -0.37938 c 0,-0.33407 0.0253,-0.38574 0.21167,-0.43252 0.11642,-0.0292 0.30692,-0.0292 0.42333,0 0.18638,0.0468 0.21167,0.0985 0.21167,0.43252 v 0.37938 h 0.381 0.381 v 0.381 0.381 h -0.381 c -0.37725,0 -0.381,0.003 -0.381,0.28941 0,0.46595 -0.0685,0.55726 -0.41828,0.55726 -0.17353,0 -0.3409,-0.0254 -0.37194,-0.0565 z"
       id="path1" /></g></svg>
