<?xml version="1.0" encoding="UTF-8" standalone="no"?>
<!-- Created with Inkscape (http://www.inkscape.org/) -->

<svg
   width="6.4347978mm"
   height="5.695631mm"
   viewBox="0 0 6.4347978 5.695631"
   version="1.1"
   id="svg1"
   xml:space="preserve"
   xmlns:inkscape="http://www.inkscape.org/namespaces/inkscape"
   xmlns:sodipodi="http://sodipodi.sourceforge.net/DTD/sodipodi-0.dtd"
   xmlns="http://www.w3.org/2000/svg"
   xmlns:svg="http://www.w3.org/2000/svg"><sodipodi:namedview
     id="namedview1"
     pagecolor="#505050"
     bordercolor="#ffffff"
     borderopacity="1"
     inkscape:showpageshadow="0"
     inkscape:pageopacity="0"
     inkscape:pagecheckerboard="1"
     inkscape:deskcolor="#505050"
     inkscape:document-units="mm" /><defs
     id="defs1" /><g
     inkscape:label="图层 1"
     inkscape:groupmode="layer"
     id="layer1"
     transform="translate(-101.82147,-145.01655)"><path
       d="m 103.85114,150.51222 c -0.96398,-0.37222 -1.55571,-0.92482 -1.86669,-1.74325 l -0.16298,-0.42894 v -0.46162 -0.46163 l 0.1716,-0.43535 0.1716,-0.43535 -0.0993,-0.27467 -0.0993,-0.27467 0.0561,-0.22337 0.0561,-0.22338 0.21493,-0.14083 0.21493,-0.14082 0.25526,0.007 c 0.1404,0.004 0.30613,0.0495 0.36828,0.10105 l 0.11302,0.0938 0.53026,-0.17863 c 0.29164,-0.0983 0.71328,-0.20031 0.93698,-0.2268 l 0.40672,-0.0482 0.53163,0.10351 c 0.2924,0.0569 0.65546,0.1617 0.80681,0.23281 l 0.27516,0.1293 0.27517,-0.12969 0.27517,-0.1297 0.23473,0.0456 0.23474,0.0456 0.16743,0.21285 0.16743,0.21285 v 0.19626 c 0,0.10795 -0.0406,0.28546 -0.0903,0.39447 l -0.0903,0.1982 0.17498,0.44392 0.17497,0.44391 v 0.50245 0.50246 l -0.20651,0.46695 -0.20651,0.46696 -0.40804,0.40804 -0.40805,0.40805 -0.64956,0.27041 -0.64956,0.27041 -0.70438,-0.01 -0.70439,-0.01 z m 1.94428,-1.78947 0.85336,-0.63509 -0.10569,-0.16924 c -0.0581,-0.0931 -0.12774,-0.16924 -0.1547,-0.16924 -0.0269,0 -0.2518,0.1513 -0.49966,0.33623 -0.24786,0.18493 -0.48334,0.31603 -0.52329,0.29134 l -0.0726,-0.0449 v -1.011 c 0,-0.55605 -0.0189,-1.011 -0.0419,-1.011 -0.0231,0 -0.44215,0.28827 -0.93131,0.6406 l -0.88939,0.6406 0.0876,0.16373 c 0.12096,0.22602 0.21101,0.20835 0.68923,-0.13522 l 0.41612,-0.29895 0.0808,0.05 0.0808,0.0499 v 0.96867 0.96867 h 0.0786 c 0.0433,0 0.46264,-0.2858 0.932,-0.6351 z"
       id="path1" /></g></svg>
