<?xml version="1.0" encoding="UTF-8" standalone="no"?>
<!-- Created with Inkscape (http://www.inkscape.org/) -->

<svg
   width="15.180662mm"
   height="14.949169mm"
   viewBox="0 0 15.180662 14.949169"
   version="1.1"
   id="svg1"
   xml:space="preserve"
   xmlns:inkscape="http://www.inkscape.org/namespaces/inkscape"
   xmlns:sodipodi="http://sodipodi.sourceforge.net/DTD/sodipodi-0.dtd"
   xmlns="http://www.w3.org/2000/svg"
   xmlns:svg="http://www.w3.org/2000/svg"><sodipodi:namedview
     id="namedview1"
     pagecolor="#505050"
     bordercolor="#ffffff"
     borderopacity="1"
     inkscape:showpageshadow="0"
     inkscape:pageopacity="0"
     inkscape:pagecheckerboard="1"
     inkscape:deskcolor="#505050"
     inkscape:document-units="mm" /><defs
     id="defs1" /><g
     inkscape:label="图层 1"
     inkscape:groupmode="layer"
     id="layer1"
     transform="translate(-87.976267,-129.9405)"><path
       d="m 94.279197,144.69518 c -0.494271,-0.31667 -1.263035,-5.92438 -0.903729,-6.59219 0.440807,-0.81931 3.807102,-0.83578 4.245597,-0.0207 0.335401,0.6234 -0.34342,5.87559 -0.835642,6.46554 -0.309163,0.37056 -2.002494,0.47016 -2.506226,0.14742 z m 2.232721,-3.17577 c 0.453082,-3.38505 0.516092,-3.18591 -1.008067,-3.18591 -1.521282,0 -1.491535,-0.0848 -1.040816,2.96851 0.366494,2.48276 0.393406,2.54406 1.116962,2.54406 0.581312,0 0.640174,-0.14696 0.931921,-2.32666 z m -6.648598,-0.31703 c -3.05523,-3.38021 -2.289877,-9.03246 1.495954,-11.04788 1.231537,-0.65562 0.99149,0.28016 -0.424151,1.65347 -2.730561,2.64893 -2.739903,6.39548 -0.02287,9.17401 0.775704,0.79327 0.861701,0.99146 0.543997,1.25374 -0.307023,0.25346 -0.603922,0.0609 -1.592926,-1.03334 z m 9.663154,1.01433 c -0.258908,-0.31031 -0.165124,-0.52486 0.501826,-1.14804 2.74308,-2.563 2.75119,-6.53319 0.019,-9.26693 -1.388888,-1.38964 -1.59467,-2.28387 -0.376311,-1.63526 1.721911,0.91666 3.485941,4.05323 3.485941,6.19825 0,2.40127 -2.776,6.87603 -3.630386,5.85198 z m -5.300045,-5.87847 c -2.107782,-1.46855 -0.278453,-4.74706 2.101574,-3.76643 2.203501,0.9079 1.558069,4.18667 -0.824152,4.18667 -0.37084,0 -0.945679,-0.1891 -1.277422,-0.42024 z m 2.544976,-1.61152 c 0.09619,-0.63453 -0.58886,-1.38078 -1.267554,-1.38078 -1.311448,0 -1.706556,1.69917 -0.530262,2.28041 0.790384,0.39055 1.66887,-0.049 1.797816,-0.89963 z"
       id="path23203" /></g></svg>
