<?xml version="1.0" encoding="UTF-8" standalone="no"?>
<!-- Created with Inkscape (http://www.inkscape.org/) -->

<svg
   width="15.820998mm"
   height="13.221036mm"
   viewBox="0 0 15.820998 13.221036"
   version="1.1"
   id="svg1"
   xml:space="preserve"
   xmlns:inkscape="http://www.inkscape.org/namespaces/inkscape"
   xmlns:sodipodi="http://sodipodi.sourceforge.net/DTD/sodipodi-0.dtd"
   xmlns="http://www.w3.org/2000/svg"
   xmlns:svg="http://www.w3.org/2000/svg"><sodipodi:namedview
     id="namedview1"
     pagecolor="#505050"
     bordercolor="#ffffff"
     borderopacity="1"
     inkscape:showpageshadow="0"
     inkscape:pageopacity="0"
     inkscape:pagecheckerboard="1"
     inkscape:deskcolor="#505050"
     inkscape:document-units="mm" /><defs
     id="defs1" /><g
     inkscape:label="图层 1"
     inkscape:groupmode="layer"
     id="layer1"
     transform="translate(-86.269816,-135.15496)"><path
       d="m 88.92588,147.70354 c -1.379791,-1.47707 -2.647179,-5.75192 -2.656018,-8.95864 -0.01412,-5.12353 3.26643,-4.66528 6.723497,0.93918 1.247518,2.02242 1.171701,2.02242 2.417019,0 3.698672,-6.00673 7.023912,-6.04506 6.651932,-0.0767 -0.47721,7.65682 -3.672295,10.84852 -6.764554,6.75741 -1.100866,-1.45647 -1.127981,-1.45743 -2.128911,-0.0757 -1.565123,2.16059 -3.075582,2.66411 -4.242965,1.41442 z m 2.691439,-2.12019 c 1.766606,-2.06388 1.770281,-2.11144 0.345301,-4.46863 -3.487422,-5.76885 -4.918873,-5.56537 -3.73176,0.53046 0.951271,4.88478 1.765602,5.83178 3.386459,3.93817 z m 7.402115,-0.0123 c 1.051166,-2.15818 1.908026,-7.57953 1.354336,-8.56892 -0.39578,-0.70722 -1.385704,0.24277 -3.389644,3.25292 -1.934813,2.90632 -1.941694,2.93073 -1.151291,4.08453 1.682063,2.4554 2.446565,2.75085 3.186599,1.23147 z"
       id="path1" /></g></svg>
