<svg width="24" height="24" viewBox="0 0 24 24" fill="none" xmlns="http://www.w3.org/2000/svg">
<path fill-rule="evenodd" clip-rule="evenodd" d="M7.83191 12.3501C7.09632 11.4783 6.5 9.8495 6.5 8.70929V6.99958C6.5 4.79067 8.29536 3 10.5 3C12.7091 3 14.5 4.79298 14.5 7.00021V8.71019C14.5 9.8493 13.9009 11.4829 13.1681 12.3516L12.8066 12.7801C12.217 13.479 12.4012 14.3684 13.2255 14.7705L18.8859 17.5316C19.5012 17.8317 20 18.6252 20 19.3155V20.0016C20 20.553 19.5491 21 18.9986 21H2.00143C1.44836 21 1 20.5558 1 20.0016V19.3155C1 18.6304 1.49815 17.8319 2.1141 17.5313L7.77445 14.7691C8.59538 14.3685 8.78626 13.4813 8.19345 12.7786L7.83191 12.3501ZM2.2 19.8H18.8V19.3155C18.8 19.0861 18.5647 18.71 18.3598 18.6101L12.6995 15.849C11.1729 15.1044 10.7956 13.3029 11.8893 12.0064L12.2509 11.5778C12.8022 10.9243 13.3 9.56439 13.3 8.71019V7.00021C13.3 5.45491 12.0456 4.2 10.5 4.2C8.95631 4.2 7.7 5.4552 7.7 6.99958V8.70929C7.7 9.56566 8.19575 10.9205 8.74908 11.5763L9.11061 12.0048C10.2066 13.3039 9.82521 15.1037 8.30072 15.8476L2.64037 18.6098C2.43702 18.709 2.2 19.0887 2.2 19.3155V19.8ZM18.9 8V10.9H16V12.1H18.9V15H20.1V12.1H23V10.9H20.1V8H18.9Z" />
</svg>
