<svg width="32" height="32" viewBox="0 0 32 32" fill="none" xmlns="http://www.w3.org/2000/svg">
<path fill-rule="evenodd" clip-rule="evenodd" d="M2.66669 16C2.66669 23.3638 8.63622 29.3333 16 29.3333C23.3638 29.3333 29.3334 23.3638 29.3334 16C29.3334 8.63619 23.3638 2.66666 16 2.66666C8.63622 2.66666 2.66669 8.63619 2.66669 16ZM27.7334 16C27.7334 22.4801 22.4802 27.7333 16 27.7333C9.51988 27.7333 4.26669 22.4801 4.26669 16C4.26669 9.51985 9.51988 4.26666 16 4.26666C22.4802 4.26666 27.7334 9.51985 27.7334 16ZM22.6667 15.2V16.8H16.8V22.6667H15.2V16.8H9.33335V15.2H15.2V9.33332H16.8V15.2H22.6667Z" />
</svg>
