<svg width="25" height="24" viewBox="0 0 25 24" fill="none" xmlns="http://www.w3.org/2000/svg">
<path fill-rule="evenodd" clip-rule="evenodd" d="M1.5 20C1.5 20.5523 1.94771 21 2.5 21H19.5C20.0523 21 20.5 20.5523 20.5 20V19.3155C20.5 18.6252 20.0012 17.8317 19.3859 17.5316L13.7255 14.7705C12.9012 14.3684 12.717 13.479 13.3066 12.7801L13.6681 12.3516C14.4009 11.4829 15 9.8493 15 8.71019V7.00021C15 4.79298 13.2091 3 11 3C8.79536 3 7 4.79067 7 6.99958V8.70929C7 9.8495 7.59632 11.4783 8.33191 12.3501L8.69345 12.7786C9.28626 13.4813 9.09538 14.3685 8.27445 14.7691L2.6141 17.5313C1.99815 17.8319 1.5 18.6304 1.5 19.3155V20ZM23.5 14.5H20.5V16H23.5V14.5ZM18.5 11.5H23.5V13H18.5V11.5ZM23.5 8.5H16.5V10H23.5V8.5Z" />
</svg>
