<svg width="24" height="24" viewBox="0 0 24 24" fill="none" xmlns="http://www.w3.org/2000/svg">
<path fill-rule="evenodd" clip-rule="evenodd" d="M18.8 19.3155V19.8H2.2V19.3155C2.2 19.0887 2.43702 18.709 2.64037 18.6098L8.30072 15.8476C9.82521 15.1037 10.2066 13.3039 9.11061 12.0048L8.74908 11.5763C8.19575 10.9205 7.7 9.56566 7.7 8.70929V6.99958C7.7 5.4552 8.95631 4.2 10.5 4.2C12.0456 4.2 13.3 5.45491 13.3 7.00021V8.71019C13.3 9.56439 12.8022 10.9243 12.2509 11.5778L11.8893 12.0064C10.7956 13.3029 11.1729 15.1044 12.6995 15.849L18.3598 18.6101C18.5647 18.71 18.8 19.0861 18.8 19.3155ZM1 19.3155V20C1 20.5523 1.44772 21 2 21H19C19.5523 21 20 20.5523 20 20V19.3155C20 18.6252 19.5012 17.8317 18.8859 17.5316L13.2255 14.7705C12.4012 14.3684 12.217 13.479 12.8066 12.7801L13.1681 12.3516C13.9009 11.4829 14.5 9.8493 14.5 8.71019V7.00021C14.5 4.79298 12.7091 3 10.5 3C8.29536 3 6.5 4.79067 6.5 6.99958V8.70929C6.5 9.8495 7.09632 11.4783 7.83191 12.3501L8.19345 12.7786C8.78626 13.4813 8.59538 14.3685 7.77445 14.7691L2.1141 17.5313C1.49815 17.8319 1 18.6304 1 19.3155ZM23 14.5H20V15.7H23V14.5ZM18 11.5H23V12.7H18V11.5ZM23 8.5H16V9.7H23V8.5Z" />
</svg>
