<svg width="24" height="24" viewBox="0 0 24 24" fill="none" xmlns="http://www.w3.org/2000/svg">
<path fill-rule="evenodd" clip-rule="evenodd" d="M2.9918 4H21.0082C21.5447 4 22 4.48114 22 5.07465V15.5V18.9254C22 19.5212 21.556 20 21.0082 20H2.9918C2.45531 20 2 19.5189 2 18.9254V5.07465C2 4.47885 2.44405 4 2.9918 4ZM20.8 14.4088V5.2H3.2V14.0922L8.19925 10.0493C8.6618 9.67518 9.40463 9.69333 9.8505 10.0851L14.3269 14.0182L16.6091 12.0775C17.0713 11.6844 17.8067 11.6924 18.2554 12.0951L20.8 14.4088ZM3.2 15.6355L9.00606 10.9401L14.8112 16H16.5824L15.238 14.8187L17.4262 12.9579L20.8 15.9936L20.8 18.8H3.2V15.6355Z" />
</svg>
