<svg width="24" height="24" viewBox="0 0 24 24" fill="none" xmlns="http://www.w3.org/2000/svg">
<path fill-rule="evenodd" clip-rule="evenodd" d="M17.7667 17.2011C18.0435 17.3833 18.4156 17.3067 18.5978 17.03C19.0647 16.321 19.3487 15.1696 19.4839 13.5499C19.531 12.9863 19.7195 12.6107 20.2451 11.8943L20.3369 11.7694C21.328 10.4204 21.6443 9.49992 21.3234 7.83404C20.324 4.05245 16.9256 1.39999 13 1.39999C9.8636 1.39999 7.11935 3.07895 5.61697 5.58712C5.19156 5.902 4.85234 6.32672 4.64124 6.81937C4.97125 6.43989 5.45761 6.19999 5.99999 6.19999C6.99411 6.19999 7.79999 7.00588 7.79999 7.99999V16C7.79999 16.9941 6.99411 17.8 5.99999 17.8C5.4576 17.8 4.97124 17.5601 4.64124 17.1806C4.85234 17.6733 5.19155 18.098 5.61697 18.4129C7.11934 20.921 9.8636 22.6 13 22.6C16.5412 22.6 19.6808 20.4396 20.9809 17.2097C21.0994 16.9151 21.2272 16.4844 21.3119 16.0049C21.4388 15.2861 21.4509 14.5659 21.3059 13.8764C21.2376 13.5522 20.9194 13.3446 20.5952 13.4129C20.2709 13.4811 20.0633 13.7993 20.1316 14.1235C20.3264 15.0493 20.1463 16.0695 19.8677 16.7616C18.7489 19.541 16.0473 21.4 13 21.4C10.8391 21.4 8.89454 20.4738 7.54165 18.9967C9.13273 18.9227 10.4 17.6094 10.4 16V7.99999C10.4 6.39062 9.13273 5.07724 7.54165 5.00328C8.89455 3.5262 10.8391 2.59999 13 2.59999C16.3778 2.59999 19.3024 4.88269 20.1542 8.10103C20.3919 9.34233 20.1818 9.95372 19.3698 11.0589L19.2776 11.1844C18.6313 12.0653 18.3583 12.6093 18.2881 13.4501C18.1682 14.8864 17.926 15.8683 17.5956 16.37C17.4134 16.6467 17.49 17.0188 17.7667 17.2011ZM17.6993 7.34223C17.5103 7.07006 17.5777 6.69619 17.8499 6.50717C18.1221 6.31816 18.496 6.38558 18.685 6.65775C19.059 7.19633 19.3999 8.08463 19.5472 8.89239C19.6066 9.21839 19.3905 9.53084 19.0645 9.59027C18.7385 9.64969 18.426 9.43359 18.3666 9.10759C18.2484 8.459 17.9686 7.72993 17.6993 7.34223Z" />
</svg>
