<svg width="24" height="24" viewBox="0 0 24 24" fill="none" xmlns="http://www.w3.org/2000/svg">
<path fill-rule="evenodd" clip-rule="evenodd" d="M14.3578 5.2H9.64222L7.64222 8.2H3.2V18.8H20.8V8.2H16.3578L14.3578 5.2ZM14.7324 4C14.8996 4 15.0557 4.08355 15.1484 4.22265L17 7H21C21.5523 7 22 7.44772 22 8V19C22 19.5523 21.5523 20 21 20H3C2.44772 20 2 19.5523 2 19V8C2 7.44772 2.44772 7 3 7H7L8.85157 4.22265C8.9443 4.08355 9.10042 4 9.26759 4H14.7324ZM12 15.8C13.5464 15.8 14.8 14.5464 14.8 13C14.8 11.4536 13.5464 10.2 12 10.2C10.4536 10.2 9.2 11.4536 9.2 13C9.2 14.5464 10.4536 15.8 12 15.8ZM12 17C9.79086 17 8 15.2091 8 13C8 10.7909 9.79086 9 12 9C14.2091 9 16 10.7909 16 13C16 15.2091 14.2091 17 12 17Z" />
</svg>
