<svg width="25" height="24" viewBox="0 0 25 24" fill="none" xmlns="http://www.w3.org/2000/svg">
<path fill-rule="evenodd" clip-rule="evenodd" d="M15.2324 4C15.3996 4 15.5557 4.08355 15.6484 4.22265L17.5 7H21.5C22.0523 7 22.5 7.44772 22.5 8V19C22.5 19.5523 22.0523 20 21.5 20H3.5C2.94772 20 2.5 19.5523 2.5 19V8C2.5 7.44772 2.94772 7 3.5 7H7.5L9.35157 4.22265C9.4443 4.08355 9.60042 4 9.76759 4H15.2324ZM16 13C16 14.933 14.433 16.5 12.5 16.5C10.567 16.5 9 14.933 9 13C9 11.067 10.567 9.5 12.5 9.5C14.433 9.5 16 11.067 16 13Z" />
</svg>
