<svg width="24" height="24" viewBox="0 0 24 24" fill="none" xmlns="http://www.w3.org/2000/svg">
<path d="M21 4.35616C21 3.87898 20.6221 3.55247 20.156 3.61722L3.84403 5.88276C3.37596 5.94777 3 6.38331 3 6.85616L4.2 7.04484L19.8 4.87817V8.16252L21 8.32042V4.35616Z" fill="#00C777"/>
<path fill-rule="evenodd" clip-rule="evenodd" d="M3.99477 6.00872C3.45093 5.93717 3 6.32635 3 6.87963V17.5187C3 17.99 3.37649 18.4274 3.84092 18.4885L21.0052 20.7469C21.5491 20.8185 22 20.4293 22 19.876V9.23701C22 8.76564 21.6235 8.32829 21.1591 8.26719L3.99477 6.00872ZM4.2 17.3254V7.24607L20.8 9.43028V19.5096L4.2 17.3254Z" fill="#1588F4"/>
</svg>
