<svg width="24" height="24" viewBox="0 0 24 24" fill="none" xmlns="http://www.w3.org/2000/svg">
<path fill-rule="evenodd" clip-rule="evenodd" d="M12 22C6.47715 22 2 17.5228 2 12C2 6.47715 6.47715 2 12 2C17.5228 2 22 6.47715 22 12C22 17.5228 17.5228 22 12 22ZM12 20.8C16.8601 20.8 20.8 16.8601 20.8 12C20.8 7.13989 16.8601 3.2 12 3.2C7.13989 3.2 3.2 7.13989 3.2 12C3.2 16.8601 7.13989 20.8 12 20.8ZM15.5 12.4V11.2H13.9L15.5 8H14L12.4 11.2H11.6L10 8H8.5L10.1 11.2H8.5V12.4H11.4V13.5H8.5V14.7H11.4V16.5H12.6V14.7H15.5V13.5H12.6V12.4H15.5Z" />
</svg>
