<svg width="24" height="24" viewBox="0 0 24 24" fill="none" xmlns="http://www.w3.org/2000/svg">
<path fill-rule="evenodd" clip-rule="evenodd" d="M10.5029 17.8H20.5C20.6657 17.8 20.8 17.6657 20.8 17.5V5.5C20.8 5.33431 20.6657 5.2 20.5 5.2H3.5C3.33431 5.2 3.2 5.33431 3.2 5.5V17.5C3.2 17.6657 3.33431 17.8 3.5 17.8H8.2V20.1029L10.5029 17.8ZM11 19L8.70711 21.2929C8.31658 21.6834 7.68342 21.6834 7.29289 21.2929C7.10536 21.1054 7 20.851 7 20.5858V19H3.5C2.67157 19 2 18.3284 2 17.5V5.5C2 4.67157 2.67157 4 3.5 4H20.5C21.3284 4 22 4.67157 22 5.5V17.5C22 18.3284 21.3284 19 20.5 19H11Z" />
</svg>
