<svg width="24" height="24" viewBox="0 0 24 24" fill="none" xmlns="http://www.w3.org/2000/svg">
<path fill-rule="evenodd" clip-rule="evenodd" d="M12 20.8C16.8601 20.8 20.8 16.8601 20.8 12C20.8 7.13989 16.8601 3.2 12 3.2C7.13989 3.2 3.2 7.13989 3.2 12C3.2 16.8601 7.13989 20.8 12 20.8ZM12 22C6.47715 22 2 17.5228 2 12C2 6.47715 6.47715 2 12 2C17.5228 2 22 6.47715 22 12C22 17.5228 17.5228 22 12 22ZM11.1234 11.1234L9.26736 14.7326L12.8766 12.8766L14.7326 9.26736L11.1234 11.1234ZM10.2322 10.2322L16.1243 7.20234C16.2679 7.12855 16.4382 7.12855 16.5817 7.20234C16.8272 7.32862 16.9239 7.63007 16.7977 7.87565L13.7678 13.7678L7.87565 16.7977C7.73214 16.8715 7.56185 16.8715 7.41834 16.7977C7.17277 16.6714 7.07606 16.3699 7.20234 16.1243L10.2322 10.2322Z" />
</svg>
