<svg width="72" height="72" viewBox="0 0 72 72" fill="none" xmlns="http://www.w3.org/2000/svg">
<g id="Outlined/display_mobile">
<path id="Combined Shape" fill-rule="evenodd" clip-rule="evenodd" d="M6 15C6 13.3431 7.34315 12 9 12H63C64.6569 12 66 13.3431 66 15V30H69C70.6569 30 72 31.3431 72 33V63C72 64.6569 70.6569 66 69 66H51C49.3431 66 48 64.6569 48 63V57H9C7.34315 57 6 55.6569 6 54V15ZM62.4 15.6V30H51C49.3431 30 48 31.3431 48 33V53.4H9.6V15.6H62.4ZM27 60.9C25.3431 60.9 24 62.2431 24 63.9V64.5H45V63.9C45 62.2431 43.6569 60.9 42 60.9H27ZM51.6 62.4V33.6H68.4V62.4H51.6Z" />
</g>
</svg>
