<svg width="24" height="24" viewBox="0 0 24 24" fill="none" xmlns="http://www.w3.org/2000/svg">
<path fill-rule="evenodd" clip-rule="evenodd" d="M2 12C2 17.5228 6.47715 22 12 22C17.5228 22 22 17.5228 22 12C22 6.47715 17.5228 2 12 2C6.47715 2 2 6.47715 2 12ZM20.8 12C20.8 16.8601 16.8601 20.8 12 20.8C7.13989 20.8 3.2 16.8601 3.2 12C3.2 7.13989 7.13989 3.2 12 3.2C16.8601 3.2 20.8 7.13989 20.8 12ZM12.6592 6.43115L12.5713 13.4917H11.4287L11.3408 6.43115H12.6592ZM11.165 16.2383C11.165 16.707 11.5312 17.0732 12 17.0732C12.4761 17.0732 12.835 16.707 12.835 16.2383C12.835 15.7622 12.4761 15.4033 12 15.4033C11.5312 15.4033 11.165 15.7622 11.165 16.2383Z" />
</svg>
