<svg width="24" height="24" viewBox="0 0 24 24" fill="none" xmlns="http://www.w3.org/2000/svg">
<path d="M19.0184 8.84577C19.1153 8.39239 19.1934 7.88545 19.2526 7.32495L12.2583 3.24497C12.1556 3.18502 11.8445 3.185 11.7417 3.24497L4.74743 7.32495L12 11.5122C12.6984 11.6353 13.3375 11.7282 13.9171 11.791L12.6 12.5515H11.4L4.2 8.39453L3 7.95232C3 7.40154 3.38672 6.72946 3.86296 6.45165L11.137 2.20843C11.6136 1.93042 12.3867 1.93063 12.863 2.20843L20.137 6.45165C20.6136 6.72966 21 7.40621 21 7.95232L19.8 8.39453L19.0184 8.84577Z" fill="#228BF1"/>
<path fill-rule="evenodd" clip-rule="evenodd" d="M21 16.4578V7.95232C21 7.51135 20.7481 6.98534 20.4002 6.65277L12.0015 11.5069V12.1055L11.9518 13.0309L12.6 12.5514L19.8 8.39453V16.4578C19.8 16.5813 19.6403 16.8589 19.5324 16.9219L12.6 20.9658L11.5276 20.9202L11.4516 22.3344C11.9089 22.4685 12.4811 22.4244 12.863 22.2016L20.137 17.9584C20.6133 17.6806 21 17.0085 21 16.4578Z" fill="#F75356"/>
<path fill-rule="evenodd" clip-rule="evenodd" d="M4.2 8.40158V16.4578C4.2 16.5789 4.36122 16.8598 4.4676 16.9219L11.4 20.9658V12.555L11.4057 12.5583L12.0029 12.1007L12.6 12.5583V22.3184C12.1346 22.4717 11.5331 22.4327 11.137 22.2016L3.86296 17.9584C3.38636 17.6804 3 17.0039 3 16.4578V7.95231C3 7.87716 3.0072 7.79974 3.02085 7.72137L4.2 8.40158Z" fill="#FEC22D"/>
</svg>
