<svg width="24" height="24" viewBox="0 0 24 24" fill="none" xmlns="http://www.w3.org/2000/svg">
<path fill-rule="evenodd" clip-rule="evenodd" d="M20.703 11.4L12.6 3.29705V7.84253C14.4394 8.10564 15.8944 9.56058 16.1575 11.4L14.94 11.4C14.662 10.0307 13.4514 9 12 9C11.7945 9 11.5939 9.02065 11.4 9.06001V1.92211C12.0898 1.70726 12.8735 1.87351 13.4156 2.41554L21.5845 10.5845C21.8206 10.8206 21.9849 11.1015 22.0779 11.4H20.703Z" fill="#1588F4"/>
<path fill-rule="evenodd" clip-rule="evenodd" d="M12.6 20.7029L20.7029 12.6H16.1574C15.8943 14.4394 14.4394 15.8943 12.6 16.1575L12.6 14.94C13.9693 14.662 15 13.4514 15 12C15 11.7945 14.9793 11.5939 14.94 11.4H22.0779C22.2927 12.0898 22.1265 12.8735 21.5844 13.4155L13.4155 21.5845C13.1794 21.8206 12.8985 21.9849 12.6 22.0779V20.7029Z" fill="#00C777"/>
<path fill-rule="evenodd" clip-rule="evenodd" d="M3.29707 12.6L11.4 20.7029V16.1575C9.5606 15.8944 8.10565 14.4394 7.84254 12.6L9.06002 12.6C9.33799 13.9693 10.5486 15 12 15C12.2055 15 12.4061 14.9793 12.6 14.94V22.0779C11.9102 22.2927 11.1265 22.1265 10.5845 21.5845L2.41555 13.4155C2.17942 13.1794 2.01509 12.8985 1.92212 12.6H3.29707Z" fill="#FA5151"/>
<path fill-rule="evenodd" clip-rule="evenodd" d="M11.4 3.29707L3.29708 11.4H7.84256C8.10567 9.5606 9.56061 8.10565 11.4 7.84254L11.4 9.06002C10.0307 9.33799 9.00003 10.5486 9.00003 12C9.00003 12.2055 9.02069 12.4061 9.06004 12.6H1.92214C1.70729 11.9102 1.87354 11.1265 2.41557 10.5845L10.5845 2.41555C10.8206 2.17942 11.1015 2.01509 11.4 1.92212V3.29707Z" fill="#FA9D3B"/>
</svg>
