<svg width="24" height="24" viewBox="0 0 24 24" fill="none" xmlns="http://www.w3.org/2000/svg">
<path fill-rule="evenodd" clip-rule="evenodd" d="M2 12C2 17.5228 6.47715 22 12 22C17.5228 22 22 17.5228 22 12C22 6.47715 17.5228 2 12 2C6.47715 2 2 6.47715 2 12ZM20.8 12C20.8 16.8601 16.8601 20.8 12 20.8C7.13989 20.8 3.2 16.8601 3.2 12C3.2 7.13989 7.13989 3.2 12 3.2C16.8601 3.2 20.8 7.13989 20.8 12ZM9 9.70698H10.193C10.2698 8.7093 10.9395 8.08837 11.993 8.08837C13.0326 8.08837 13.7023 8.72326 13.7023 9.58837C13.7023 10.3349 13.3884 10.7744 12.5791 11.2698C11.6233 11.8419 11.1767 12.4698 11.1837 13.3907V14.0326H12.4047V13.5791C12.4047 12.8465 12.6558 12.4558 13.5419 11.9326C14.4349 11.3953 15 10.6209 15 9.52558C15 8.08837 13.8 7 12.0419 7C10.0814 7 9.07674 8.2 9 9.70698ZM12.593 16.4186C12.593 16.8651 12.2512 17.214 11.7977 17.214C11.3512 17.214 11.0023 16.8651 11.0023 16.4186C11.0023 15.9651 11.3512 15.6233 11.7977 15.6233C12.2512 15.6233 12.593 15.9651 12.593 16.4186Z" />
</svg>
