<svg width="24" height="24" viewBox="0 0 24 24" fill="none" xmlns="http://www.w3.org/2000/svg">
<path fill-rule="evenodd" clip-rule="evenodd" d="M2 5C2 4.44772 2.44772 4 3 4H21C21.5523 4 22 4.44772 22 5V15V16.2V18C22 18.5523 21.5523 19 21 19H15.1554L15.777 20.84C15.7944 20.8915 15.8033 20.9456 15.8033 21C15.8033 21.2761 15.5795 21.5 15.3033 21.5H8.69668C8.64226 21.5 8.58821 21.4911 8.53665 21.4737C8.27503 21.3853 8.1346 21.1016 8.22298 20.84L8.84459 19H3C2.44772 19 2 18.5523 2 18V16.2V15V5ZM3.2 16.2V17.8H9.25L9.25 17.8H14.75L14.75 17.8H20.8V16.2H3.2ZM20.8 15H3.2V5.2H20.8V15ZM10.1112 19L9.67203 20.3H14.328L13.8888 19H10.1112Z" />
</svg>
