<svg width="24" height="24" viewBox="0 0 24 24" fill="none" xmlns="http://www.w3.org/2000/svg">
<path fill-rule="evenodd" clip-rule="evenodd" d="M12 22C6.47715 22 2 17.5228 2 12C2 6.47715 6.47715 2 12 2C17.5228 2 22 6.47715 22 12C22 17.5228 17.5228 22 12 22ZM12 20.8C16.8601 20.8 20.8 16.8601 20.8 12C20.8 7.13989 16.8601 3.2 12 3.2C7.13989 3.2 3.2 7.13989 3.2 12C3.2 16.8601 7.13989 20.8 12 20.8ZM8.5 8H6.5V10H8.5V8ZM9.5 8H11.5V10H9.5V8ZM14.5 8H12.5V10H14.5V8ZM15.5 8H17.5V10H15.5V8ZM8.5 11H6.5V13H8.5V11ZM9.5 11H11.5V13H9.5V11ZM15 17V15H9V17H15ZM12.5 11H14.5V13H12.5V11ZM17.5 11H15.5V13H17.5V11Z" />
</svg>
