<svg width="24" height="24" viewBox="0 0 24 24" fill="none" xmlns="http://www.w3.org/2000/svg">
<path fill-rule="evenodd" clip-rule="evenodd" d="M19.2847 12.6451C20.7288 11.1568 20.7119 8.78154 19.2434 7.31299C17.7594 5.829 15.3534 5.829 13.8694 7.31299C13.6771 7.50526 13.4332 7.7405 13.1366 8.01995L12.3137 8.79528L11.4908 8.01995C11.1942 7.7405 10.9504 7.50526 10.7581 7.31299C9.27411 5.829 6.86808 5.829 5.38409 7.31299C3.91557 8.78152 3.89861 11.1569 5.3297 12.6326L12.3137 19.6167L19.2847 12.6451ZM4.53556 6.46447C6.48819 4.51184 9.65401 4.51184 11.6066 6.46447C11.7894 6.64727 12.0251 6.87463 12.3137 7.14655C12.6023 6.87463 12.838 6.64727 13.0208 6.46447C14.9735 4.51184 18.1393 4.51184 20.0919 6.46447C22.0264 8.39892 22.0444 11.5241 20.1459 13.4807L13.0208 20.6066C12.6303 20.9971 11.9972 20.9972 11.6066 20.6067L4.48117 13.4811C2.58311 11.5241 2.60111 8.39892 4.53556 6.46447Z" />
</svg>
