<svg width="24" height="24" viewBox="0 0 24 24" fill="none" xmlns="http://www.w3.org/2000/svg">
<path fill-rule="evenodd" clip-rule="evenodd" d="M12 22C6.47715 22 2 17.5228 2 12C2 6.47715 6.47715 2 12 2C17.5228 2 22 6.47715 22 12C22 17.5228 17.5228 22 12 22ZM12 20.8C16.8601 20.8 20.8 16.8601 20.8 12C20.8 7.13989 16.8601 3.2 12 3.2C7.13989 3.2 3.2 7.13989 3.2 12C3.2 16.8601 7.13989 20.8 12 20.8ZM15.0061 12.5242L15.1444 12.5228C16.6131 12.2673 17.6818 11.1157 17.6818 9.72727C17.6818 8.15954 16.277 6.9 14.5515 6.9C12.8261 6.9 11.4212 8.15954 11.4212 9.72727V14.2727C11.4212 15.2184 10.5244 15.9909 9.4 15.9909C8.2756 15.9909 7.37879 15.2184 7.37879 14.2727C7.37879 13.5134 7.97002 12.8472 8.8174 12.6427C9.09588 12.573 9.35985 12.3677 9.46161 12.1303C9.47803 12.0978 9.48917 12.0657 9.49485 12.0316C9.4993 12.0049 9.50013 11.9834 9.5 11.9394C9.5 11.6862 9.28607 11.5061 8.97576 11.5061H8.85455C7.38651 11.7283 6.3 12.8991 6.3 14.2727C6.3 15.8405 7.70487 17.1 9.4303 17.1C11.1557 17.1 12.5606 15.8405 12.5606 14.2727V9.72727C12.5606 8.78159 13.4574 8.00909 14.5818 8.00909C15.7062 8.00909 16.603 8.78159 16.603 9.72727C16.603 10.5127 16.0164 11.182 15.1644 11.3876C14.8715 11.4527 14.6274 11.6498 14.5202 11.9C14.3686 12.2411 14.6025 12.5242 15.0061 12.5242Z" />
</svg>
