<svg width="24" height="24" viewBox="0 0 24 24" fill="none" xmlns="http://www.w3.org/2000/svg">
<path d="M15 3.73333V2.46667C14.0666 2.16667 13.0333 2 12 2C10.3333 2 8.76664 2.4 7.36664 3.13333L12.0333 7.8L14.0666 9.83333C14.6333 10.3667 14.9666 11.1333 14.9666 12V9.06667L9.49997 3.56667C10.3 3.33333 11.1333 3.2 12 3.2C13.0666 3.2 14.0666 3.36667 15 3.73333Z" fill="#FA5151"/>
<path d="M8.26667 4.03333L7.36667 3.13333C6.50001 3.6 5.66667 4.2 4.93334 4.93333C3.76667 6.1 2.93334 7.5 2.46667 9H9.06667H11.9667C12.7333 9 13.5333 9.26666 14.1333 9.86666L12.0667 7.8H4.26667C4.66667 7.06666 5.16667 6.4 5.76667 5.76666C6.53334 5.03333 7.36667 4.43333 8.26667 4.03333Z" fill="#FA9D3B"/>
<path d="M3.73333 9H2.46667C2.16667 9.93333 2 10.9667 2 12C2 13.6667 2.4 15.2333 3.13333 16.6333L7.8 11.9667L9.83333 9.93333C10.3667 9.36667 11.1333 9.03333 12 9.03333H9.06667L3.56667 14.5C3.33333 13.7 3.2 12.8667 3.2 12C3.2 10.9333 3.4 9.93333 3.73333 9Z" fill="#FFC300"/>
<path d="M4.03336 15.7333L3.13336 16.6333C3.60003 17.5 4.20003 18.3333 4.93336 19.0667C6.10003 20.2333 7.50003 21.0667 9.00003 21.5333V14.9333V12.0333C9.00003 11.2667 9.2667 10.4667 9.86669 9.86667L7.80003 11.9333V19.7C7.06669 19.3 6.40003 18.8 5.7667 18.2C5.03336 17.4667 4.43336 16.6333 4.03336 15.7333Z" fill="#91D300"/>
<path d="M9 20.2667V21.5333C9.93333 21.8333 10.9667 22 12 22C13.6667 22 15.2333 21.6 16.6333 20.8667L11.9667 16.2L9.93333 14.1667C9.36667 13.6333 9.03333 12.8667 9.03333 12V14.9333L14.5333 20.4333C13.7333 20.6667 12.9 20.8 12.0333 20.8C10.9333 20.8 9.93333 20.6 9 20.2667Z" fill="#00C777"/>
<path d="M15.7333 19.9667L16.6333 20.8667C17.5 20.4 18.3333 19.8 19.0666 19.0667C20.2333 17.9 21.0666 16.5 21.5333 15H14.9333H12.0333C11.2666 15 10.4666 14.7333 9.86664 14.1333L11.9333 16.2H19.7C19.3 16.9333 18.8 17.6 18.2 18.2333C17.4666 18.9667 16.6333 19.5333 15.7333 19.9667Z" fill="#10AEFF"/>
<path d="M20.2667 15H21.5333C21.8333 14.0667 22 13.0333 22 12C22 10.3333 21.6 8.76667 20.8667 7.36667L16.2 12.0333L14.1667 14.0667C13.6333 14.6333 12.8667 14.9667 12 14.9667H14.9333L20.4333 9.46667C20.6667 10.2667 20.8 11.1 20.8 11.9667C20.8 13.0667 20.6 14.0667 20.2667 15Z" fill="#2782D7"/>
<path d="M19.9667 8.26667L20.8667 7.36667C20.4 6.50001 19.8 5.66667 19.0667 4.93334C17.9 3.76667 16.5 2.93334 15 2.46667V9.06667V11.9667C15 12.7333 14.7334 13.5333 14.1334 14.1333L16.2 12.0667V4.26667C16.9334 4.66667 17.6 5.16667 18.2334 5.76667C18.9667 6.53334 19.5667 7.36667 19.9667 8.26667Z" fill="#6467F0"/>
</svg>
