<svg width="24" height="24" viewBox="0 0 24 24" fill="none" xmlns="http://www.w3.org/2000/svg">
<path fill-rule="evenodd" clip-rule="evenodd" d="M7 12C7 13.1044 6.1044 14 5 14C3.8956 14 3 13.1044 3 12C3 10.8952 3.8956 10 5 10C6.1044 10 7 10.8952 7 12ZM12 10C13.1044 10 14 10.8952 14 12C14 13.1044 13.1044 14 12 14C10.8956 14 10 13.1044 10 12C10 10.8952 10.8956 10 12 10ZM21 12C21 10.8952 20.1044 10 19 10C17.8956 10 17 10.8952 17 12C17 13.1044 17.8956 14 19 14C20.1044 14 21 13.1044 21 12Z" />
</svg>
