<svg width="24" height="24" viewBox="0 0 24 24" fill="none" xmlns="http://www.w3.org/2000/svg">
<path fill-rule="evenodd" clip-rule="evenodd" d="M10 4C10 2.89543 10.8954 2 12 2C13.1046 2 14 2.89543 14 4C14 4.11304 13.9906 4.22388 13.9726 4.3318C16.3173 5.14769 18 7.37734 18 10V14C18 15.0359 18.2683 16.0719 18.8049 17.1078L22.425 20.7279L21.5765 21.5765L19.6076 19.6076L17.8294 17.8294L7.75613 7.75613L6.87627 6.87627L4.84853 4.84853L5.69706 4L7.60858 5.91152C8.2674 5.20419 9.09506 4.65623 10.0274 4.3318C10.0094 4.22388 10 4.11304 10 4ZM16.8 14C16.8 14.4028 16.8337 14.804 16.9006 15.2035L8.45731 6.76025C8.98466 6.18304 9.65461 5.7321 10.4218 5.46515L11.3777 5.13251L11.211 4.13418C11.2037 4.0905 11.2 4.04574 11.2 4C11.2 3.55817 11.5582 3.2 12 3.2C12.4418 3.2 12.8 3.55817 12.8 4C12.8 4.04574 12.7963 4.0905 12.789 4.13418L12.6223 5.13251L13.5782 5.46515C15.4914 6.13088 16.8 7.94086 16.8 10V14ZM6.33143 8.02848C6.11669 8.64597 6 9.30936 6 10V14C6 15.4693 5.46027 16.9386 4.38084 18.408C4.05387 18.8531 4.1496 19.4789 4.59467 19.8059C4.76631 19.932 4.97373 20 5.18671 20H11V20.2C11 20.7523 11.4477 21.2 12 21.2C12.5523 21.2 13 20.7523 13 20.2V20L18.303 20L17.103 18.8L12 18.8H5.57422C6.64849 17.2355 7.2 15.6303 7.2 14V10C7.2 9.65899 7.23589 9.32481 7.30447 9.00153L6.33143 8.02848Z" fill="#9CA3AF" fill-opacity="1"/>
</svg>
