<svg width="24" height="24" viewBox="0 0 24 24" fill="none" xmlns="http://www.w3.org/2000/svg">
<path fill-rule="evenodd" clip-rule="evenodd" d="M8.90239 9.21464L8.89523 6.70728L11.0908 7.97026C11.6529 8.29945 12.3503 8.29891 12.912 7.96867L15.1048 6.70727L15.0976 9.21464C15.0976 9.86242 15.4478 10.4632 16.0118 10.7797L18.1989 12.0197L16.0013 13.2657C15.4452 13.5927 15.0976 14.189 15.0976 14.8248L15.1048 17.3364L12.9161 16.0773C12.3454 15.7506 11.6496 15.7506 11.0881 16.0808L8.89523 17.3422L8.90239 14.8348C8.90239 14.187 8.55224 13.5863 7.98824 13.2697L5.80106 12.0297L7.99869 10.7838C8.55663 10.4557 8.90239 9.85834 8.90239 9.21464ZM19.7503 6.11978L16.016 5.12925L13.283 2.42651C12.5731 1.72449 11.4269 1.72449 10.717 2.42651L7.98398 5.12925L4.24834 6.12015C3.28103 6.37424 2.70274 7.36457 2.96162 8.3284L3.9629 12.0295L2.96201 15.7196C2.70274 16.6849 3.28103 17.6752 4.24973 17.9297L7.98398 18.9202L10.717 21.6229C11.4269 22.325 12.5731 22.325 13.283 21.6229L16.0432 18.903L19.7517 17.9193C20.719 17.6652 21.2973 16.6749 21.0384 15.711L20.0372 12.0197L21.038 8.32982C21.2973 7.36457 20.719 6.37424 19.7503 6.11978ZM7.69449 6.44754L7.70239 9.21636C7.70239 9.42942 7.58514 9.63325 7.39386 9.74731L4.96166 11.1262L4.12026 8.01607C4.03464 7.69729 4.22797 7.36621 4.55461 7.28041L7.69449 6.44754ZM4.9612 12.933L7.39865 14.3149C7.58551 14.4198 7.70214 14.6196 7.70239 14.8341L7.69449 17.6019L4.556 16.7694C4.22797 16.6832 4.03464 16.3522 4.12054 16.0323L4.9612 12.933ZM9.27427 18.5085L11.6914 17.1181C11.8842 17.0047 12.1202 17.0046 12.3194 17.1184L14.7346 18.5078L12.44 20.7689C12.1968 21.0094 11.8032 21.0094 11.5608 20.7697L9.27427 18.5085ZM16.3055 17.5919L16.2976 14.8231C16.2976 14.6193 16.4155 14.4158 16.6061 14.3021L19.0388 12.923L19.8798 16.0237C19.9654 16.3421 19.772 16.6732 19.4454 16.759L16.3055 17.5919ZM19.0388 11.1164L16.6014 9.73457C16.4145 9.62969 16.2979 9.42983 16.2976 9.21535L16.3055 6.44754L19.444 7.28004C19.772 7.36621 19.9654 7.69729 19.8795 8.01711L19.0388 11.1164ZM12.3087 6.93137C12.1166 7.04426 11.8834 7.04426 11.6914 6.93137L9.27427 5.54094L11.5608 3.27976C11.8032 3.04007 12.1968 3.04007 12.4392 3.27976L14.7257 5.54094L12.3087 6.93137Z" />
</svg>
