<svg width="24" height="24" viewBox="0 0 24 24" fill="none" xmlns="http://www.w3.org/2000/svg">
<path fill-rule="evenodd" clip-rule="evenodd" d="M7 5.2H3.20001V9H2V5C2 4.44772 2.44772 4 3 4H7V5.2ZM7 18.8H3.20001V15H2V19C2 19.5523 2.44772 20 3 20H7V18.8ZM20.8 5.2H17V4H21C21.5523 4 22 4.44772 22 5V9H20.8V5.2ZM17 18.8H20.8V15H22V19C22 19.5523 21.5523 20 21 20H17V18.8ZM16.6368 8.75L10.8284 14.5583L7.84853 11.5784L7 12.427L10.1213 15.5483C10.5118 15.9388 11.145 15.9388 11.5355 15.5483L17.4853 9.59853L16.6368 8.75Z" />
</svg>
