<svg width="24" height="24" viewBox="0 0 24 24" fill="none" xmlns="http://www.w3.org/2000/svg">
<path fill-rule="evenodd" clip-rule="evenodd" d="M15.4892 3.46213C16.1013 4.36392 16.2657 5.31533 16.2657 7.31545C16.2657 7.8612 16.423 8.14335 16.6821 8.29274C16.8323 8.37939 16.9941 8.40927 17.0871 8.40774C17.4971 8.41446 18.0502 8.48743 18.6173 8.69214C19.3215 8.94636 19.8617 9.35515 20.1363 9.96703C21.1164 12.1511 20.6232 17.4545 18.3212 19.3494C17.6305 19.9182 16.243 20.4392 15.1709 20.527C14.5031 20.5816 11.0842 20.5743 4.97543 20.5354C4.12447 20.5303 3.4353 19.847 3.4353 19.0008V11.7203C3.4353 10.8705 4.13217 10.1857 4.98702 10.1857H6.86168C7.32861 10.1857 7.76528 10.1419 8.28623 10.0273C8.65381 9.94632 8.95919 9.80086 9.52031 9.47185C10.1492 9.10315 10.5198 8.68468 10.798 7.94909C10.9552 7.53253 11.0087 7.12388 11.0658 5.91474C11.0734 5.75463 11.0753 5.70425 11.0882 5.34081C11.1467 3.69252 11.3215 3.10524 12.2343 2.68133C13.4543 2.11469 14.9117 2.61131 15.4892 3.46213ZM14.4963 4.13611C14.2084 3.7119 13.3596 3.4818 12.7397 3.7697C12.3822 3.93572 12.3347 4.0526 12.2875 5.38334C12.2741 5.76041 12.2722 5.80901 12.2645 5.97144C12.2015 7.30421 12.1359 7.80279 11.9204 8.37357C11.5509 9.35059 11.0068 9.99134 10.1273 10.507C9.44233 10.9086 9.04757 11.0884 8.54415 11.1992C7.95482 11.3289 7.43208 11.3857 6.86168 11.3857H4.98702C4.78989 11.3857 4.6353 11.5383 4.6353 11.7203V19.0008C4.6353 19.1829 4.78745 19.3342 4.98308 19.3354C11.5678 19.3774 14.5085 19.3772 15.073 19.331C15.9086 19.2626 17.0643 18.83 17.5586 18.423C19.2167 17.0581 19.9395 12.4594 19.0415 10.4583C18.9242 10.1971 18.665 9.98517 18.2098 9.82085C17.8297 9.68363 17.42 9.61336 17.1068 9.60758C16.7769 9.61298 16.4042 9.51774 16.0826 9.33229C15.3885 8.93203 15.0657 8.22332 15.0657 7.31545C15.0657 5.47848 14.9271 4.77072 14.4963 4.13611ZM10.4606 13.603L12.7635 15.5946L17.5394 11L18 11.4848L13.433 16.6689C13.0816 17.0678 12.4568 17.0581 12.1179 16.6484L10 14.0878L10.4606 13.603Z" />
</svg>
