<svg width="24" height="24" viewBox="0 0 24 24" fill="none" xmlns="http://www.w3.org/2000/svg">
<path fill-rule="evenodd" clip-rule="evenodd" d="M5.74142 4.1982C5.84114 4.07313 5.99433 4 6.15659 4H17.6468C17.8043 4 17.9536 4.06893 18.0535 4.18787L21.8804 8.74063C22.0341 8.92354 22.0403 9.18538 21.8952 9.37497L12.3944 21.7936C12.1836 22.0693 11.7606 22.0687 11.5505 21.7925L2.10391 9.37384C1.96272 9.18824 1.96568 8.93338 2.11114 8.75096L5.74142 4.1982ZM3.54316 8.62857H7.44967L9.0862 5.02857H6.41372L3.54316 8.62857ZM3.63097 9.65714H7.41237L10.484 18.6662L3.63097 9.65714ZM12.0001 19.859L15.4803 9.65714H8.52188L12.0001 19.859ZM16.5899 9.65714L13.5519 18.5629L20.3651 9.65714H16.5899ZM16.5526 8.62857L14.9151 5.02857H17.398L20.424 8.62857H16.5526ZM13.7632 5.02857L15.4007 8.62857H8.60148L10.238 5.02857H13.7632Z" />
</svg>
