<svg width="24" height="24" viewBox="0 0 24 24" fill="none" xmlns="http://www.w3.org/2000/svg">
<path fill-rule="evenodd" clip-rule="evenodd" d="M18.8641 11.993C20.5667 9.16224 20.9076 6.39977 19.5805 5.07267C18.49 3.98214 16.3599 3.98315 13.9008 5.12724C13.6003 5.26703 13.2434 5.13678 13.1037 4.83634C12.9639 4.53589 13.0941 4.17901 13.3946 4.03923C16.2604 2.70592 18.9096 2.70467 20.429 4.22414C22.2727 6.06782 21.8391 9.5165 19.737 12.866L20.9656 14.0945C21.3951 14.5241 21.3951 15.2205 20.9656 15.6501L15.4501 21.1655C15.0206 21.5951 14.3241 21.5951 13.8945 21.1655L12.2367 19.5078C9.51904 20.7073 6.94372 20.7202 5.43837 19.2148C4.38563 18.1621 4.05578 16.5548 4.41721 14.686C4.48013 14.3606 4.79488 14.1479 5.12023 14.2108C5.44557 14.2737 5.6583 14.5885 5.59538 14.9138C5.30329 16.4241 5.55081 17.6302 6.2869 18.3663C7.31486 19.3942 9.20404 19.4214 11.3191 18.5901L2.72221 9.99326C2.29263 9.56368 2.29263 8.8672 2.72221 8.43762L8.23764 2.92219C8.66722 2.49261 9.3637 2.49261 9.79327 2.92219L18.8641 11.993ZM18.1902 13.0162L9.01546 3.84143L3.64145 9.21544L12.4828 18.0568C13.7839 17.3772 15.1247 16.3998 16.3694 15.1551C17.0605 14.464 17.6692 13.7433 18.1902 13.0162ZM19.0499 13.8758C18.5148 14.6043 17.902 15.3196 17.2179 16.0037C16 17.2216 14.683 18.2136 13.3692 18.9432L14.6723 20.2463L20.0463 14.8723L19.0499 13.8758Z" />
</svg>
