<svg width="24" height="24" viewBox="0 0 24 24" fill="none" xmlns="http://www.w3.org/2000/svg">
<path fill-rule="evenodd" clip-rule="evenodd" d="M12 19.9817C10.871 19.9817 9.78573 19.8228 8.77345 19.53L5.80704 20.9509C5.71931 20.9929 5.62121 21.0085 5.52476 20.9956C5.25104 20.9592 5.05874 20.7079 5.09524 20.4345L5.43422 17.8953C3.32992 16.3387 2 14.0466 2 11.4908C2 6.80148 6.47715 3 12 3C17.5228 3 22 6.80148 22 11.4908C22 16.1802 17.5228 19.9817 12 19.9817ZM6.45608 19.3095L8.66755 18.2502L9.10691 18.3773C10.0283 18.6438 11.0021 18.7817 12 18.7817C16.8997 18.7817 20.8 15.47 20.8 11.4908C20.8 10.2743 20.4354 9.12011 19.7892 8.1039L9.34674 14.3507L9.27361 14.3939C9.1833 14.44 9.08164 14.4671 8.97388 14.4671C8.72373 14.4671 8.50627 14.3266 8.39214 14.1192L8.34865 14.022L6.52783 9.9468C6.50816 9.90244 6.49597 9.85214 6.49597 9.80326C6.49597 9.61563 6.64528 9.46361 6.82922 9.46361C6.90457 9.46361 6.97299 9.48876 7.02895 9.53114L9.17721 11.0912C9.33372 11.1958 9.52182 11.2574 9.72348 11.2574C9.84343 11.2574 9.95839 11.2348 10.065 11.1949L19.0744 7.16131C17.4778 5.37288 14.9159 4.2 12 4.2C7.10034 4.2 3.2 7.51172 3.2 11.4908C3.2 13.5821 4.27567 15.5456 6.14787 16.9306L6.71742 17.3519L6.45608 19.3095Z" />
</svg>
