<svg width="29" height="28" viewBox="0 0 29 28" fill="none" xmlns="http://www.w3.org/2000/svg">
<path fill-rule="evenodd" clip-rule="evenodd" d="M23.8084 23.1V22.5347C23.8084 22.2671 23.5338 21.8284 23.2948 21.7118L16.6911 18.4905C14.91 17.6218 14.4699 15.5201 15.7459 14.0074L16.1677 13.5074C16.8109 12.745 17.3917 11.1585 17.3917 10.1619V8.16691C17.3917 6.36407 15.9282 4.9 14.125 4.9C12.324 4.9 10.8584 6.3644 10.8584 8.16618V10.1608C10.8584 11.1599 11.4367 12.7406 12.0823 13.5057L12.5041 14.0056C13.7828 15.5212 13.3378 17.6209 11.5592 18.4889L4.95545 21.7114C4.71821 21.8272 4.44169 22.2701 4.44169 22.5347V23.1H23.8084ZM3.04169 23.3333V22.5347C3.04169 21.7354 3.62286 20.8039 4.34147 20.4532L10.9452 17.2307C11.903 16.7633 12.1257 15.7281 11.434 14.9084L11.0123 14.4085C10.1541 13.3913 9.45835 11.4911 9.45835 10.1608V8.16618C9.45835 5.58912 11.5529 3.5 14.125 3.5C16.7023 3.5 18.7917 5.59181 18.7917 8.16691V10.1619C18.7917 11.4908 18.0928 13.3967 17.2378 14.4102L16.816 14.9102C16.1282 15.7254 16.3431 16.7631 17.3048 17.2323L23.9086 20.4535C24.6264 20.8036 25.2084 21.7294 25.2084 22.5347V23.3333C25.2084 23.9777 24.686 24.5 24.0417 24.5H4.20835C3.56402 24.5 3.04169 23.9777 3.04169 23.3333Z" />
</svg>
