<svg width="24" height="24" viewBox="0 0 24 24" fill="none" xmlns="http://www.w3.org/2000/svg">
<path fill-rule="evenodd" clip-rule="evenodd" d="M3.5 21C2.94771 21 2.5 20.5523 2.5 20L2.5 19.3155C2.5 18.6304 2.99815 17.8319 3.6141 17.5313L9.27445 14.7691C10.0954 14.3685 10.2863 13.4813 9.69345 12.7786L9.33191 12.3501C8.59632 11.4783 8 9.8495 8 8.70929V6.99958C8 4.79067 9.79536 3 12 3C14.2091 3 16 4.79298 16 7.00021V8.71019C16 9.8493 15.4009 11.4829 14.6681 12.3516L14.3066 12.7801C13.717 13.479 13.9012 14.3684 14.7255 14.7705L20.3859 17.5316C21.0012 17.8317 21.5 18.6252 21.5 19.3155V20C21.5 20.5523 21.0523 21 20.5 21H3.5Z" />
</svg>
