<svg width="25" height="24" viewBox="0 0 25 24" fill="none" xmlns="http://www.w3.org/2000/svg">
<path fill-rule="evenodd" clip-rule="evenodd" d="M22.5 12C22.5 17.5228 18.0228 22 12.5 22C6.97715 22 2.5 17.5228 2.5 12C2.5 6.47715 6.97715 2 12.5 2C18.0228 2 22.5 6.47715 22.5 12ZM11 8.30425C11.0937 8.30425 11.1855 8.33058 11.265 8.38025L16.3782 11.576C16.6124 11.7224 16.6836 12.0308 16.5372 12.265C16.497 12.3294 16.4426 12.3838 16.3782 12.424L11.265 15.6198C11.0308 15.7661 10.7224 15.6949 10.576 15.4608C10.5263 15.3813 10.5 15.2895 10.5 15.1958V8.80425C10.5 8.52811 10.7239 8.30425 11 8.30425Z" />
</svg>
