<svg width="24" height="24" viewBox="0 0 24 24" fill="none" xmlns="http://www.w3.org/2000/svg">
<path fill-rule="evenodd" clip-rule="evenodd" d="M12 20.8C16.8601 20.8 20.8 16.8601 20.8 12C20.8 7.13989 16.8601 3.2 12 3.2C7.13989 3.2 3.2 7.13989 3.2 12C3.2 16.8601 7.13989 20.8 12 20.8ZM12 22C6.47715 22 2 17.5228 2 12C2 6.47715 6.47715 2 12 2C17.5228 2 22 6.47715 22 12C22 17.5228 17.5228 22 12 22ZM10.7 14.8349L15.2358 12L10.7 9.1651V14.8349ZM10.265 7.47812L16.8216 11.576C17.0558 11.7224 17.127 12.0308 16.9806 12.265C16.9404 12.3294 16.886 12.3838 16.8216 12.424L10.265 16.5219C10.0308 16.6682 9.72236 16.597 9.576 16.3629C9.52633 16.2834 9.5 16.1916 9.5 16.0979V7.90212C9.5 7.62598 9.72386 7.40212 10 7.40212C10.0937 7.40212 10.1855 7.42846 10.265 7.47812Z" />
</svg>
