<svg width="20" height="20" viewBox="0 0 20 20" fill="none" xmlns="http://www.w3.org/2000/svg">
<path fill-rule="evenodd" clip-rule="evenodd" d="M0 10C0 15.5228 4.47715 20 10 20C15.5228 20 20 15.5228 20 10C20 4.47715 15.5228 0 10 0C4.47715 0 0 4.47715 0 10ZM18.8 10C18.8 14.8601 14.8601 18.8 10 18.8C5.13989 18.8 1.2 14.8601 1.2 10C1.2 5.13989 5.13989 1.2 10 1.2C14.8601 1.2 18.8 5.13989 18.8 10ZM15 9.39999V10.6H10.6V15H9.39999V10.6H5V9.39999H9.39999V5H10.6V9.39999H15Z" fill="black" fill-opacity="0.9"/>
</svg>
