<svg width="24" height="24" viewBox="0 0 24 24" fill="none" xmlns="http://www.w3.org/2000/svg">
<path fill-rule="evenodd" clip-rule="evenodd" d="M12 22C6.47715 22 2 17.5228 2 12C2 6.47715 6.47715 2 12 2C17.5228 2 22 6.47715 22 12C22 17.5228 17.5228 22 12 22ZM12 20.8C16.8601 20.8 20.8 16.8601 20.8 12C20.8 7.13989 16.8601 3.2 12 3.2C7.13989 3.2 3.2 7.13989 3.2 12C3.2 16.8601 7.13989 20.8 12 20.8ZM17 13C17 11.3431 15.6569 10 14 10H9.32548L10.677 8.64853L9.82843 7.8L7.84853 9.7799L7.35355 10.2749C7.15829 10.4701 7.15829 10.7867 7.35355 10.982L7.84853 11.477L9.82843 13.4569L10.677 12.6083L9.26863 11.2H14C14.9941 11.2 15.8 12.0059 15.8 13C15.8 13.9941 14.9941 14.8 14 14.8H12V16H14C15.6569 16 17 14.6569 17 13Z" />
</svg>
