<svg width="24" height="24" viewBox="0 0 24 24" fill="none" xmlns="http://www.w3.org/2000/svg">
<path fill-rule="evenodd" clip-rule="evenodd" d="M12 3H4C3.44772 3 3 3.44772 3 4V12C3 12.5523 3.44772 13 4 13H12C12.5523 13 13 12.5523 13 12V4C13 3.44772 12.5523 3 12 3ZM4.2 4.2V11.8H11.8V4.2H4.2ZM9 7H7V9H9V7ZM16 3H20C20.5523 3 21 3.44772 21 4V8C21 8.55228 20.5523 9 20 9H16C15.4477 9 15 8.55228 15 8V4C15 3.44772 15.4477 3 16 3ZM19.8 7.8H16.2V4.2H19.8V7.8ZM11 21V19H13V21H11ZM13 17V15H11V17H13ZM16 15H20C20.5523 15 21 15.4477 21 16V20C21 20.5523 20.5523 21 20 21H16C15.4477 21 15 20.5523 15 20V16C15 15.4477 15.4477 15 16 15ZM19.8 19.8H16.2V16.2H19.8V19.8ZM4 15H8C8.55228 15 9 15.4477 9 16V20C9 20.5523 8.55228 21 8 21H4C3.44772 21 3 20.5523 3 20V16C3 15.4477 3.44772 15 4 15ZM7.8 19.8H4.2V16.2H7.8V19.8ZM19 11H21V13H19V11ZM15 11H17V13H15V11Z" />
</svg>
