<svg width="24" height="24" viewBox="0 0 24 24" fill="none" xmlns="http://www.w3.org/2000/svg">
<path fill-rule="evenodd" clip-rule="evenodd" d="M7.99999 17.7C7.0611 17.7 6.29999 16.9389 6.29999 16C6.29999 15.0611 7.0611 14.3 7.99999 14.3H17.6338C17.8821 14.3 18.044 14.1733 18.0606 14.0845V12.1127C18.0606 11.349 18.3551 10.6127 18.8344 10.1434C19.1873 9.67284 19.8087 9.29999 20.3803 9.29999C21.3022 9.29999 21.9781 10.1026 21.8514 10.9851C21.8431 11.0689 21.8303 11.2076 21.8175 11.3674C21.8114 11.444 21.8059 11.5179 21.8012 11.588C21.7904 11.7499 21.7845 11.883 21.7845 11.9718C21.7845 12.7874 21.8662 13.5392 22.0453 14.1964C22.0876 14.3656 22.1307 14.5117 22.1901 14.6936C22.2154 14.7705 22.2154 14.7705 22.2465 14.8645C22.5513 15.8551 22.7 16.8403 22.7 17.8873L22.6957 18.7393C22.6152 19.464 22.3083 20.2093 21.8713 20.821C21.1198 21.9065 19.8764 22.5815 18.4084 22.7L16.5588 22.6997C15.3616 22.6678 14.1989 22.1325 13.336 21.2696C13.1729 21.1065 13.0659 20.9594 12.8707 20.6594C12.1905 19.8431 11.6963 18.8616 11.3796 17.7H7.99999ZM12.3335 16.5L12.4184 16.8949C12.6816 18.1189 13.137 19.1046 13.8245 19.9339C14.0153 20.2201 14.0998 20.3364 14.1845 20.4211C14.8374 21.074 15.7123 21.4767 16.5775 21.5L18.3674 21.5017C19.4309 21.4141 20.3445 20.9181 20.8889 20.1319C21.2181 19.6711 21.4464 19.1165 21.5 18.662V17.8873C21.5 16.9601 21.3692 16.0939 21.1031 15.2285C21.0765 15.1488 21.0765 15.1488 21.0493 15.0661C20.9818 14.8593 20.931 14.687 20.8838 14.4977C20.6774 13.7409 20.5845 12.8863 20.5845 11.9718C20.5845 11.8508 20.5914 11.6944 20.6039 11.5082C20.6089 11.4325 20.6148 11.3533 20.6213 11.2717C20.6348 11.1029 20.6483 10.9568 20.6599 10.8448C20.6881 10.6478 20.5636 10.5 20.3803 10.5C20.2252 10.5 19.9374 10.6727 19.7479 10.9169C19.4325 11.2324 19.2606 11.6622 19.2606 12.1127V13.8732L19.2567 14.1465C19.1556 14.9549 18.4591 15.5 17.6338 15.5H7.99999C7.72385 15.5 7.49999 15.7238 7.49999 16C7.49999 16.2761 7.72385 16.5 7.99999 16.5H12.3335ZM16 6.29999C16.9389 6.29999 17.7 7.0611 17.7 7.99999C17.7 8.93887 16.9389 9.69999 16 9.69999H6.36619C6.11791 9.69999 5.95597 9.82672 5.93942 9.91548V11.8873C5.93942 12.651 5.6449 13.3873 5.16562 13.8566C4.81272 14.3271 4.19131 14.7 3.61971 14.7C2.69774 14.7 2.02183 13.8973 2.14853 13.0148C2.15691 12.931 2.16971 12.7923 2.1825 12.6325C2.18862 12.556 2.1941 12.482 2.19877 12.412C2.20956 12.2501 2.21548 12.117 2.21548 12.0282C2.21548 11.2126 2.13375 10.4607 1.95469 9.80357C1.90145 9.5906 1.8588 9.452 1.75348 9.13543C1.4487 8.14489 1.29999 7.15969 1.29999 6.11266L1.30427 5.26071C1.3848 4.53598 1.69169 3.79065 2.12868 3.17901C2.88019 2.09348 4.12357 1.41851 5.59154 1.29999L7.44118 1.30024C8.63837 1.33216 9.80104 1.86743 10.664 2.73037C10.8271 2.89349 10.934 3.04054 11.1293 3.34059C11.8095 4.15684 12.3037 5.13842 12.6203 6.29999H16ZM11.6665 7.49999L11.5816 7.10511C11.3184 5.88108 10.8629 4.89542 10.1755 4.06607C9.98472 3.77988 9.90014 3.66359 9.81545 3.57889C9.16254 2.92598 8.28773 2.52324 7.42252 2.49999L5.63258 2.4983C4.56905 2.58589 3.65547 3.08183 3.11108 3.86807C2.7819 4.32892 2.55357 4.88343 2.49999 5.33802V6.11266C2.49999 7.03984 2.63074 7.9061 2.89686 8.77145C3.00627 9.09966 3.05629 9.26223 3.11617 9.50223C3.32259 10.2591 3.41548 11.1137 3.41548 12.0282C3.41548 12.1492 3.40853 12.3056 3.39612 12.4918C3.39107 12.5675 3.3852 12.6467 3.37868 12.7282C3.36517 12.897 3.35168 13.0432 3.34003 13.1552C3.31189 13.3522 3.43636 13.5 3.61971 13.5C3.7748 13.5 4.06259 13.3273 4.25207 13.0831C4.5675 12.7676 4.73942 12.3378 4.73942 11.8873V10.1267L4.74329 9.85346C4.84433 9.04508 5.54084 8.49999 6.36619 8.49999H16C16.2761 8.49999 16.5 8.27613 16.5 7.99999C16.5 7.72385 16.2761 7.49999 16 7.49999H11.6665Z" />
</svg>
