<svg width="17" height="16" viewBox="0 0 17 16" fill="none" xmlns="http://www.w3.org/2000/svg">
<path fill-rule="evenodd" clip-rule="evenodd" d="M10.8037 10.9327C9.99677 11.5994 8.96181 12 7.83329 12C5.25596 12 3.16663 9.91066 3.16663 7.33332C3.16663 4.75599 5.25596 2.66666 7.83329 2.66666C10.4106 2.66666 12.5 4.75599 12.5 7.33332C12.5 8.49556 12.0751 9.55857 11.3722 10.3755C11.3814 10.3832 11.3903 10.3913 11.399 10.4L13.8333 12.8343C13.9895 12.9905 13.9895 13.2438 13.8333 13.4C13.6771 13.5562 13.4238 13.5562 13.2676 13.4L10.8333 10.9657C10.8227 10.9551 10.8129 10.9441 10.8037 10.9327ZM11.7 7.33333C11.7 9.46884 9.9688 11.2 7.83329 11.2C5.69779 11.2 3.96662 9.46884 3.96662 7.33333C3.96662 5.19783 5.69779 3.46666 7.83329 3.46666C9.9688 3.46666 11.7 5.19783 11.7 7.33333Z" fill="black" fill-opacity="0.5"/>
</svg>
