<svg width="24" height="24" viewBox="0 0 24 24" fill="none" xmlns="http://www.w3.org/2000/svg">
<path fill-rule="evenodd" clip-rule="evenodd" d="M9.89199 8.2568C9.66562 8.16625 9.53756 7.92563 9.58889 7.68728L10.781 2.15271C10.8442 1.85905 11.1503 1.68706 11.434 1.78574L12.6874 2.2217C12.9634 2.31772 13.0986 2.62904 12.9803 2.89632L10.6952 8.05905C10.5863 8.30512 10.3021 8.42085 10.0523 8.32091L9.89199 8.2568ZM12.2 10.0409C12.2 9.78893 12.3874 9.57635 12.6374 9.5448L21.9605 8.3681C22.2508 8.33145 22.5105 8.55093 22.5226 8.84335L22.5781 10.1742C22.59 10.4601 22.3599 10.6977 22.0737 10.6949L12.6952 10.6048C12.4209 10.6021 12.2 10.3791 12.2 10.1048V10.0409ZM6.75549 10.6078C7.00897 10.6034 7.21901 10.4099 7.24424 10.1576L7.2555 10.045C7.28084 9.7916 7.11173 9.55966 6.86275 9.50631L2.25382 8.51868C1.95975 8.45566 1.67699 8.66465 1.65093 8.96427L1.54808 10.147C1.52238 10.4426 1.75829 10.6955 2.05497 10.6903L6.75549 10.6078ZM8.44166 13.0625C8.69798 13.1394 8.84832 13.4045 8.78274 13.6639L6.7337 21.771C6.66182 22.0554 6.36172 22.2171 6.08468 22.1208L4.80233 21.6747C4.53006 21.58 4.39405 21.2753 4.50537 21.0094L7.72621 13.3152C7.825 13.0792 8.08603 12.9558 8.3311 13.0293L8.44166 13.0625ZM12.106 12.8374C11.9326 12.6462 11.6421 12.6184 11.4356 12.7733L11.3912 12.8066C11.1737 12.9697 11.1264 13.2766 11.2846 13.4976L17.4868 22.1624C17.6559 22.3987 17.9902 22.4415 18.2134 22.2555L19.1994 21.4338C19.4179 21.2518 19.4408 20.9244 19.2497 20.7138L12.106 12.8374Z" />
</svg>
