<svg width="24" height="24" viewBox="0 0 24 24" fill="none" xmlns="http://www.w3.org/2000/svg">
<path fill-rule="evenodd" clip-rule="evenodd" d="M12.5631 3.2H11.4369L10.7924 5.77811L10.1452 5.97714C9.7674 6.09332 9.40218 6.24493 9.05375 6.42967L8.45518 6.74705L6.17561 5.37931L5.37931 6.17561L6.74705 8.45518L6.42967 9.05375C6.24493 9.40218 6.09332 9.7674 5.97714 10.1452L5.77811 10.7924L3.2 11.4369V12.5631L5.77811 13.2076L5.97714 13.8548C6.09332 14.2326 6.24493 14.5978 6.42967 14.9462L6.74705 15.5448L5.37931 17.8244L6.17561 18.6207L8.45518 17.2529L9.05375 17.5703C9.40218 17.7551 9.7674 17.9067 10.1452 18.0229L10.7924 18.2219L11.4369 20.8H12.5631L13.2076 18.2219L13.8548 18.0229C14.2326 17.9067 14.5978 17.7551 14.9462 17.5703L15.5448 17.2529L17.8244 18.6207L18.6207 17.8244L17.2529 15.5448L17.5703 14.9462C17.7551 14.5978 17.9067 14.2326 18.0229 13.8548L18.2219 13.2076L20.8 12.5631V11.4369L18.2219 10.7924L18.0229 10.1452C17.9067 9.7674 17.7551 9.40218 17.5703 9.05375L17.2529 8.45518L18.6207 6.17561L17.8244 5.37931L15.5448 6.74705L14.9462 6.42967C14.5978 6.24493 14.2326 6.09332 13.8548 5.97714L13.2076 5.77811L12.5631 3.2ZM15.5084 5.36949L17.3409 4.26998C17.7344 4.03389 18.238 4.0959 18.5625 4.42036L19.5796 5.4375C19.9041 5.76197 19.9661 6.26563 19.73 6.6591L18.6305 8.49162C18.8491 8.90391 19.0304 9.33902 19.1698 9.79246L21.2425 10.3106C21.6877 10.4219 22 10.8219 22 11.2808V12.7192C22 13.1781 21.6877 13.5781 21.2425 13.6894L19.1698 14.2075C19.0304 14.661 18.8491 15.0961 18.6305 15.5084L19.73 17.3409C19.9661 17.7344 19.9041 18.238 19.5796 18.5625L18.5625 19.5796C18.238 19.9041 17.7344 19.9661 17.3409 19.73L15.5084 18.6305C15.0961 18.8491 14.661 19.0304 14.2075 19.1698L13.6894 21.2425C13.5781 21.6877 13.1781 22 12.7192 22H11.2808C10.8219 22 10.4219 21.6877 10.3106 21.2425L9.79246 19.1698C9.33902 19.0304 8.90391 18.8491 8.49162 18.6305L6.6591 19.73C6.26563 19.9661 5.76197 19.9041 5.4375 19.5796L4.42036 18.5625C4.0959 18.238 4.03389 17.7344 4.26998 17.3409L5.36949 15.5084C5.15088 15.0961 4.9696 14.661 4.83015 14.2075L2.75746 13.6894C2.3123 13.5781 2 13.1781 2 12.7192V11.2808C2 10.8219 2.3123 10.4219 2.75746 10.3106L4.83015 9.79246C4.9696 9.33902 5.15088 8.90391 5.36949 8.49162L4.26998 6.6591C4.03389 6.26563 4.0959 5.76197 4.42036 5.4375L5.4375 4.42036C5.76197 4.0959 6.26563 4.03389 6.6591 4.26998L8.49162 5.36949C8.90391 5.15088 9.33902 4.9696 9.79246 4.83015L10.3106 2.75746C10.4219 2.3123 10.8219 2 11.2808 2H12.7192C13.1781 2 13.5781 2.3123 13.6894 2.75746L14.2075 4.83015C14.661 4.9696 15.0961 5.15088 15.5084 5.36949ZM12 14.8C13.5464 14.8 14.8 13.5464 14.8 12C14.8 10.4536 13.5464 9.2 12 9.2C10.4536 9.2 9.2 10.4536 9.2 12C9.2 13.5464 10.4536 14.8 12 14.8ZM12 16C9.79086 16 8 14.2091 8 12C8 9.79086 9.79086 8 12 8C14.2091 8 16 9.79086 16 12C16 14.2091 14.2091 16 12 16Z" />
</svg>
