<svg width="32" height="32" viewBox="0 0 32 32" fill="none" xmlns="http://www.w3.org/2000/svg">
<path fill-rule="evenodd" clip-rule="evenodd" d="M2.66669 16C2.66669 23.3638 8.63622 29.3333 16 29.3333C23.3638 29.3333 29.3334 23.3638 29.3334 16C29.3334 8.63619 23.3638 2.66666 16 2.66666C8.63622 2.66666 2.66669 8.63619 2.66669 16ZM27.7334 16C27.7334 22.4801 22.4802 27.7333 16 27.7333C9.51988 27.7333 4.26669 22.4801 4.26669 16C4.26669 9.51985 9.51988 4.26666 16 4.26666C22.4802 4.26666 27.7334 9.51985 27.7334 16ZM24 16.6667C24 21.0849 20.4183 24.6667 16 24.6667C11.5817 24.6667 8.00002 21.0849 8.00002 16.6667H24ZM22.1984 18.2667C21.4879 21.027 18.9822 23.0667 16 23.0667C13.0179 23.0667 10.5121 21.027 9.80165 18.2667H22.1984ZM11.3334 14C12.4379 14 13.3334 13.1046 13.3334 12C13.3334 10.8954 12.4379 9.99999 11.3334 9.99999C10.2288 9.99999 9.33335 10.8954 9.33335 12C9.33335 13.1046 10.2288 14 11.3334 14ZM22.6667 12C22.6667 13.1046 21.7713 14 20.6667 14C19.5621 14 18.6667 13.1046 18.6667 12C18.6667 10.8954 19.5621 9.99999 20.6667 9.99999C21.7713 9.99999 22.6667 10.8954 22.6667 12Z" />
</svg>
