<svg width="24" height="24" viewBox="0 0 24 24" fill="none" xmlns="http://www.w3.org/2000/svg">
<path fill-rule="evenodd" clip-rule="evenodd" d="M2 12C2 17.5228 6.47715 22 12 22C17.5228 22 22 17.5228 22 12C22 6.47715 17.5228 2 12 2C6.47715 2 2 6.47715 2 12ZM20.8 12C20.8 16.8601 16.8601 20.8 12 20.8C7.13989 20.8 3.2 16.8601 3.2 12C3.2 7.13989 7.13989 3.2 12 3.2C16.8601 3.2 20.8 7.13989 20.8 12ZM9.7899 9.92367H17V11.1237H9L7.54588 11.1237C7.26974 11.1237 7.04588 10.8998 7.04588 10.6237C7.04588 10.4757 7.11143 10.3353 7.2249 10.2403L10.3863 7.59332C10.5557 7.4515 10.808 7.47384 10.9498 7.64322C11.0632 7.77865 11.0743 7.97241 10.9772 8.11994L9.7899 9.92367ZM7.04588 14.08H14.256L13.0687 15.8837C12.9716 16.0313 12.9827 16.225 13.0961 16.3605C13.2379 16.5298 13.4902 16.5522 13.6596 16.4104L16.821 13.7634C16.9344 13.6684 17 13.528 17 13.38C17 13.1039 16.7761 12.88 16.5 12.88H15.0459H7.04588V14.08Z" />
</svg>
