<svg width="24" height="24" viewBox="0 0 24 24" fill="none" xmlns="http://www.w3.org/2000/svg">
<path fill-rule="evenodd" clip-rule="evenodd" d="M3.2 6.7V17.3H15.8V6.7H3.2ZM3 5.5H16C16.5523 5.5 17 5.94772 17 6.5V17.5C17 18.0523 16.5523 18.5 16 18.5H3C2.44772 18.5 2 18.0523 2 17.5V6.5C2 5.94772 2.44772 5.5 3 5.5ZM19.2 13.4233L21.8 15.5033V8.49675L19.2 10.5767V13.4233ZM18 10L21.3753 7.29976C21.8066 6.95475 22.4359 7.02467 22.7809 7.45593C22.9227 7.63324 23 7.85355 23 8.08062V15.9194C23 16.4717 22.5523 16.9194 22 16.9194C21.7729 16.9194 21.5526 16.8421 21.3753 16.7002L18 14V10Z" />
</svg>
