<svg width="24" height="24" viewBox="0 0 24 24" fill="none" xmlns="http://www.w3.org/2000/svg">
<path fill-rule="evenodd" clip-rule="evenodd" d="M12.3083 16.8083C13.5761 15.5405 14.3 13.8291 14.3 12C14.3 10.1709 13.5761 8.45946 12.3083 7.19167L13.1569 6.34314C14.6046 7.79085 15.5 9.79085 15.5 12C15.5 14.2091 14.6046 16.2091 13.1569 17.6568L12.3083 16.8083ZM10.3284 14.8284C11.0745 14.0823 11.5 13.0764 11.5 12C11.5 10.9236 11.0745 9.91765 10.3284 9.17157L11.177 8.32304C12.118 9.26405 12.7 10.5641 12.7 12C12.7 13.4359 12.118 14.7359 11.177 15.6769L10.3284 14.8284ZM9.9 12C9.9 12.6627 9.63137 13.2627 9.19706 13.6971L7.5 12L9.19706 10.3029C9.63137 10.7373 9.9 11.3373 9.9 12Z" fill="black" fill-opacity="0.9"/>
</svg>
