<svg width="32" height="32" viewBox="0 0 32 32" fill="none" xmlns="http://www.w3.org/2000/svg">
<path fill-rule="evenodd" clip-rule="evenodd" d="M16 29.3333C8.63616 29.3333 2.66663 23.3638 2.66663 16C2.66663 8.63619 8.63616 2.66666 16 2.66666C23.3638 2.66666 29.3333 8.63619 29.3333 16C29.3333 23.3638 23.3638 29.3333 16 29.3333ZM16 27.7333C22.4801 27.7333 27.7333 22.4801 27.7333 16C27.7333 9.51985 22.4801 4.26666 16 4.26666C9.51982 4.26666 4.26663 9.51985 4.26663 16C4.26663 22.4801 9.51982 27.7333 16 27.7333ZM19.0666 16C19.0666 18.4388 18.1015 20.7207 16.4111 22.4111L17.5424 23.5425C19.4727 21.6122 20.6666 18.9455 20.6666 16C20.6666 13.0545 19.4727 10.3878 17.5424 8.45752L16.4111 9.58889C18.1015 11.2793 19.0666 13.5612 19.0666 16ZM13.7712 19.7712C14.766 18.7764 15.3333 17.4352 15.3333 16C15.3333 14.5648 14.766 13.2235 13.7712 12.2288L14.9026 11.0974C16.1573 12.3521 16.9333 14.0854 16.9333 16C16.9333 17.9146 16.1573 19.6479 14.9026 20.9026L13.7712 19.7712ZM13.2 16C13.2 16.8836 12.8418 17.6836 12.2627 18.2627L9.99996 16L12.2627 13.7372C12.8418 14.3163 13.2 15.1163 13.2 16Z" />
</svg>
