<svg width="24" height="24" viewBox="0 0 24 24" fill="none" xmlns="http://www.w3.org/2000/svg">
<path fill-rule="evenodd" clip-rule="evenodd" d="M22 19V14.4H21.98C21.9931 14.3354 22 14.2685 22 14.2V14V10V9.8C22 9.73151 21.9931 9.66462 21.98 9.6H22V5C22 4.44772 21.5523 4 21 4H3C2.44772 4 2 4.44772 2 5V19C2 19.5523 2.44772 20 3 20H21C21.5523 20 22 19.5523 22 19ZM15 10H20.8V14H15C13.8954 14 13 13.1046 13 12C13 10.8954 13.8954 10 15 10ZM20.8 8.8V5.2H3.2V18.8H20.8V15.2H15C13.2327 15.2 11.8 13.7673 11.8 12C11.8 10.2327 13.2327 8.8 15 8.8H20.8ZM16 12C16 12.5523 15.5523 13 15 13C14.4477 13 14 12.5523 14 12C14 11.4477 14.4477 11 15 11C15.5523 11 16 11.4477 16 12Z" />
</svg>
